<?xml version="1.0" encoding="UTF-8" standalone="no"?>
<svg
   xmlns:dc="http://purl.org/dc/elements/1.1/"
   xmlns:cc="http://creativecommons.org/ns#"
   xmlns:rdf="http://www.w3.org/1999/02/22-rdf-syntax-ns#"
   xmlns:svg="http://www.w3.org/2000/svg"
   xmlns="http://www.w3.org/2000/svg"
   xmlns:sodipodi="http://sodipodi.sourceforge.net/DTD/sodipodi-0.dtd"
   xmlns:inkscape="http://www.inkscape.org/namespaces/inkscape"
   inkscape:version="1.0 (4035a4fb49, 2020-05-01)"
   sodipodi:docname="bem-m.svg"
   id="svg8"
   version="1.1"
   viewBox="0 0 31.750002 31.750001"
   height="120"
   width="120">
  <defs
     id="defs2" />
  <sodipodi:namedview
     inkscape:window-maximized="0"
     inkscape:window-y="0"
     inkscape:window-x="182"
     inkscape:window-height="1040"
     inkscape:window-width="1274"
     units="px"
     fit-margin-bottom="0"
     fit-margin-right="0"
     fit-margin-left="0"
     fit-margin-top="0"
     showgrid="false"
     inkscape:document-rotation="0"
     inkscape:current-layer="layer1"
     inkscape:document-units="mm"
     inkscape:cy="135.76471"
     inkscape:cx="89.465066"
     inkscape:zoom="2.8"
     inkscape:pageshadow="2"
     inkscape:pageopacity="0.0"
     borderopacity="1.0"
     bordercolor="#666666"
     pagecolor="#ffffff"
     id="base" />
  <metadata
     id="metadata5">
    <rdf:RDF>
      <cc:Work
         rdf:about="">
        <dc:format>image/svg+xml</dc:format>
        <dc:type
           rdf:resource="http://purl.org/dc/dcmitype/StillImage" />
        <dc:title></dc:title>
      </cc:Work>
    </rdf:RDF>
  </metadata>
  <g
     transform="translate(-74.851034,-27.284693)"
     id="layer1"
     inkscape:groupmode="layer"
     inkscape:label="Layer 1">
    <g
       transform="matrix(0.19990205,0,0,0.19990205,75.014824,28.985586)"
       id="g1085">
      <g
         id="#ffffffff">
        <path
           fill="#ffffff"
           opacity="1"
           d="M 0,0 H 157 V 150 H 0 V 0 m 14.83,10.48 c 0.01,2.97 0.02,5.94 0,8.91 10.12,-0.01 20.23,-0.01 30.35,0 -0.01,-2.97 -0.01,-5.93 0.01,-8.9 -10.12,-0.01 -20.24,0 -30.36,-0.01 m 0.01,16.64 c 0,2.9 0,5.8 0,8.7 10.11,0.03 20.22,0.01 30.33,0.01 0,-2.9 0,-5.8 0.04,-8.7 C 35.08,27.08 24.96,27.1 14.84,27.12 m -0.01,16.26 c 0.01,2.96 0.01,5.93 0,8.9 18.41,0.02 36.81,-0.04 55.21,0.03 7.68,0.12 16.29,1.56 21.26,8.06 C 91.12,57.38 91.13,54.16 89.29,51.63 85.46,45.43 77.68,43.56 70.87,43.4 52.19,43.32 33.51,43.37 14.83,43.38 m 0.01,16.46 c 0,2.96 0,5.93 -0.01,8.89 19.71,0.05 39.41,-0.02 59.11,0.04 5.81,0.2 11.71,0.36 17.3,2.12 C 91.1,68.73 91.23,66.2 89.37,64.67 84.68,60.45 77.91,60.33 71.96,59.88 52.92,59.81 33.88,59.88 14.84,59.84 m 58.14,16.49 c -19.38,0.01 -38.76,-0.01 -58.15,0 0.01,2.97 0.01,5.95 0.01,8.92 19.36,-0.02 38.72,0.04 58.08,-0.03 5.47,-0.4 11.5,-0.76 15.98,-4.3 2.16,-1.56 2.28,-4.31 2.36,-6.72 -5.9,1.87 -12.15,2.04 -18.28,2.13 m -2.94,16.48 c -18.4,0.05 -36.8,0.01 -55.2,0.02 0,2.96 0,5.93 -0.01,8.9 18.75,-0.02 37.51,0.05 56.26,-0.03 6.8,-0.16 14.54,-2.15 18.3,-8.35 1.78,-2.51 1.68,-5.69 1.91,-8.62 -4.99,6.45 -13.57,8.02 -21.26,8.08 m 20.41,7.55 c 0.03,5.46 6.32,6.39 10.51,6.66 14.28,0.31 28.56,0.03 42.84,0.14 0.03,-1.84 0.04,-3.69 0.07,-5.53 -12.29,0 -24.58,0 -36.87,0 -5.54,-0.06 -11.15,0.2 -16.55,-1.27 m 0,6.5 c 0.29,2.26 0.58,4.71 2.24,6.43 2.85,3.13 7.35,3.78 11.37,3.88 13.34,0 26.69,-0.01 40.04,0 0.01,-1.83 0.01,-3.67 0.01,-5.5 -13.52,-0.03 -27.04,0.08 -40.56,-0.05 -4.76,0.01 -9.72,-1.17 -13.1,-4.76 z"
           id="path1046" />
      </g>
      <g
         id="#010101ff">
        <path
           fill="#010101"
           opacity="1"
           d="m 14.83,10.48 c 10.12,0.01 20.24,0 30.36,0.01 -0.02,2.97 -0.02,5.93 -0.01,8.9 -10.12,-0.01 -20.23,-0.01 -30.35,0 0.02,-2.97 0.01,-5.94 0,-8.91 z"
           id="path1049" />
        <path
           fill="#010101"
           opacity="1"
           d="m 14.84,27.12 c 10.12,-0.02 20.24,-0.04 30.37,0.01 -0.04,2.9 -0.04,5.8 -0.04,8.7 -10.11,0 -20.22,0.02 -30.33,-0.01 0,-2.9 0,-5.8 0,-8.7 z"
           id="path1051" />
        <path
           fill="#010101"
           opacity="1"
           d="m 14.83,43.38 c 18.68,-0.01 37.36,-0.06 56.04,0.02 6.81,0.16 14.59,2.03 18.42,8.23 1.84,2.53 1.83,5.75 2.01,8.74 -4.97,-6.5 -13.58,-7.94 -21.26,-8.06 -18.4,-0.07 -36.8,-0.01 -55.21,-0.03 0.01,-2.97 0.01,-5.94 0,-8.9 z"
           id="path1053" />
        <path
           fill="#010101"
           opacity="1"
           d="m 14.84,59.84 c 19.04,0.04 38.08,-0.03 57.12,0.04 5.95,0.45 12.72,0.57 17.41,4.79 1.86,1.53 1.73,4.06 1.87,6.22 -5.59,-1.76 -11.49,-1.92 -17.3,-2.12 -19.7,-0.06 -39.4,0.01 -59.11,-0.04 0.01,-2.96 0.01,-5.93 0.01,-8.89 z"
           id="path1055" />
        <path
           fill="#010101"
           opacity="1"
           d="m 72.98,76.33 c 6.13,-0.09 12.38,-0.26 18.28,-2.13 -0.08,2.41 -0.2,5.16 -2.36,6.72 -4.48,3.54 -10.51,3.9 -15.98,4.3 -19.36,0.07 -38.72,0.01 -58.08,0.03 0,-2.97 0,-5.95 -0.01,-8.92 19.39,-0.01 38.77,0.01 58.15,0 z"
           id="path1057" />
        <path
           fill="#010101"
           opacity="1"
           d="m 70.04,92.81 c 7.69,-0.06 16.27,-1.63 21.26,-8.08 -0.23,2.93 -0.13,6.11 -1.91,8.62 -3.76,6.2 -11.5,8.19 -18.3,8.35 -18.75,0.08 -37.51,0.01 -56.26,0.03 0.01,-2.97 0.01,-5.94 0.01,-8.9 18.4,-0.01 36.8,0.03 55.2,-0.02 z"
           id="path1059" />
        <path
           fill="#010101"
           opacity="1"
           d="m 90.45,100.36 c 5.4,1.47 11.01,1.21 16.55,1.27 12.29,0 24.58,0 36.87,0 -0.03,1.84 -0.04,3.69 -0.07,5.53 -14.28,-0.11 -28.56,0.17 -42.84,-0.14 -4.19,-0.27 -10.48,-1.2 -10.51,-6.66 z"
           id="path1061" />
        <path
           fill="#010101"
           opacity="1"
           d="m 90.45,106.86 c 3.38,3.59 8.34,4.77 13.1,4.76 13.52,0.13 27.04,0.02 40.56,0.05 0,1.83 0,3.67 -0.01,5.5 -13.35,-0.01 -26.7,0 -40.04,0 -4.02,-0.1 -8.52,-0.75 -11.37,-3.88 -1.66,-1.72 -1.95,-4.17 -2.24,-6.43 z"
           id="path1063" />
      </g>
    </g>
  </g>
</svg>
