<?xml version="1.0" encoding="UTF-8" standalone="no"?>
<svg
   xmlns:dc="http://purl.org/dc/elements/1.1/"
   xmlns:cc="http://creativecommons.org/ns#"
   xmlns:rdf="http://www.w3.org/1999/02/22-rdf-syntax-ns#"
   xmlns:svg="http://www.w3.org/2000/svg"
   xmlns="http://www.w3.org/2000/svg"
   xmlns:sodipodi="http://sodipodi.sourceforge.net/DTD/sodipodi-0.dtd"
   xmlns:inkscape="http://www.inkscape.org/namespaces/inkscape"
   inkscape:version="1.0 (4035a4fb49, 2020-05-01)"
   sodipodi:docname="Bootstrap-m.svg"
   id="svg8"
   version="1.1"
   viewBox="0 0 31.750002 31.750001"
   height="120"
   width="120">
  <defs
     id="defs2" />
  <sodipodi:namedview
     inkscape:window-maximized="0"
     inkscape:window-y="0"
     inkscape:window-x="182"
     inkscape:window-height="1040"
     inkscape:window-width="1274"
     units="px"
     fit-margin-bottom="0"
     fit-margin-right="0"
     fit-margin-left="0"
     fit-margin-top="0"
     showgrid="false"
     inkscape:document-rotation="0"
     inkscape:current-layer="layer1"
     inkscape:document-units="mm"
     inkscape:cy="135.76471"
     inkscape:cx="89.465066"
     inkscape:zoom="2.8"
     inkscape:pageshadow="2"
     inkscape:pageopacity="0.0"
     borderopacity="1.0"
     bordercolor="#666666"
     pagecolor="#ffffff"
     id="base" />
  <metadata
     id="metadata5">
    <rdf:RDF>
      <cc:Work
         rdf:about="">
        <dc:format>image/svg+xml</dc:format>
        <dc:type
           rdf:resource="http://purl.org/dc/dcmitype/StillImage" />
        <dc:title></dc:title>
      </cc:Work>
    </rdf:RDF>
  </metadata>
  <g
     transform="translate(-74.851034,-27.284693)"
     id="layer1"
     inkscape:groupmode="layer"
     inkscape:label="Layer 1">
    <g
       transform="matrix(2.2130997,0,0,2.2130997,74.934728,27.328398)"
       id="g1136">
      <g
         style="display:inline"
         id="layer1-6" />
      <g
         style="display:inline"
         id="layer3">
        <g
           transform="matrix(0.09451225,0,0,0.09451225,0.04506919,1.0434604)"
           id="g1466">
          <g
             id="#723ebeff">
            <g
               id="g1493">
              <g
                 style="display:inline"
                 id="g904"
                 transform="translate(0.02000126,0.21999962)">
                <g
                   id="#ffffffff-9">
                  <path
                     id="path867"
                     d="M 0,0 H 150 V 126 H 0 V 0 M 62.29,7.34 C 46.95,17.7 31.59,28 16.19,38.26 c -2.68,1.72 -4.99,4.48 -5.13,7.78 -0.29,3.53 2.09,6.81 5.11,8.4 -2.92,1.77 -5.3,5.03 -5.06,8.58 -0.02,3.26 2.37,5.98 5.02,7.59 -2.81,1.79 -5.23,4.91 -4.98,8.41 -0.06,3.63 2.78,6.39 5.59,8.25 13.57,9.09 27.09,18.24 40.65,27.34 4.07,2.7 8.03,5.97 12.99,6.81 3.05,0.45 6.19,0.45 9.24,0 4.96,-0.85 8.92,-4.12 12.99,-6.81 13.56,-9.1 27.07,-18.26 40.64,-27.35 2.8,-1.86 5.66,-4.6 5.58,-8.24 0.29,-3.51 -2.19,-6.59 -4.96,-8.42 2.59,-1.65 5.05,-4.31 5.01,-7.57 0.26,-3.56 -2.14,-6.82 -5.06,-8.6 3.03,-1.58 5.41,-4.86 5.1,-8.39 -0.11,-3.6 -2.84,-6.41 -5.73,-8.2 C 117.77,27.64 102.49,17.22 87.1,6.96 79.78,1.96 69.47,2.18 62.29,7.34 Z"
                     opacity="1"
                     fill="#ffffff" />
                  <path
                     id="path869"
                     d="m 58.2,32.21 c 4.25,-2.96 9.48,-5.02 14.74,-4.19 3.64,0.59 7.54,2.31 9.25,5.78 1.07,1.99 -0.26,4.12 -0.7,6.09 6.76,-2.96 16.1,-2.27 20.28,4.5 2.23,3.81 -0.97,7.4 -3.21,10.26 -5.69,3.36 -10.85,7.53 -16.59,10.8 C 76.96,62.88 72.6,59.25 67.79,56.34 60.55,50.95 52.65,46.51 45.5,41 c 4.03,-3.21 8.48,-5.85 12.7,-8.79 m 6.45,1.41 c -3.68,2.15 -7.35,4.4 -10.6,7.16 3.65,2.51 7.25,5.13 11.06,7.38 2.69,-0.27 4.75,-2.67 7.07,-3.99 2.45,-1.86 6.15,-4.11 5.37,-7.71 -2.63,-4.25 -8.7,-5.36 -12.9,-2.84 m 5.2,17.46 c 3.28,3.17 7.49,5.25 11.17,7.93 1.84,1.66 3.64,-0.88 5.24,-1.67 3.36,-2.66 7.94,-4.37 9.8,-8.49 0.82,-3.58 -3.3,-5.83 -6.2,-6.62 -7.84,-1.28 -13.95,4.95 -20.01,8.85 z"
                     opacity="1"
                     fill="#ffffff" />
                </g>
                <g
                   id="#7743c4ff">
                  <path
                     id="path872"
                     d="M 62.29,7.34 C 69.47,2.18 79.78,1.96 87.1,6.96 c 15.39,10.26 30.67,20.68 46.09,30.88 2.89,1.79 5.62,4.6 5.73,8.2 0.31,3.53 -2.07,6.81 -5.1,8.39 -3.98,2.06 -7.41,5.01 -11.44,6.97 -1.92,0.95 -3.16,-1.87 -5.12,-1.68 -7.36,-0.69 -14.76,0.46 -22.15,0.01 1.45,-1.48 2.89,-3.03 3.45,-5.08 2.24,-2.86 5.44,-6.45 3.21,-10.26 -4.18,-6.77 -13.52,-7.46 -20.28,-4.5 0.44,-1.97 1.77,-4.1 0.7,-6.09 -1.71,-3.47 -5.61,-5.19 -9.25,-5.78 -5.26,-0.83 -10.49,1.23 -14.74,4.19 -4.22,2.94 -8.67,5.58 -12.7,8.79 7.15,5.51 15.05,9.95 22.29,15.34 -0.57,2.18 1.86,3.27 3.02,4.69 -11.63,0.19 -23.26,-0.02 -34.88,0.04 -2.5,-0.05 -4.86,1.38 -7.33,1.16 -4.31,-2.31 -8.02,-5.62 -12.43,-7.79 -3.02,-1.59 -5.4,-4.87 -5.11,-8.4 0.14,-3.3 2.45,-6.06 5.13,-7.78 C 31.59,28 46.95,17.7 62.29,7.34 Z"
                     opacity="1"
                     fill="#7743c4" />
                  <path
                     id="path874"
                     d="m 64.65,33.62 c 4.2,-2.52 10.27,-1.41 12.9,2.84 0.78,3.6 -2.92,5.85 -5.37,7.71 -2.32,1.32 -4.38,3.72 -7.07,3.99 -3.81,-2.25 -7.41,-4.87 -11.06,-7.38 3.25,-2.76 6.92,-5.01 10.6,-7.16 z"
                     opacity="1"
                     fill="#7743c4" />
                  <path
                     id="path876"
                     d="m 69.85,51.08 c 6.06,-3.9 12.17,-10.13 20.01,-8.85 2.9,0.79 7.02,3.04 6.2,6.62 -1.86,4.12 -6.44,5.83 -9.8,8.49 -1.6,0.79 -3.4,3.33 -5.24,1.67 -3.68,-2.68 -7.89,-4.76 -11.17,-7.93 z"
                     opacity="1"
                     fill="#7743c4" />
                </g>
                <g
                   id="#5826a1ff">
                  <path
                     id="path879"
                     d="m 11.11,63.02 c -0.24,-3.55 2.14,-6.81 5.06,-8.58 4.41,2.17 8.12,5.48 12.43,7.79 2.47,0.22 4.83,-1.21 7.33,-1.16 11.62,-0.06 23.25,0.15 34.88,-0.04 -1.16,-1.42 -3.59,-2.51 -3.02,-4.69 4.81,2.91 9.17,6.54 14.18,9.11 5.74,-3.27 10.9,-7.44 16.59,-10.8 -0.56,2.05 -2,3.6 -3.45,5.08 7.39,0.45 14.79,-0.7 22.15,-0.01 1.96,-0.19 3.2,2.63 5.12,1.68 4.03,-1.96 7.46,-4.91 11.44,-6.97 2.92,1.78 5.32,5.04 5.06,8.6 0.04,3.26 -2.42,5.92 -5.01,7.57 -16.41,10.16 -31.97,21.62 -48.35,31.8 -4.34,2.52 -9.56,2.7 -14.43,2.18 C 65.55,103.95 61.1,100.29 56.58,97.35 43.07,88.47 29.88,79.11 16.13,70.61 13.48,69 11.09,66.28 11.11,63.02 Z"
                     opacity="1"
                     fill="#5826a1" />
                </g>
                <g
                   id="#3d1872ff">
                  <path
                     id="path882"
                     d="m 11.15,79.02 c -0.25,-3.5 2.17,-6.62 4.98,-8.41 13.75,8.5 26.94,17.86 40.45,26.74 4.52,2.94 8.97,6.6 14.51,7.23 4.87,0.52 10.09,0.34 14.43,-2.18 16.38,-10.18 31.94,-21.64 48.35,-31.8 2.77,1.83 5.25,4.91 4.96,8.42 0.08,3.64 -2.78,6.38 -5.58,8.24 -13.57,9.09 -27.08,18.25 -40.64,27.35 -4.07,2.69 -8.03,5.96 -12.99,6.81 -3.05,0.45 -6.19,0.45 -9.24,0 -4.96,-0.84 -8.92,-4.11 -12.99,-6.81 C 43.83,105.51 30.31,96.36 16.74,87.27 13.93,85.41 11.09,82.65 11.15,79.02 Z"
                     opacity="1"
                     fill="#3d1872" />
                </g>
              </g>
              <path
                 id="path1442"
                 d="m 69.27,4.15 c 5.96,-1.09 12.58,-0.79 17.71,2.77 15.57,10.45 31.11,20.93 46.67,31.39 3.22,1.97 5.79,5.66 5,9.58 -0.62,3.75 -4.04,5.95 -6.85,8.06 C 118.03,65.49 104.28,75.06 90.51,84.61 87.3,86.74 84.3,89.39 80.46,90.32 74.55,91.78 68.27,90 63.27,86.73 48,77.26 33.57,66.52 18.79,56.31 15.98,54.24 12.58,52.26 11.52,48.69 10.29,44.86 12.56,40.82 15.74,38.73 31.28,28.22 46.88,17.79 62.43,7.29 64.52,5.88 66.82,4.76 69.27,4.15 M 59.44,31.4 c -4.79,3.19 -9.52,6.49 -14.36,9.61 12.34,8.16 24.55,16.52 36.91,24.66 5.31,-4.01 11.15,-7.27 16.41,-11.34 2.86,-2.28 5.61,-6.37 3.38,-9.99 -4.27,-6.67 -13.92,-7.79 -20.56,-4.17 0.81,-1.78 1.92,-3.71 1.2,-5.72 C 81.33,31.27 78.17,29.37 75.08,28.51 69.8,26.77 63.96,28.42 59.44,31.4 Z"
                 opacity="1"
                 fill="#723ebe" />
            </g>
            <path
               fill="#723ebe"
               opacity="1"
               d="m 64.66,33.62 c 4.02,-2.28 9.73,-1.57 12.49,2.32 1.11,1.71 0.14,3.88 -1.19,5.15 -3,2.97 -6.88,4.79 -10.11,7.47 -4.18,-2.3 -7.89,-5.35 -12.01,-7.76 3.48,-2.57 7.06,-5.05 10.82,-7.18 z"
               id="path1444" />
            <path
               fill="#723ebe"
               opacity="1"
               d="m 82.25,43.18 c 4.48,-2.12 10.75,-1.37 13.53,3.08 1.35,2 -0.45,4.24 -1.87,5.62 -3.57,3.01 -7.73,5.21 -11.4,8.1 -4.31,-2.96 -8.74,-5.73 -12.95,-8.81 4.21,-2.68 8.15,-5.87 12.69,-7.99 z"
               id="path1446" />
          </g>
          <g
             id="#ffffffff-0">
            <path
               fill="#ffffff"
               opacity="1"
               d="m 59.44,31.4 c 4.52,-2.98 10.36,-4.63 15.64,-2.89 3.09,0.86 6.25,2.76 7.34,5.94 0.72,2.01 -0.39,3.94 -1.2,5.72 6.64,-3.62 16.29,-2.5 20.56,4.17 2.23,3.62 -0.52,7.71 -3.38,9.99 C 93.14,58.4 87.3,61.66 81.99,65.67 69.63,57.53 57.42,49.17 45.08,41.01 49.92,37.89 54.65,34.59 59.44,31.4 m 5.22,2.22 c -3.76,2.13 -7.34,4.61 -10.82,7.18 4.12,2.41 7.83,5.46 12.01,7.76 3.23,-2.68 7.11,-4.5 10.11,-7.47 1.33,-1.27 2.3,-3.44 1.19,-5.15 -2.76,-3.89 -8.47,-4.6 -12.49,-2.32 m 17.59,9.56 c -4.54,2.12 -8.48,5.31 -12.69,7.99 4.21,3.08 8.64,5.85 12.95,8.81 3.67,-2.89 7.83,-5.09 11.4,-8.1 1.42,-1.38 3.22,-3.62 1.87,-5.62 C 93,41.81 86.73,41.06 82.25,43.18 Z"
               id="path1449" />
          </g>
        </g>
      </g>
    </g>
  </g>
</svg>
