<?xml version="1.0" encoding="UTF-8" standalone="no"?>
<svg
   xmlns:dc="http://purl.org/dc/elements/1.1/"
   xmlns:cc="http://creativecommons.org/ns#"
   xmlns:rdf="http://www.w3.org/1999/02/22-rdf-syntax-ns#"
   xmlns:svg="http://www.w3.org/2000/svg"
   xmlns="http://www.w3.org/2000/svg"
   id="svg8"
   version="1.1"
   viewBox="0 0 31.75 26.458333"
   height="100"
   width="120">
  <defs
     id="defs2" />
  <metadata
     id="metadata5">
    <rdf:RDF>
      <cc:Work
         rdf:about="">
        <dc:format>image/svg+xml</dc:format>
        <dc:type
           rdf:resource="http://purl.org/dc/dcmitype/StillImage" />
        <dc:title></dc:title>
      </cc:Work>
    </rdf:RDF>
  </metadata>
  <g
     id="layer1">
    <g
       transform="matrix(0.20913725,0,0,0.20913725,0.19075147,6.0287203)"
       id="g860">
      <g
         id="#f05033ff">
        <path
           fill="#f05033"
           opacity="1"
           d="m 30.18,0 h 1.76 c 2.17,1.07 3.89,2.81 5.55,4.53 7.89,8.11 16.04,15.97 23.88,24.14 2.23,1.95 1.24,5.17 -0.86,6.78 C 51.16,44.55 42.31,54.2 32.67,63 H 30.23 C 25.65,59.58 22.06,55.05 17.91,51.15 11.99,44.97 5.59,39.25 0,32.77 V 30.38 C 6.02,22.9 13.48,16.71 19.94,9.62 c 2.16,2.32 4.4,4.58 6.67,6.79 -0.31,2.85 0.76,5.44 2.97,7.24 0,5.52 0.02,11.03 -0.02,16.54 -1.82,1.69 -4.07,4.13 -2.49,6.76 1.51,3.76 7.35,3.69 8.77,-0.11 1.6,-2.53 -0.84,-4.83 -2.31,-6.66 -0.02,-5.62 0.03,-11.23 -0.08,-16.85 2.14,2.13 4.25,4.28 6.31,6.49 -0.43,2.65 0.44,5.76 3.25,6.65 3.91,1.56 8.16,-3.75 5.49,-7.12 C 47.42,27.22 44.89,27.21 42.83,27.09 40.61,25.04 38.47,22.91 36.37,20.74 36.13,18.87 36.31,16.65 34.72,15.31 33.52,13.87 31.46,14.32 29.83,14 27.4,11.67 25.05,9.26 22.6,6.95 25.04,4.54 27.37,1.99 30.18,0 Z"
           id="path833" />
      </g>
      <g
         id="#3d2d00ff">
        <path
           fill="#3d2d00"
           opacity="1"
           d="m 115.26,0 h 3.26 c 2.61,0.72 4.5,3.17 4.01,5.94 -0.03,5 -7.52,6.56 -10.06,2.6 -2.03,-2.99 -0.64,-7.35 2.79,-8.54 z"
           id="path836" />
        <path
           fill="#3d2d00"
           opacity="1"
           d="m 131.18,13.14 c 1.9,-2 2.14,-4.88 2.66,-7.45 1.88,-0.01 3.77,-0.02 5.65,-0.03 -0.02,3.04 -0.03,6.08 -0.04,9.12 2.97,-0.01 5.94,-0.02 8.91,-0.06 0.04,2.03 0.08,4.05 0.12,6.08 -2.98,0.03 -5.97,0.02 -8.95,-0.03 0.06,5.77 -0.43,11.61 0.22,17.35 1.66,3.33 5.86,1.85 8.62,1.12 0.55,1.69 1.1,3.38 1.62,5.07 -4.31,2.56 -9.69,3.13 -14.53,2 -3.21,-0.86 -4.94,-4.23 -4.96,-7.37 -0.14,-6.02 0.04,-12.05 -0.07,-18.08 -1.55,-0.02 -3.11,0.01 -4.65,-0.19 -0.11,-1.64 -0.07,-3.29 -0.06,-4.94 1.88,-0.68 4.05,-1.02 5.46,-2.59 z"
           id="path838" />
        <path
           fill="#3d2d00"
           opacity="1"
           d="m 110.3,15.56 c 4.03,-0.25 8.08,-0.02 12.11,-0.06 -0.08,8.67 -0.07,17.34 -0.01,26.01 1.32,0.14 2.65,0.3 3.97,0.46 0,1.62 0.01,3.24 0.01,4.87 -5.69,-0.13 -11.38,-0.09 -17.07,-0.04 0.01,-1.56 0.01,-3.12 0.01,-4.68 1.34,-0.26 2.69,-0.52 4.03,-0.79 -0.1,-6.47 0,-12.94 -0.07,-19.41 -1.36,-0.55 -2.72,-1.1 -4.08,-1.64 0.44,-1.52 0.1,-3.47 1.1,-4.72 z"
           id="path840" />
        <path
           fill="#3d2d00"
           opacity="1"
           d="m 79.46,18.39 c 3.75,-2.98 8.88,-3.32 13.46,-2.67 4.52,0.72 9.1,0.43 13.65,0.4 -0.03,1.75 -0.06,3.5 -0.1,5.25 -1.81,0.06 -3.61,0.12 -5.41,0.16 2.77,3.62 3.07,8.98 0.06,12.55 -3.7,4.35 -10.08,4.99 -15.33,3.7 -0.68,1.09 -1.36,2.19 -2.03,3.29 6.03,0.38 12.29,-0.09 18.08,1.95 6.22,2.51 5.39,11.96 0.14,15.11 -6.2,3.83 -14.07,3.45 -20.97,2.09 -3.4,-0.6 -6.86,-3.51 -6.4,-7.25 0.01,-2.2 1.79,-3.71 3.08,-5.25 -1.33,-1.45 -3,-3.14 -2.25,-5.3 0.96,-2.61 3.42,-4.27 5.28,-6.22 -6.45,-3.39 -6.76,-13.41 -1.26,-17.81 m 6.9,4.01 c -3.54,2.16 -2.81,8.94 1.67,9.4 3.59,1.08 8.08,-1.76 7.33,-5.78 -0.28,-4.3 -5.81,-5.86 -9,-3.62 m -3.17,26.75 c -0.59,0.99 -1.2,1.96 -1.83,2.92 0.86,1.33 1.8,2.85 3.57,2.96 3.5,0.48 7.31,0.75 10.63,-0.67 1.27,-0.65 2.83,-2.92 0.92,-3.8 -4.16,-1.72 -8.9,-0.82 -13.29,-1.41 z"
           id="path842" />
      </g>
    </g>
  </g>
</svg>
