<?xml version="1.0" encoding="UTF-8" standalone="no"?>
<svg
   xmlns:dc="http://purl.org/dc/elements/1.1/"
   xmlns:cc="http://creativecommons.org/ns#"
   xmlns:rdf="http://www.w3.org/1999/02/22-rdf-syntax-ns#"
   xmlns:svg="http://www.w3.org/2000/svg"
   xmlns="http://www.w3.org/2000/svg"
   xmlns:sodipodi="http://sodipodi.sourceforge.net/DTD/sodipodi-0.dtd"
   xmlns:inkscape="http://www.inkscape.org/namespaces/inkscape"
   inkscape:version="1.0 (4035a4fb49, 2020-05-01)"
   sodipodi:docname="gulp-m.svg"
   id="svg8"
   version="1.1"
   viewBox="0 0 31.750002 31.750001"
   height="120"
   width="120">
  <defs
     id="defs2" />
  <sodipodi:namedview
     inkscape:window-maximized="0"
     inkscape:window-y="0"
     inkscape:window-x="182"
     inkscape:window-height="1040"
     inkscape:window-width="1274"
     units="px"
     fit-margin-bottom="0"
     fit-margin-right="0"
     fit-margin-left="0"
     fit-margin-top="0"
     showgrid="false"
     inkscape:document-rotation="0"
     inkscape:current-layer="layer1"
     inkscape:document-units="mm"
     inkscape:cy="135.76471"
     inkscape:cx="89.465066"
     inkscape:zoom="2.8"
     inkscape:pageshadow="2"
     inkscape:pageopacity="0.0"
     borderopacity="1.0"
     bordercolor="#666666"
     pagecolor="#ffffff"
     id="base" />
  <metadata
     id="metadata5">
    <rdf:RDF>
      <cc:Work
         rdf:about="">
        <dc:format>image/svg+xml</dc:format>
        <dc:type
           rdf:resource="http://purl.org/dc/dcmitype/StillImage" />
        <dc:title></dc:title>
      </cc:Work>
    </rdf:RDF>
  </metadata>
  <g
     transform="translate(-74.851034,-27.284693)"
     id="layer1"
     inkscape:groupmode="layer"
     inkscape:label="Layer 1">
    <g
       transform="matrix(0.21040675,0,0,0.21040675,75.040021,27.473681)"
       id="g1162">
      <g
         id="#fefefeff">
        <path
           fill="#fefefe"
           opacity="1"
           d="M 0,0 H 150 V 150 H 0 V 0 m 80.4,19.52 c -2.18,4.84 -2.83,10.24 -4.33,15.32 -9.87,-0.02 -19.81,0.26 -29.58,1.82 -2.26,0.59 -5.18,0.66 -6.49,2.91 3.28,2.27 7.27,3.04 11.12,3.78 11.48,1.98 23.23,2.54 34.81,1.11 6.71,-0.89 13.91,-1.36 19.61,-5.4 C 98.35,35.51 90.12,35.68 82.3,35.14 84.38,29.72 84.31,23.09 88.82,18.9 93.12,14.22 97.32,9.45 101.71,4.85 100.23,3.74 98.76,2.63 97.28,1.52 91.74,7.6 85.76,13.28 80.4,19.52 m -7.37,26.95 c -11.07,-0.19 -22.38,-0.72 -32.9,-4.51 1.04,11.12 2.01,22.25 3.22,33.36 2.43,-5.88 5.53,-12.48 11.8,-15.01 4.1,-1.82 10.43,3.49 6.5,7.32 -1.71,-1.45 -3.18,-5.71 -5.98,-3.96 -4.89,3.4 -7.52,9.23 -9.08,14.81 -0.32,2 -1.13,5.13 1.37,6.04 3.73,-1.91 6.8,-5.2 8.18,-9.18 0.73,-1.62 1.13,-3.62 2.86,-4.5 2.4,1.42 0.77,4.29 0.26,6.33 -2.03,5.19 -2.93,10.8 -5.6,15.74 -2.87,-2.55 -0.37,-6.25 0.3,-9.24 -2.68,2.39 -5.64,4.89 -9.52,4.33 1.18,7.55 0.81,15.41 2.68,22.79 4.06,3.42 9.81,3.51 14.83,4.39 9.96,0.66 20.22,0.87 29.86,-2.1 2.03,-0.68 4.62,-1.7 4.78,-4.19 1.22,-8.53 1.86,-17.15 3.09,-25.68 -3.06,2.71 -7.6,6.71 -11.53,3 1.99,-3.43 4.57,-6.47 6.66,-9.83 -8.45,2.66 -9.15,12.91 -12.97,19.58 -0.67,1.72 -3.51,0.93 -3.01,-0.94 0.92,-3.48 2.73,-6.61 4.3,-9.82 -2.47,1.58 -5.63,3.85 -8.27,1.25 -1.29,0.53 -2.58,1.09 -3.92,1.46 -1.27,-0.47 -1.44,-1.93 -1.95,-3 -1.86,1.48 -3.96,3.51 -6.57,2.78 -2.19,-0.39 -2.14,-3.01 -1.57,-4.66 1.01,-3.45 2.13,-7.05 4.52,-9.82 0.51,0.15 1.53,0.43 2.04,0.57 -0.39,3.76 -3.17,6.89 -3.55,10.72 2.83,-0.75 4.99,-2.85 6.08,-5.52 1.28,-2.07 1.51,-5.23 4.21,-5.99 1.48,4.08 -2.36,7.85 -2.6,11.96 1.44,-0.82 3.51,-1.22 4.06,-3.04 2.57,-6 4.56,-12.26 7.3,-18.19 0.32,-1.79 3.5,-2.2 3.31,0.04 -2.41,7.07 -6.14,13.67 -7.98,20.94 2.29,-1.44 4.83,-2.77 6.44,-5.01 1.3,-2.18 2.32,-4.54 4.04,-6.43 0.27,0.69 0.8,2.06 1.06,2.74 1.92,-1.17 3.79,-3.25 6.27,-2.57 1.25,0.68 2.38,1.89 1.69,3.39 -1.24,3.16 -3.9,5.47 -5.51,8.43 2.92,-1.7 5.43,-3.96 7.89,-6.24 1.4,-12.49 2.77,-24.99 4.37,-37.45 -10,3.89 -20.85,4.61 -31.46,4.91 m -24.6,66.55 c 1.28,2.11 2.94,4.06 3.77,6.42 1.14,7.36 0.78,14.9 2.02,22.23 10.36,7.2 25.14,7.7 35.46,0.1 0.56,-6.93 0.7,-13.89 1.24,-20.82 0.16,-3.08 2.33,-5.48 3.81,-8.03 -14.8,5.08 -31.46,4.87 -46.3,0.1 z"
           id="path1138" />
      </g>
      <g
         id="#e84a4aff">
        <path
           fill="#e84a4a"
           opacity="1"
           d="m 80.4,19.52 c 5.36,-6.24 11.34,-11.92 16.88,-18 1.48,1.11 2.95,2.22 4.43,3.33 -4.39,4.6 -8.59,9.37 -12.89,14.05 -4.51,4.19 -4.44,10.82 -6.52,16.24 7.82,0.54 16.05,0.37 23.24,3.92 -5.7,4.04 -12.9,4.51 -19.61,5.4 C 74.35,45.89 62.6,45.33 51.12,43.35 47.27,42.61 43.28,41.84 40,39.57 c 1.31,-2.25 4.23,-2.32 6.49,-2.91 9.77,-1.56 19.71,-1.84 29.58,-1.82 1.5,-5.08 2.15,-10.48 4.33,-15.32 z"
           id="path1141" />
        <path
           fill="#e84a4a"
           opacity="1"
           d="m 73.03,46.47 c 10.61,-0.3 21.46,-1.02 31.46,-4.91 -1.6,12.46 -2.97,24.96 -4.37,37.45 -2.46,2.28 -4.97,4.54 -7.89,6.24 1.61,-2.96 4.27,-5.27 5.51,-8.43 0.69,-1.5 -0.44,-2.71 -1.69,-3.39 -2.48,-0.68 -4.35,1.4 -6.27,2.57 -0.26,-0.68 -0.79,-2.05 -1.06,-2.74 -1.72,1.89 -2.74,4.25 -4.04,6.43 -1.61,2.24 -4.15,3.57 -6.44,5.01 1.84,-7.27 5.57,-13.87 7.98,-20.94 0.19,-2.24 -2.99,-1.83 -3.31,-0.04 -2.74,5.93 -4.73,12.19 -7.3,18.19 -0.55,1.82 -2.62,2.22 -4.06,3.04 0.24,-4.11 4.08,-7.88 2.6,-11.96 -2.7,0.76 -2.93,3.92 -4.21,5.99 -1.09,2.67 -3.25,4.77 -6.08,5.52 0.38,-3.83 3.16,-6.96 3.55,-10.72 -0.51,-0.14 -1.53,-0.42 -2.04,-0.57 -2.39,2.77 -3.51,6.37 -4.52,9.82 -0.57,1.65 -0.62,4.27 1.57,4.66 2.61,0.73 4.71,-1.3 6.57,-2.78 0.51,1.07 0.68,2.53 1.95,3 1.34,-0.37 2.63,-0.93 3.92,-1.46 2.64,2.6 5.8,0.33 8.27,-1.25 -1.57,3.21 -3.38,6.34 -4.3,9.82 -0.5,1.87 2.34,2.66 3.01,0.94 3.82,-6.67 4.52,-16.92 12.97,-19.58 -2.09,3.36 -4.67,6.4 -6.66,9.83 3.93,3.71 8.47,-0.29 11.53,-3 -1.23,8.53 -1.87,17.15 -3.09,25.68 -0.16,2.49 -2.75,3.51 -4.78,4.19 -9.64,2.97 -19.9,2.76 -29.86,2.1 -5.02,-0.88 -10.77,-0.97 -14.83,-4.39 -1.87,-7.38 -1.5,-15.24 -2.68,-22.79 3.88,0.56 6.84,-1.94 9.52,-4.33 -0.67,2.99 -3.17,6.69 -0.3,9.24 2.67,-4.94 3.57,-10.55 5.6,-15.74 0.51,-2.04 2.14,-4.91 -0.26,-6.33 -1.73,0.88 -2.13,2.88 -2.86,4.5 -1.38,3.98 -4.45,7.27 -8.18,9.18 -2.5,-0.91 -1.69,-4.04 -1.37,-6.04 1.56,-5.58 4.19,-11.41 9.08,-14.81 2.8,-1.75 4.27,2.51 5.98,3.96 3.93,-3.83 -2.4,-9.14 -6.5,-7.32 -6.27,2.53 -9.37,9.13 -11.8,15.01 -1.21,-11.11 -2.18,-22.24 -3.22,-33.36 10.52,3.79 21.83,4.32 32.9,4.51 z"
           id="path1143" />
        <path
           fill="#e84a4a"
           opacity="1"
           d="m 48.43,113.02 c 14.84,4.77 31.5,4.98 46.3,-0.1 -1.48,2.55 -3.65,4.95 -3.81,8.03 -0.54,6.93 -0.68,13.89 -1.24,20.82 -10.32,7.6 -25.1,7.1 -35.46,-0.1 -1.24,-7.33 -0.88,-14.87 -2.02,-22.23 -0.83,-2.36 -2.49,-4.31 -3.77,-6.42 z"
           id="path1145" />
      </g>
    </g>
  </g>
</svg>
