<?xml version="1.0" encoding="UTF-8" standalone="no"?>
<svg
   xmlns:dc="http://purl.org/dc/elements/1.1/"
   xmlns:cc="http://creativecommons.org/ns#"
   xmlns:rdf="http://www.w3.org/1999/02/22-rdf-syntax-ns#"
   xmlns:svg="http://www.w3.org/2000/svg"
   xmlns="http://www.w3.org/2000/svg"
   xmlns:sodipodi="http://sodipodi.sourceforge.net/DTD/sodipodi-0.dtd"
   xmlns:inkscape="http://www.inkscape.org/namespaces/inkscape"
   inkscape:version="1.0 (4035a4fb49, 2020-05-01)"
   sodipodi:docname="html.svg"
   id="svg8"
   version="1.1"
   viewBox="0 0 31.750002 31.750001"
   height="120"
   width="120">
  <defs
     id="defs2" />
  <sodipodi:namedview
     inkscape:window-maximized="0"
     inkscape:window-y="0"
     inkscape:window-x="182"
     inkscape:window-height="1040"
     inkscape:window-width="2235"
     units="px"
     fit-margin-bottom="0"
     fit-margin-right="0"
     fit-margin-left="0"
     fit-margin-top="0"
     showgrid="false"
     inkscape:document-rotation="0"
     inkscape:current-layer="layer1"
     inkscape:document-units="mm"
     inkscape:cy="45.59999"
     inkscape:cx="111.90382"
     inkscape:zoom="3.959798"
     inkscape:pageshadow="2"
     inkscape:pageopacity="0.0"
     borderopacity="1.0"
     bordercolor="#666666"
     pagecolor="#ffffff"
     id="base" />
  <metadata
     id="metadata5">
    <rdf:RDF>
      <cc:Work
         rdf:about="">
        <dc:format>image/svg+xml</dc:format>
        <dc:type
           rdf:resource="http://purl.org/dc/dcmitype/StillImage" />
        <dc:title></dc:title>
      </cc:Work>
    </rdf:RDF>
  </metadata>
  <g
     transform="translate(-74.851034,-27.284693)"
     id="layer1"
     inkscape:groupmode="layer"
     inkscape:label="Layer 1">
    <g
       style="font-size:3.93995px;line-height:1.25;font-family:Broadway;-inkscape-font-specification:'Broadway, Normal';stroke-width:0.211068"
       id="text1233"
       aria-label="HTML">
      <path
         id="path1325"
         style="font-style:normal;font-variant:normal;font-weight:bold;font-stretch:normal;font-size:3.93995px;font-family:Unispace;-inkscape-font-specification:'Unispace Bold';stroke-width:0.211068"
         d="m 86.607185,27.950664 v 1.390803 h 0.85497 v -1.390803 h 0.606752 v 3.18348 h -0.606752 v -1.402622 h -0.85497 v 1.402622 h -0.622512 v -3.18348 z" />
      <path
         id="path1327"
         style="font-style:normal;font-variant:normal;font-weight:bold;font-stretch:normal;font-size:3.93995px;font-family:Unispace;-inkscape-font-specification:'Unispace Bold';stroke-width:0.211068"
         d="m 90.41447,27.950664 v 0.397935 h -0.661912 v 2.785545 h -0.602812 v -2.785545 h -0.693431 v -0.397935 z" />
      <path
         id="path1329"
         style="font-style:normal;font-variant:normal;font-weight:bold;font-stretch:normal;font-size:3.93995px;font-family:Unispace;-inkscape-font-specification:'Unispace Bold';stroke-width:0.211068"
         d="m 91.42833,27.950664 0.413695,2.427009 0.409754,-2.427009 h 0.614633 v 3.18348 h -0.449155 v -2.017255 l -0.338835,2.017255 h -0.480674 l -0.319136,-2.001495 v 2.001495 h -0.460974 v -3.18348 z" />
      <path
         id="path1331"
         style="font-style:normal;font-variant:normal;font-weight:bold;font-stretch:normal;font-size:3.93995px;font-family:Unispace;-inkscape-font-specification:'Unispace Bold';stroke-width:0.211068"
         d="m 93.848752,27.950664 v 2.793425 h 1.410502 v 0.390055 H 93.23806 v -3.18348 z" />
    </g>
    <g
       id="g1184"
       transform="matrix(0.72148254,0,0,0.72148254,73.312237,27.931037)">
      <path
         id="path1164"
         d="M 41,5 H 7 l 3,34 14,4 14,-4 z"
         fill="#e65100" />
      <path
         id="path1166"
         d="M 24,8 V 39.9 L 35.2,36.7 37.7,8 Z"
         fill="#ff6d00" />
      <path
         id="path1168"
         d="m 24,25 v -4 h 8.6 L 31.9,32.5 24,35.1 v -4.2 l 4.1,-1.4 0.3,-4.5 z m 8.9,-8 0.3,-4 H 24 v 4 z"
         fill="#ffffff" />
      <path
         id="path1170"
         d="m 24,30.9 v 4.2 L 16.1,32.5 15.7,27 h 4 l 0.2,2.5 z M 19.1,17 H 24 v -4 h -9.1 l 0.7,12 H 24 v -4 h -4.6 z"
         fill="#eeeeee" />
    </g>
  </g>
</svg>
