<?xml version="1.0" encoding="UTF-8" standalone="no"?>
<svg
   xmlns:dc="http://purl.org/dc/elements/1.1/"
   xmlns:cc="http://creativecommons.org/ns#"
   xmlns:rdf="http://www.w3.org/1999/02/22-rdf-syntax-ns#"
   xmlns:svg="http://www.w3.org/2000/svg"
   xmlns="http://www.w3.org/2000/svg"
   xmlns:sodipodi="http://sodipodi.sourceforge.net/DTD/sodipodi-0.dtd"
   xmlns:inkscape="http://www.inkscape.org/namespaces/inkscape"
   inkscape:version="1.0 (4035a4fb49, 2020-05-01)"
   sodipodi:docname="js.svg"
   id="svg8"
   version="1.1"
   viewBox="0 0 31.750002 31.750001"
   height="120"
   width="120">
  <defs
     id="defs2" />
  <sodipodi:namedview
     inkscape:window-maximized="0"
     inkscape:window-y="0"
     inkscape:window-x="182"
     inkscape:window-height="1040"
     inkscape:window-width="2235"
     units="px"
     fit-margin-bottom="0"
     fit-margin-right="0"
     fit-margin-left="0"
     fit-margin-top="0"
     showgrid="false"
     inkscape:document-rotation="0"
     inkscape:current-layer="layer1"
     inkscape:document-units="mm"
     inkscape:cy="45.59999"
     inkscape:cx="111.90382"
     inkscape:zoom="3.959798"
     inkscape:pageshadow="2"
     inkscape:pageopacity="0.0"
     borderopacity="1.0"
     bordercolor="#666666"
     pagecolor="#ffffff"
     id="base" />
  <metadata
     id="metadata5">
    <rdf:RDF>
      <cc:Work
         rdf:about="">
        <dc:format>image/svg+xml</dc:format>
        <dc:type
           rdf:resource="http://purl.org/dc/dcmitype/StillImage" />
        <dc:title></dc:title>
      </cc:Work>
    </rdf:RDF>
  </metadata>
  <g
     transform="translate(-74.851034,-27.284693)"
     id="layer1"
     inkscape:groupmode="layer"
     inkscape:label="Layer 1">
    <g
       style="font-size:3.93995px;line-height:1.25;font-family:Broadway;-inkscape-font-specification:'Broadway, Normal';stroke-width:0.211068"
       id="text1233"
       aria-label="JavaScript">
      <path
         id="path1253"
         style="font-style:normal;font-variant:normal;font-weight:bold;font-stretch:normal;font-size:3.93995px;font-family:Unispace;-inkscape-font-specification:'Unispace Bold';stroke-width:0.211068"
         d="m 80.898409,27.683395 v 2.320631 q 0,0.177297 -0.04334,0.334895 -0.04334,0.157598 -0.126078,0.275797 -0.0788,0.118198 -0.193057,0.185178 -0.110319,0.06698 -0.248217,0.06698 H 78.959954 V 30.47682 h 1.071666 q 0.06304,0 0.114258,-0.0394 0.05122,-0.0394 0.08668,-0.106379 0.03546,-0.06698 0.05516,-0.149718 0.0197,-0.08668 0.0197,-0.177297 V 28.08133 h -0.78011 v -0.397935 z" />
      <path
         id="path1255"
         style="font-style:normal;font-variant:normal;font-weight:bold;font-stretch:normal;font-size:3.93995px;font-family:Unispace;-inkscape-font-specification:'Unispace Bold';stroke-width:0.211068"
         d="m 82.731778,28.341367 q 0.181238,0 0.303377,0.03546 0.126078,0.03546 0.204877,0.126079 0.0788,0.08668 0.114259,0.240337 0.03546,0.149718 0.03546,0.378235 v 1.745398 h -1.53658 q -0.126079,0 -0.232457,-0.0591 -0.102439,-0.0591 -0.181238,-0.161538 -0.07486,-0.106378 -0.118199,-0.248216 -0.0394,-0.145779 -0.0394,-0.315196 0,-0.165478 0.0394,-0.311256 0.04334,-0.145779 0.118199,-0.252157 0.0788,-0.110319 0.181238,-0.169418 0.106378,-0.06304 0.232457,-0.06304 h 0.925888 v -0.216698 q 0,-0.196997 -0.05516,-0.263976 -0.05122,-0.06698 -0.181238,-0.06698 h -0.941648 v -0.397935 z m -0.449154,1.331703 q -0.122138,0 -0.200937,0.0197 -0.0788,0.0197 -0.126079,0.06698 -0.04334,0.04334 -0.06304,0.114258 -0.01576,0.07092 -0.01576,0.173358 0,0.429455 0.157598,0.429455 h 0.740711 v -0.80375 z" />
      <path
         id="path1257"
         style="font-style:normal;font-variant:normal;font-weight:bold;font-stretch:normal;font-size:3.93995px;font-family:Unispace;-inkscape-font-specification:'Unispace Bold';stroke-width:0.211068"
         d="m 84.246012,28.341367 0.488554,1.914815 h 0.0197 l 0.488553,-1.914815 h 0.626452 l -0.73283,2.525508 h -0.77617 L 83.6235,28.341367 Z" />
      <path
         id="path1259"
         style="font-style:normal;font-variant:normal;font-weight:bold;font-stretch:normal;font-size:3.93995px;font-family:Unispace;-inkscape-font-specification:'Unispace Bold';stroke-width:0.211068"
         d="m 87.548983,28.341367 q 0.181238,0 0.303376,0.03546 0.126078,0.03546 0.204877,0.126079 0.0788,0.08668 0.114259,0.240337 0.03546,0.149718 0.03546,0.378235 v 1.745398 h -1.536581 q -0.126078,0 -0.232457,-0.0591 -0.102439,-0.0591 -0.181238,-0.161538 -0.07486,-0.106378 -0.118198,-0.248216 -0.0394,-0.145779 -0.0394,-0.315196 0,-0.165478 0.0394,-0.311256 0.04334,-0.145779 0.118198,-0.252157 0.0788,-0.110319 0.181238,-0.169418 0.106379,-0.06304 0.232457,-0.06304 h 0.925888 v -0.216698 q 0,-0.196997 -0.05516,-0.263976 -0.05122,-0.06698 -0.181238,-0.06698 h -0.941648 v -0.397935 z m -0.449154,1.331703 q -0.122139,0 -0.200938,0.0197 -0.0788,0.0197 -0.126078,0.06698 -0.04334,0.04334 -0.06304,0.114258 -0.01576,0.07092 -0.01576,0.173358 0,0.429455 0.157598,0.429455 h 0.74071 v -0.80375 z" />
      <path
         id="path1261"
         style="font-style:normal;font-variant:normal;font-weight:bold;font-stretch:normal;font-size:3.93995px;font-family:Unispace;-inkscape-font-specification:'Unispace Bold';stroke-width:0.211068"
         d="m 90.434319,27.683395 v 0.397935 h -1.036207 q -0.06698,0 -0.118198,0.03546 -0.05122,0.03546 -0.08668,0.0985 -0.03546,0.06304 -0.05516,0.145779 -0.01576,0.0788 -0.01576,0.169417 0,0.204878 0.07486,0.330956 0.07486,0.126079 0.200937,0.126079 h 0.531894 q 0.161537,0 0.283676,0.06698 0.122138,0.06698 0.204877,0.185177 0.08274,0.118199 0.122139,0.283677 0.04334,0.161538 0.04334,0.354595 0,0.208818 -0.04728,0.390055 -0.04334,0.177298 -0.126079,0.311256 -0.08274,0.133959 -0.196997,0.212758 -0.114259,0.07486 -0.252157,0.07486 H 88.645582 V 30.47682 h 1.059846 q 0.07092,0 0.126079,-0.0394 0.05516,-0.04334 0.09456,-0.114258 0.0394,-0.07092 0.0591,-0.165478 0.0197,-0.0985 0.0197,-0.208818 0,-0.130018 -0.02364,-0.220637 -0.0197,-0.09062 -0.07486,-0.141838 -0.05122,-0.05516 -0.137898,-0.0788 -0.08668,-0.02364 -0.220638,-0.02364 h -0.342775 q -0.161538,0 -0.287617,-0.06304 -0.126078,-0.06698 -0.212757,-0.181238 -0.08274,-0.118198 -0.126078,-0.279736 -0.04334,-0.161538 -0.04334,-0.358536 0,-0.189117 0.04334,-0.354595 0.04334,-0.169418 0.122138,-0.291556 0.0788,-0.126079 0.189118,-0.196998 0.114258,-0.07486 0.252157,-0.07486 z" />
      <path
         id="path1263"
         style="font-style:normal;font-variant:normal;font-weight:bold;font-stretch:normal;font-size:3.93995px;font-family:Unispace;-inkscape-font-specification:'Unispace Bold';stroke-width:0.211068"
         d="m 92.965059,28.341367 v 0.397935 h -1.130765 q -0.07092,0 -0.118199,0.0197 -0.04728,0.0197 -0.07486,0.06698 -0.02364,0.04728 -0.03546,0.130018 -0.01182,0.08274 -0.01182,0.208817 v 0.918009 q 0,0.303376 0.130018,0.366415 0.06304,0.03152 0.413695,0.03152 0.06304,0 0.161538,0 0.102438,-0.0039 0.256097,-0.0039 h 0.409754 v 0.390055 h -1.335643 q -0.173358,0 -0.299436,-0.04334 -0.122138,-0.04334 -0.200937,-0.137898 -0.0788,-0.0985 -0.118199,-0.256097 -0.03546,-0.157598 -0.03546,-0.390055 v -0.874669 q 0,-0.228517 0.03546,-0.386115 0.0394,-0.157598 0.118199,-0.252157 0.0788,-0.0985 0.200937,-0.141838 0.126078,-0.04334 0.299436,-0.04334 z" />
      <path
         id="path1265"
         style="font-style:normal;font-variant:normal;font-weight:bold;font-stretch:normal;font-size:3.93995px;font-family:Unispace;-inkscape-font-specification:'Unispace Bold';stroke-width:0.211068"
         d="m 95.330323,28.739302 h -0.921949 q -0.114258,0 -0.189117,0.01576 -0.07092,0.01182 -0.114259,0.0591 -0.0394,0.04728 -0.05516,0.141838 -0.01182,0.09062 -0.01182,0.248217 v 1.662659 h -0.610692 v -1.757218 q 0,-0.405815 0.212757,-0.587053 0.216697,-0.181237 0.642212,-0.181237 h 1.048027 z" />
      <path
         id="path1267"
         style="font-style:normal;font-variant:normal;font-weight:bold;font-stretch:normal;font-size:3.93995px;font-family:Unispace;-inkscape-font-specification:'Unispace Bold';stroke-width:0.211068"
         d="m 97.151873,27.537617 v 0.488554 h -0.721011 v -0.488554 z m -0.05516,0.80375 v 2.135453 h 0.685552 v 0.390055 H 95.78865 V 30.47682 h 0.697371 V 28.739302 H 95.78865 v -0.397935 z" />
      <path
         id="path1269"
         style="font-style:normal;font-variant:normal;font-weight:bold;font-stretch:normal;font-size:3.93995px;font-family:Unispace;-inkscape-font-specification:'Unispace Bold';stroke-width:0.211068"
         d="m 99.588054,28.341367 q 0.169418,0 0.295496,0.04334 0.12608,0.0394 0.20488,0.137898 0.0827,0.09456 0.12214,0.256097 0.0394,0.157598 0.0394,0.390055 v 0.870729 q 0,0.232457 -0.0394,0.390055 -0.0355,0.157598 -0.11426,0.256097 -0.0788,0.09456 -0.20488,0.137898 -0.126078,0.04334 -0.303376,0.04334 h -0.839209 v 0.957408 h -0.606752 v -3.482916 z m -0.839209,2.135453 h 0.646152 q 0.06698,0 0.114258,-0.01576 0.04728,-0.0197 0.07486,-0.06304 0.02758,-0.04728 0.0394,-0.122139 0.01182,-0.0788 0.01182,-0.200937 v -0.965288 q 0,-0.133958 -0.0197,-0.208817 -0.0197,-0.07486 -0.07092,-0.110319 -0.05122,-0.03546 -0.141838,-0.04334 -0.09062,-0.0079 -0.228518,-0.0079 h -0.425514 z" />
      <path
         id="path1271"
         style="font-style:normal;font-variant:normal;font-weight:bold;font-stretch:normal;font-size:3.93995px;font-family:Unispace;-inkscape-font-specification:'Unispace Bold';stroke-width:0.211068"
         d="m 101.81148,27.683395 v 0.657972 h 0.79193 v 0.397935 h -0.79193 v 1.375042 q 0,0.130019 0.008,0.204878 0.0118,0.07092 0.0552,0.106378 0.0473,0.03546 0.13396,0.04334 0.0906,0.0079 0.25215,0.0079 v 0.390055 h -0.40975 q -0.197,0 -0.32308,-0.02758 -0.12608,-0.03152 -0.20094,-0.106379 -0.0748,-0.07486 -0.10637,-0.204877 -0.0276,-0.130018 -0.0276,-0.330956 v -1.457781 h -0.58706 v -0.397935 h 0.58706 v -0.657972 z" />
    </g>
    <g
       transform="matrix(0.19115633,0,0,0.19115633,78.90669,31.786699)"
       id="g1218">
      <path
         d="M 10.383,126.894 0,0 124,0.255 113.021,126.894 62.468,141.532 Z"
         fill="#e9ca32"
         id="path1210" />
      <path
         d="M 62.468,129.28 V 12.09 l 51.064,0.17 -9.106,104.85 z"
         fill="#ffde25"
         id="path1212" />
      <g
         fill="#ffffff"
         id="g1216">
        <path
           d="M 57,26 H 43.5 v 78 L 33,102 V 91.5 l -12.5,-2 V 113 l 36.5,9.5 z m 10.127,0 H 104.5 L 102,40.95 H 81.394 V 65.483 H 102 L 99.5,115 67.127,122.5 V 107 L 89,99.5 90.263,79 67.127,82.35 Z"
           id="path1214" />
      </g>
    </g>
  </g>
</svg>
