<?xml version="1.0" encoding="UTF-8" standalone="no"?>
<svg
   xmlns:dc="http://purl.org/dc/elements/1.1/"
   xmlns:cc="http://creativecommons.org/ns#"
   xmlns:rdf="http://www.w3.org/1999/02/22-rdf-syntax-ns#"
   xmlns:svg="http://www.w3.org/2000/svg"
   xmlns="http://www.w3.org/2000/svg"
   id="svg8"
   version="1.1"
   viewBox="0 0 31.750002 31.750001"
   height="120"
   width="120">
  <defs
     id="defs2" />
  <metadata
     id="metadata5">
    <rdf:RDF>
      <cc:Work
         rdf:about="">
        <dc:format>image/svg+xml</dc:format>
        <dc:type
           rdf:resource="http://purl.org/dc/dcmitype/StillImage" />
        <dc:title></dc:title>
      </cc:Work>
    </rdf:RDF>
  </metadata>
  <g
     transform="translate(-74.851034,-27.284693)"
     id="layer1">
    <g
       transform="matrix(0.26300843,0,0,0.26300843,75.040022,27.473681)"
       id="g936">
      <g
         id="#ffffffff">
        <path
           fill="#ffffff"
           opacity="1"
           d="M 0,0 H 120 V 120 H 0 V 0 m 37.6,32.06 0.82,-0.79 c -6.77,0.09 -13.98,1.37 -19.34,5.78 -5.72,4.69 -10.9,10.03 -15.42,15.89 2.76,2.8 5.65,5.49 8.64,8.04 1.82,3.23 3.14,6.71 4.91,9.96 0.76,1.21 1.9,2.17 2.87,3.22 1.17,-1.21 1.87,-2.65 2.12,-4.32 0.69,3.76 2.07,7.42 4.52,10.4 2.67,3.13 2.34,7.8 5.29,10.74 1.81,2.05 4.43,3.05 6.91,4.02 2.89,1.28 6.12,1.34 9.07,2.45 5.8,2.13 12.05,0.71 18.07,1.15 4.13,0.33 7.85,-1.75 11.85,-2.34 1.77,-0.3 3.61,-0.61 5.07,-1.72 2.14,-0.89 4.39,-1.81 5.89,-3.66 2.97,-2.96 2.55,-7.68 5.23,-10.83 2.11,-2.59 3.45,-5.66 4.53,-8.8 0.31,0.73 0.92,2.21 1.22,2.94 1.58,-1.16 2.96,-2.55 3.99,-4.22 1.31,-3.03 2.73,-6.02 4.22,-8.97 2.99,-2.52 5.9,-5.16 8.62,-7.98 -4.45,-6.06 -9.81,-11.43 -15.61,-16.2 -5.33,-4.17 -12.4,-5.6 -19.04,-5.4 -8.84,-2.04 -17.99,-2.25 -27.02,-1.93 -5.85,0.34 -11.82,0.7 -17.41,2.57 z"
           id="path858" />
        <path
           fill="#ffffff"
           opacity="1"
           d="m 37.25,52.27 c 0.86,-1.44 3.92,0.31 3.24,1.81 0.19,1.66 -2.03,2.13 -3.2,1.56 -1.03,-0.77 -1.38,-2.71 -0.04,-3.37 z"
           id="path860" />
        <path
           fill="#ffffff"
           opacity="1"
           d="m 81.44,52.39 c 1.89,-2.12 4.65,1.14 2.96,3.05 -1.97,1.66 -5.27,-1.2 -2.96,-3.05 z"
           id="path862" />
      </g>
      <g
         id="#efcca3ff">
        <path
           fill="#efcca3"
           opacity="1"
           d="m 37.6,32.06 c 5.59,-1.87 11.56,-2.23 17.41,-2.57 9.03,-0.32 18.18,-0.11 27.02,1.93 5.15,4.59 9.57,10.1 12.56,16.34 -0.18,0.8 -0.52,2.41 -0.7,3.21 -1.81,-2.08 -3.59,-4.19 -5.34,-6.32 -0.41,0.34 -1.23,1.02 -1.64,1.36 -4.2,-0.75 -8.52,-1.11 -12.73,-0.16 0.94,3.98 2.62,8.32 0.24,12.13 0.88,0.43 1.75,0.85 2.64,1.27 1.75,2.05 3.71,3.92 5.59,5.86 1.06,1.02 2.12,2.07 3.39,2.84 4.42,-0.18 7.06,-4.06 9.33,-7.34 0.57,4.72 1.66,9.57 0.53,14.29 -1.8,5.63 -9.9,6.14 -10.82,12.28 0.28,-2.75 0.39,-5.5 0.42,-8.26 -0.21,-6.06 -4.39,-11 -8.91,-14.6 -3.36,-2.34 -7.13,-4.02 -10.36,-6.56 -2.98,-2.43 -7.51,-2.39 -10.52,-0.04 -4.06,3.09 -9.13,4.63 -12.78,8.26 -2.73,2.65 -5.22,5.7 -6.53,9.31 -0.87,2.56 -1.56,5.16 -2.26,7.77 -3.82,-2.06 -8.45,-4.37 -9.47,-9.01 -0.71,-4.65 0.38,-9.32 0.74,-13.95 1.97,3.95 5.17,7.06 9.47,8.29 1.05,-1.09 2.09,-2.19 3.16,-3.27 2.38,-2.73 6.43,-4.68 6.49,-8.78 0.56,-3.46 1.56,-6.86 1.67,-10.37 -4.79,-1.93 -9.98,0.25 -14.96,0.07 -1.58,1.5 -3.17,3.01 -4.76,4.51 1.36,-3.76 2.85,-7.48 4.5,-11.12 2.07,-2.56 4.28,-5.03 6.62,-7.37 m 30.19,14.55 c -4.37,-1.93 -9.18,-1.85 -13.7,-0.51 -0.93,-1.22 -1.83,-2.46 -2.7,-3.73 0.18,2.19 0.35,4.39 0.52,6.58 2.51,-1.15 5.06,-2.59 7.91,-2.53 3.38,-0.07 6.5,1.4 9.43,2.92 0.9,-2.81 2.36,-5.38 4.51,-7.42 -3.04,-0.09 -4.73,2.25 -5.97,4.69 m -16.25,6.27 c 5.6,-1.76 11.44,-2.07 17.17,-0.75 -4.85,-4.27 -12.54,-3.41 -17.17,0.75 z"
           id="path865" />
      </g>
      <g
         id="#56332bff">
        <path
           fill="#56332b"
           opacity="1"
           d="m 19.08,37.05 c 5.36,-4.41 12.57,-5.69 19.34,-5.78 l -0.82,0.79 c -2.34,2.34 -4.55,4.81 -6.62,7.37 -7.69,8.16 -7.96,19.9 -8.78,30.41 -0.25,1.67 -0.95,3.11 -2.12,4.32 C 19.11,73.11 17.97,72.15 17.21,70.94 18,64.32 18.68,57.52 21.49,51.39 23.06,47.86 24.8,44.4 26.16,40.78 19.86,46.27 16.85,54.19 12.3,60.98 9.31,58.43 6.42,55.74 3.66,52.94 8.18,47.08 13.36,41.74 19.08,37.05 Z"
           id="path868" />
        <path
           fill="#56332b"
           opacity="1"
           d="m 82.03,31.42 c 6.64,-0.2 13.71,1.23 19.04,5.4 5.8,4.77 11.16,10.14 15.61,16.2 -2.72,2.82 -5.63,5.46 -8.62,7.98 -4.2,-6.54 -7.09,-14.11 -13.12,-19.28 1.86,5.51 4.9,10.61 6.12,16.35 0.87,3.98 1.57,8 2.78,11.9 -1.03,1.67 -2.41,3.06 -3.99,4.22 -0.3,-0.73 -0.91,-2.21 -1.22,-2.94 C 97.12,63.46 97.84,55.18 94.59,47.76 91.6,41.52 87.18,36.01 82.03,31.42 Z"
           id="path870" />
        <path
           fill="#56332b"
           opacity="1"
           d="m 55.71,57.72 c 3.01,-2.35 7.54,-2.39 10.52,0.04 3.23,2.54 7,4.22 10.36,6.56 4.52,3.6 8.7,8.54 8.91,14.6 -2.81,3.92 -6.28,8.17 -11.36,8.89 -3.35,0.46 -6.54,1.59 -9.75,2.58 -4.37,1.33 -8.88,-0.05 -13.04,-1.45 -0.26,-1.28 -0.53,-2.57 -0.79,-3.85 -0.37,1.35 -0.73,2.71 -1.09,4.08 -5.32,-1.14 -9.6,-4.57 -13.3,-8.38 0.01,-1.84 0.07,-3.67 0.23,-5.5 1.31,-3.61 3.8,-6.66 6.53,-9.31 3.65,-3.63 8.72,-5.17 12.78,-8.26 m 1.87,3.5 c 0.9,0.9 1.77,1.85 2.63,2.79 0.08,2.78 0.19,5.56 0.33,8.34 -3.17,1.65 -6.35,3.58 -8.1,6.84 0.96,-0.81 1.91,-1.64 2.89,-2.44 3.15,-0.75 6.39,-1.04 9.63,-1.13 l -1.11,-0.7 c 0.75,0.32 2.25,0.97 3,1.3 -1.55,-1.49 -3.42,-2.55 -5.34,-3.46 -0.21,-3.06 -0.5,-6.11 -0.86,-9.16 1.41,-0.4 2.81,-0.81 4.22,-1.21 -0.7,0.11 -2.1,0.34 -2.81,0.45 0.1,-0.93 0.3,-2.79 0.4,-3.72 -0.26,0.65 -0.8,1.95 -1.07,2.59 -0.88,-0.83 -1.73,-1.69 -2.58,-2.54 -0.41,0.68 -0.82,1.36 -1.23,2.05 z"
           id="path872" />
      </g>
      <g
         id="#ccac8dff">
        <path
           fill="#ccac8d"
           opacity="1"
           d="m 22.2,69.84 c 0.82,-10.51 1.09,-22.25 8.78,-30.41 -1.65,3.64 -3.14,7.36 -4.5,11.12 1.59,-1.5 3.18,-3.01 4.76,-4.51 4.98,0.18 10.17,-2 14.96,-0.07 -0.11,3.51 -1.11,6.91 -1.67,10.37 -1.31,-3.22 -3.67,-6.68 -7.55,-6.71 -5.59,-0.65 -10.25,6.01 -7.48,11 1.36,3.45 5.22,4.34 8.54,4.49 -1.07,1.08 -2.11,2.18 -3.16,3.27 -4.3,-1.23 -7.5,-4.34 -9.47,-8.29 -0.36,4.63 -1.45,9.3 -0.74,13.95 1.02,4.64 5.65,6.95 9.47,9.01 0.7,-2.61 1.39,-5.21 2.26,-7.77 -0.16,1.83 -0.22,3.66 -0.23,5.5 0.04,4.84 0.33,9.89 2.75,14.21 -2.48,-0.97 -5.1,-1.97 -6.91,-4.02 C 29.06,88.04 29.39,83.37 26.72,80.24 24.27,77.26 22.89,73.6 22.2,69.84 Z"
           id="path875" />
        <path
           fill="#ccac8d"
           opacity="1"
           d="m 88.55,44.65 c 1.75,2.13 3.53,4.24 5.34,6.32 0.18,-0.8 0.52,-2.41 0.7,-3.21 3.25,7.42 2.53,15.7 4.04,23.49 -1.08,3.14 -2.42,6.21 -4.53,8.8 -2.68,3.15 -2.26,7.87 -5.23,10.83 -1.5,1.85 -3.75,2.77 -5.89,3.66 0.96,-2.38 1.61,-4.86 2.1,-7.36 C 86,81.04 94.1,80.53 95.9,74.9 c 1.13,-4.72 0.04,-9.57 -0.53,-14.29 -2.27,3.28 -4.91,7.16 -9.33,7.34 -1.27,-0.77 -2.33,-1.82 -3.39,-2.84 3.45,-0.06 7.53,-0.76 9.08,-4.31 2.95,-5.12 -1.92,-12.07 -7.72,-11.13 -4.73,0.33 -7.36,5.23 -6.95,9.58 -0.89,-0.42 -1.76,-0.84 -2.64,-1.27 2.38,-3.81 0.7,-8.15 -0.24,-12.13 4.21,-0.95 8.53,-0.59 12.73,0.16 0.41,-0.34 1.23,-1.02 1.64,-1.36 z"
           id="path877" />
      </g>
      <g
         id="#442823ff">
        <path
           fill="#442823"
           opacity="1"
           d="M 12.3,60.98 C 16.85,54.19 19.86,46.27 26.16,40.78 24.8,44.4 23.06,47.86 21.49,51.39 18.68,57.52 18,64.32 17.21,70.94 15.44,67.69 14.12,64.21 12.3,60.98 Z"
           id="path880" />
        <path
           fill="#442823"
           opacity="1"
           d="m 94.94,41.72 c 6.03,5.17 8.92,12.74 13.12,19.28 -1.49,2.95 -2.91,5.94 -4.22,8.97 -1.21,-3.9 -1.91,-7.92 -2.78,-11.9 C 99.84,52.33 96.8,47.23 94.94,41.72 Z"
           id="path882" />
        <path
           fill="#442823"
           opacity="1"
           d="m 74.14,87.81 c 5.08,-0.72 8.55,-4.97 11.36,-8.89 -0.03,2.76 -0.14,5.51 -0.42,8.26 -0.49,2.5 -1.14,4.98 -2.1,7.36 -1.46,1.11 -3.3,1.42 -5.07,1.72 -4,0.59 -7.72,2.67 -11.85,2.34 C 60.04,98.16 53.79,99.58 47.99,97.45 45.04,96.34 41.81,96.28 38.92,95 36.5,90.68 36.21,85.63 36.17,80.79 c 3.7,3.81 7.98,7.24 13.3,8.38 0.36,-1.37 0.72,-2.73 1.09,-4.08 0.26,1.28 0.53,2.57 0.79,3.85 4.16,1.4 8.67,2.78 13.04,1.45 3.21,-0.99 6.4,-2.12 9.75,-2.58 z"
           id="path884" />
      </g>
      <g
         id="#d4b392ff">
        <path
           fill="#d4b392"
           opacity="1"
           d="m 67.79,46.61 c 1.24,-2.44 2.93,-4.78 5.97,-4.69 -2.15,2.04 -3.61,4.61 -4.51,7.42 -2.93,-1.52 -6.05,-2.99 -9.43,-2.92 -2.85,-0.06 -5.4,1.38 -7.91,2.53 -0.17,-2.19 -0.34,-4.39 -0.52,-6.58 0.87,1.27 1.77,2.51 2.7,3.73 4.52,-1.34 9.33,-1.42 13.7,0.51 z"
           id="path887" />
        <path
           fill="#d4b392"
           opacity="1"
           d="M 51.54,52.88 C 56.17,48.72 63.86,47.86 68.71,52.13 62.98,50.81 57.14,51.12 51.54,52.88 Z"
           id="path889" />
      </g>
      <g
         id="#000000ff">
        <path
           fill="#000000"
           opacity="1"
           d="m 29.5,60.63 c -2.77,-4.99 1.89,-11.65 7.48,-11 3.88,0.03 6.24,3.49 7.55,6.71 -0.06,4.1 -4.11,6.05 -6.49,8.78 -3.32,-0.15 -7.18,-1.04 -8.54,-4.49 m 7.75,-8.36 c -1.34,0.66 -0.99,2.6 0.04,3.37 1.17,0.57 3.39,0.1 3.2,-1.56 0.68,-1.5 -2.38,-3.25 -3.24,-1.81 z"
           id="path892" />
        <path
           fill="#000000"
           opacity="1"
           d="m 77.06,59.25 c -0.41,-4.35 2.22,-9.25 6.95,-9.58 5.8,-0.94 10.67,6.01 7.72,11.13 -1.55,3.55 -5.63,4.25 -9.08,4.31 -1.88,-1.94 -3.84,-3.81 -5.59,-5.86 m 4.38,-6.86 c -2.31,1.85 0.99,4.71 2.96,3.05 1.69,-1.91 -1.07,-5.17 -2.96,-3.05 z"
           id="path894" />
        <path
           fill="#000000"
           opacity="1"
           d="m 57.58,61.22 c 0.41,-0.69 0.82,-1.37 1.23,-2.05 0.85,0.85 1.7,1.71 2.58,2.54 0.27,-0.64 0.81,-1.94 1.07,-2.59 -0.1,0.93 -0.3,2.79 -0.4,3.72 0.71,-0.11 2.11,-0.34 2.81,-0.45 -1.41,0.4 -2.81,0.81 -4.22,1.21 0.36,3.05 0.65,6.1 0.86,9.16 1.92,0.91 3.79,1.97 5.34,3.46 -0.75,-0.33 -2.25,-0.98 -3,-1.3 -2.92,-2.48 -6.19,-0.27 -8.52,1.83 -0.98,0.8 -1.93,1.63 -2.89,2.44 1.75,-3.26 4.93,-5.19 8.1,-6.84 -0.14,-2.78 -0.25,-5.56 -0.33,-8.34 -0.86,-0.94 -1.73,-1.89 -2.63,-2.79 z"
           id="path896" />
      </g>
      <g
         id="#74443bff">
        <path
           fill="#74443b"
           opacity="1"
           d="m 55.33,76.75 c 2.33,-2.1 5.6,-4.31 8.52,-1.83 l 1.11,0.7 c -3.24,0.09 -6.48,0.38 -9.63,1.13 z"
           id="path899" />
      </g>
    </g>
  </g>
</svg>
