<?xml version="1.0" encoding="UTF-8" standalone="no"?>
<svg
   xmlns:dc="http://purl.org/dc/elements/1.1/"
   xmlns:cc="http://creativecommons.org/ns#"
   xmlns:rdf="http://www.w3.org/1999/02/22-rdf-syntax-ns#"
   xmlns:svg="http://www.w3.org/2000/svg"
   xmlns="http://www.w3.org/2000/svg"
   id="svg8"
   version="1.1"
   viewBox="0 0 31.750002 26.458334"
   height="100"
   width="120">
  <defs
     id="defs2" />
  <metadata
     id="metadata5">
    <rdf:RDF>
      <cc:Work
         rdf:about="">
        <dc:format>image/svg+xml</dc:format>
        <dc:type
           rdf:resource="http://purl.org/dc/dcmitype/StillImage" />
        <dc:title></dc:title>
      </cc:Work>
    </rdf:RDF>
  </metadata>
  <g
     transform="translate(-74.851034,-27.284693)"
     id="layer1">
    <g
       transform="matrix(0.22332183,0,0,0.22332183,73.861854,23.872443)"
       id="g955">
      <g
         id="#ffffffff-8">
        <path
           id="path833"
           d="M 34.79,29.78 C 47.32,23.3 61.5,18.09 75.82,20.42 c 7.41,1.12 15.5,4.66 18.52,12.02 2.78,7.67 0.4,16.3 -4.09,22.82 -5.59,8.43 -14.93,13.7 -24.67,15.81 3.65,1.08 5.94,4.35 6.14,8.08 1.64,0.78 3.06,1.9 4.41,3.12 1.35,-4.03 3.51,-7.75 4.52,-11.9 0.65,-3.81 5.22,-4.13 8.32,-4.1 2.61,-0.19 5.19,1.18 6.07,3.71 -0.24,3.11 -2.32,5.85 -1.9,9.08 2.88,-3.79 4.68,-8.32 5.79,-12.92 0.5,-2.38 3.01,-3.49 5.22,-3.7 3.05,-0.5 7.06,-0.47 8.79,2.59 0.86,2.03 -0.48,4.03 -0.91,5.99 -1.19,3.04 -0.25,6.29 0.82,9.2 8.51,-2.78 18.75,-2.94 26.15,2.73 5.83,4.21 8.84,12.81 5.04,19.3 -1.63706,2.28332 -4.60839,4.30338 -6.09,5.12 -1.03603,0.25302 -2.28256,0.35628 -3,0.45 -2.76,-1.48 -3.85,-4.98 -0.88,-6.89 0.76,-0.58 1.52,-1.17 2.27,-1.76 1.97,-3.08 -0.66,-6.54 -3.31,-8.14 -4.82,-2.73 -10.7,-2.86 -16.03,-1.83 0.1,2 0.41437,3.698661 0.14,6.01 -0.36,0.89 -0.76,1.75 -1.22,2.6 -2.31,4.19 -6.6,6.65 -10.88,8.43 -2.02,-0.61 -4.19,-0.62 -6.2,-0.01 l -2.2,-1.68 c -4.26,4.46 -10.55,7.29 -16.76,6.51 -2.45,-0.32 -3.8,-2.5 -4.72,-4.55 -0.42,0.76 -0.84,1.53 -1.24,2.3 -1.25,0.85 -2.64,1.79 -3.01,3.36 -3.18,1.42 -6.9,1.23 -9.11,-1.79 -2.01,3.18 -5.86,5.75 -9.72,4.31 -3.51,-0.92 -5.01,-4.54 -6.38,-7.53 -0.6,1.83 -1.19,3.68 -1.88,5.49 l -0.23,0.52 c -2.92,6.01 -8.28,10.61 -14.5,12.94 -4.64,1.51 -9.75,1.71 -14.39,0.09 -1.89,-1.12 -3.28,-2.87 -4.48,-4.66 C 7.29,115.32 9.16,107.7 13.75,102.8 17.97,98.31 22.690804,94.698661 28.030804,91.708661 29.038839,91.393036 25.426339,88.690178 22.172143,87.5475 15.172143,82.7375 11.85,80.64 7.22,73.33 3.74,68.05 3.69,61.13 6.59,55.59 12.33,43.81 23.47,35.76 34.79,29.78 M 50.88,25.86 C 39.99,29.78 29.43,35.07 20.57,42.6 14.81,47.68 9.42,53.84 7.59,61.48 c -1.22,4.97 1.4,9.83 4.46,13.56 6.03,7.15 14.35,11.73 21.77,17.23 -7.06,4.17 -14.87,7.94 -19.73,14.82 -3.27,4.82 -3.63,12.57 1.51,16.23 7.77,3.11 16.96,-0.4 22.18,-6.59 5.56,-6.36 6.82,-15.79 3.8,-23.59 2.45,-1.35 4.87,-2.75 7.27,-4.19 -2.07,6.76 -2.73,14.67 1.36,20.83 1.43,2.67 5.45,3.25 7.51,0.99 2.71,-3.1 3.77,-7.19 5.72,-10.75 -0.01,2.88 -0.66,6.04 0.87,8.67 0.86,1.46 2.89,2.22 4.34,1.09 3.71,-2.52 5.17,-7.05 7.36,-10.77 3.25,-5.75 5.48,-11.99 8.39,-17.88 0.73,3.92 1.99,7.73 4.09,11.14 -2.91,4.46 -6.95,8.05 -9.79,12.54 -1.19,1.57 0.56,3.65 2.31,3.5 5.98,0.16 13.27,-2.85 14.84,-9.18 0.98,-3.03 -0.7,-5.94 -1.08,-8.88 2.81,-4.26 5.22,-8.75 7.85,-13.13 0.68,3.64 1.97,7.11 3.54,10.45 -3.71,3.22 -7.33,7.3 -7.83,12.4 -0.42,2.12 1.47,4.4 3.69,3.95 4.77,-0.9 9.44,-3.77 11.68,-8.18 1.4,-2.68 0.3,-5.65 -0.5,-8.32 6.9,-2.69 14.65,-2.02 21.37,0.87 2.9,2.19 5.13,5.13 5.84,8.76 -0.39,3.6 -4.11,4.93 -5.35,7.91 3.11,-0.65 5.85,-2.81 7.14,-5.71 1.1,-3 0.39,-6.28 -0.71,-9.17 -5.97,-10.28 -20.17,-10.73 -29.95,-6.17 -3.19,-5.28 -3.96,-11.89 -0.96,-17.45 -2.26,-2.37 -5.83,-1.16 -8.61,-0.56 -1.49,7.43 -5.52,14 -9.55,20.29 -3,-5.02 -2.34,-11.1 -0.15,-16.28 -2.64,-1.09 -5.68,-1.07 -8.32,0.02 -3.93,11.07 -8.88,21.79 -14.19,32.26 -0.11,-0.48 -0.34,-1.43 -0.45,-1.91 0.67,-5.55 2.67,-10.82 3.77,-16.28 -0.29,-2.12 -2.99,-2.22 -4.56,-1.57 0.55,-3.02 0.35,-7.83 -3.6,-8.25 -5.75,-0.17 -9.56,4.79 -13.35,8.35 -4.12,2.58 -8.55,4.62 -12.69,7.16 -6.06,-6.52 -14.7,-10.41 -19.6,-18.02 -3.45,-5.41 -1.46,-12.44 2.3,-17.14 5.87,-7.37 14.18,-12.24 22.44,-16.49 9.98,-4.92 21.33,-8.38 32.53,-6.4 3.83,0.84 8.37,3.03 8.79,7.44 0.49,5.62 -2.95,10.71 -6.75,14.53 -7.55,7.29 -18.12,11.48 -28.61,11.25 -4.32,0.04 -8.18,-2.21 -11.21,-5.13 -1.02,2.61 1.33,4.84 3.13,6.39 4.5,3.61 10.61,3.7 16.09,3.31 9.55,-0.95 19.32,-4.26 26.08,-11.35 5.77,-5.83 10.06,-14.19 8.25,-22.56 -1.28,-5.64 -6.43,-9.4 -11.69,-11.04 -9.7,-3.03 -20.26,-1.85 -29.75,1.38 z"
           opacity="1"
           fill="#ffffff" />
        <path
           id="path835"
           d="m 57.3,86.3 c 1.69,-3.04 3.98,-6.83 7.94,-6.75 -0.62,5.29 -2.72,10.24 -4.58,15.18 -1.62,2.98 -1.97,7.74 -5.33,9.14 C 52.86,98.21 54.52,91.55 57.3,86.3 Z"
           opacity="1"
           fill="#ffffff" />
        <path
           id="path837"
           d="m 102.63,99.64 c 1.07,-3.67 2.77,-7.36 5.91,-9.71 0.97,4.24 -1.49,8.84 -5.91,9.71 z"
           opacity="1"
           fill="#ffffff" />
        <path
           id="path839"
           d="m 24.41,104.46 c 3.82,-3.69 8.38,-6.48 12.88,-9.25 2.18,8.03 -1.94,17.07 -9.55,20.48 -2.3,1.12 -6.23,2.12 -7.5,-0.92 -0.65,-3.9 1.5,-7.65 4.17,-10.31 z"
           opacity="1"
           fill="#ffffff" />
      </g>
      <a
         id="a927">
        <g
           id="#cd689aff">
          <path
             fill="#cd689a"
             opacity="1"
             d="m 50.88,25.86 c 9.49,-3.23 20.05,-4.41 29.75,-1.38 5.26,1.64 10.41,5.4 11.69,11.04 1.81,8.37 -2.48,16.73 -8.25,22.56 -6.76,7.09 -16.53,10.4 -26.08,11.35 -5.48,0.39 -11.59,0.3 -16.09,-3.31 -1.8,-1.55 -4.15,-3.78 -3.13,-6.39 3.03,2.92 6.89,5.17 11.21,5.13 10.49,0.23 21.06,-3.96 28.61,-11.25 3.8,-3.82 7.24,-8.91 6.75,-14.53 -0.42,-4.41 -4.96,-6.6 -8.79,-7.44 -11.2,-1.98 -22.55,1.48 -32.53,6.4 -8.26,4.25 -16.57,9.12 -22.44,16.49 -3.76,4.7 -5.75,11.73 -2.3,17.14 4.9,7.61 13.54,11.5 19.6,18.02 4.14,-2.54 8.57,-4.58 12.69,-7.16 3.79,-3.56 7.6,-8.52 13.35,-8.35 3.95,0.42 4.15,5.23 3.6,8.25 1.57,-0.65 4.27,-0.55 4.56,1.57 -1.1,5.46 -3.1,10.73 -3.77,16.28 0.11,0.48 0.34,1.43 0.45,1.91 C 75.07,91.72 80.02,81 83.95,69.93 c 2.64,-1.09 5.68,-1.11 8.32,-0.02 -2.19,5.18 -2.85,11.26 0.15,16.28 4.03,-6.29 8.06,-12.86 9.55,-20.29 2.78,-0.6 6.35,-1.81 8.61,0.56 -3,5.56 -2.23,12.17 0.96,17.45 9.78,-4.56 23.98,-4.11 29.95,6.17 -0.53,0.07 -1.57,0.19 -2.1,0.26 -1.57,-0.76 -3.17,-1.47 -4.82,-2.05 -6.72,-2.89 -14.47,-3.56 -21.37,-0.87 0.8,2.67 1.9,5.64 0.5,8.32 -2.24,4.41 -6.91,7.28 -11.68,8.18 -2.22,0.45 -4.11,-1.83 -3.69,-3.95 0.5,-5.1 4.12,-9.18 7.83,-12.4 -1.57,-3.34 -2.86,-6.81 -3.54,-10.45 -2.63,4.38 -5.04,8.87 -7.85,13.13 0.38,2.94 2.06,5.85 1.08,8.88 -1.57,6.33 -8.86,9.34 -14.84,9.18 -1.75,0.15 -3.5,-1.93 -2.31,-3.5 2.84,-4.49 6.88,-8.08 9.79,-12.54 -2.1,-3.41 -3.36,-7.22 -4.09,-11.14 -2.91,5.89 -5.14,12.13 -8.39,17.88 -2.19,3.72 -3.65,8.25 -7.36,10.77 -1.45,1.13 -3.48,0.37 -4.34,-1.09 -1.53,-2.63 -0.88,-5.79 -0.87,-8.67 -1.95,3.56 -3.01,7.65 -5.72,10.75 -2.06,2.26 -6.08,1.68 -7.51,-0.99 -4.09,-6.16 -3.43,-14.07 -1.36,-20.83 -2.4,1.44 -4.82,2.84 -7.27,4.19 3.02,7.8 1.76,17.23 -3.8,23.59 -5.22,6.19 -14.41,9.7 -22.18,6.59 -5.14,-3.66 -4.78,-11.41 -1.51,-16.23 C 18.95,100.21 26.76,96.44 33.82,92.27 26.4,86.77 18.08,82.19 12.05,75.04 8.99,71.31 6.37,66.45 7.59,61.48 9.42,53.84 14.81,47.68 20.57,42.6 29.43,35.07 39.99,29.78 50.88,25.86 M 57.3,86.3 c -2.78,5.25 -4.44,11.91 -1.97,17.57 3.36,-1.4 3.71,-6.16 5.33,-9.14 1.86,-4.94 3.96,-9.89 4.58,-15.18 -3.96,-0.08 -6.25,3.71 -7.94,6.75 m 45.33,13.34 c 4.42,-0.87 6.88,-5.47 5.91,-9.71 -3.14,2.35 -4.84,6.04 -5.91,9.71 m -78.22,4.82 c -2.67,2.66 -4.82,6.41 -4.17,10.31 1.27,3.04 5.2,2.04 7.5,0.92 7.61,-3.41 11.73,-12.45 9.55,-20.48 -4.5,2.77 -9.06,5.56 -12.88,9.25 m 59.11,0.02 c 3.6,-1.36 6.5,-4.47 7.29,-8.28 -2.88,2.32 -5.16,5.29 -7.29,8.28 z"
             id="path842" />
        </g>
      </a>
      <g
         id="#06060621">
        <path
           id="path845"
           d="m 7.22,73.33 c 4.63,7.31 9.257946,10.81375 16.257946,15.62375 1.780521,1.262738 3.925248,2.398888 3.925248,2.398888 C 30.65862,92.629632 30.523006,92.378076 27,92.72 20.3,90.68 15.19,85.5 10.29,80.74 8.9597606,78.941669 8.2305176,77.849432 7.4767041,75.872797 7.1809146,75.097184 7.0327464,74.306465 7.22,73.33 Z"
           opacity="0.13"
           fill="#060606" />
      </g>
      <g
         id="#0000001e">
        <path
           id="path848"
           d="m 117,89.2 c 5.33,-1.03 11.21,-0.9 16.03,1.83 2.65,1.6 5.8492,5.126964 3.31,8.14 l -0.0209,-1.297634 c -0.0119,-0.740338 -0.41878,-1.810787 -0.92481,-2.508021 -1.30429,-1.740089 -3.67697,-3.0175 -5.49349,-3.599196 -4.32919,-1.019464 -6.68762,-1.242694 -11.6508,-1.225149 -0.13,0.79 -0.15299,2.803789 -0.27356,4.19669 -0.34496,3.98509 -0.63903,3.232826 -0.57018,1.518465 0,0 -0.0892,-0.451944 -0.26626,-1.045155 0.1347,-2.104702 -0.04,-4.01 -0.14,-6.01 z"
           opacity="0.12"
           fill="#000000"
           style="opacity:0.08" />
        <path
           id="path850"
           d="m 131.0865,106.30384 c -0.43233,-2.07735 1.12049,-5.18363 2.9835,-5.37384 -2.73325,2.24146 -1.88,5.41 0.88,6.89 1.19875,0.22464 1.25027,0.38339 3,-0.45 2.30348,-1.59089 4.54,-2.9 6.09,-5.12 1.37377,-2.387212 0.20089,0.80357 -0.71294,2.45396 -0.87312,1.28443 -1.44066,1.94829 -2.5223,3.03203 -1.39008,1.39279 -2.53329,2.40226 -4.84476,2.43401 -1.94,0.16 -4.34383,-1.27205 -4.8735,-3.86616 z"
           opacity="0.12"
           fill="#000000" />
        <path
           id="path852"
           d="m 29.09,126.11 c 6.22,-2.33 11.81,-7.45 14.73,-13.46 0.24,0.65 1.494464,0.585 1.734464,1.235 -3.91,7.75 -12.894464,15.265 -21.584464,16.095 -4.17,0.51 -8.76,-0.01 -12.13,-2.73 -1.68,-1.31 -3.25,-3.71 -1.62,-5.71 1.2,1.79 2.59,3.54 4.48,4.66 4.39,3 9.87,2.12 14.39,-0.09 z"
           opacity="0.12"
           fill="#000000"
           style="opacity:0.16;fill:#999999" />
      </g>
      <g
         id="#c5528bff">
        <path
           id="path855"
           d="m 134.57,88.29 c 1.65,0.58 3.25,1.29 4.82,2.05 0.53,-0.07 1.57,-0.19 2.1,-0.26 1.1,2.89 1.81,6.17 0.71,9.17 -1.29,2.9 -4.03,5.06 -7.14,5.71 1.24,-2.98 4.96,-4.31 5.35,-7.91 -0.71,-3.63 -2.94,-6.57 -5.84,-8.76 z"
           opacity="1"
           fill="#c5528b"
           style="opacity:0.84" />
      </g>
      <g
         id="#f6e3ecff">
        <path
           id="path858-4"
           d="m 83.52,104.48 c 2.13,-2.99 4.41,-5.96 7.29,-8.28 -0.79,3.81 -3.69,6.92 -7.29,8.28 z"
           opacity="1"
           fill="#f6e3ec" />
      </g>
      <g
         id="#00000013">
        <path
           id="path861"
           d="m 105.04,106.24 c 4.28,-1.78 8.57,-4.3347 10.88,-8.524702 0.43619,-1.166245 1.22584,-2.521655 1.22584,-2.521655 0.41353,1.161648 0.49822,2.750398 -0.0844,4.395234 C 112.53146,105.80887 104.03,111.4 96.36,108.58 c -4.38,2.67 -9.04,5.66 -14.37,5.61 -2.4,-0.39 -4.65,-1.34 -6.94,-2.1 -2.31,1.37 -4.5,3.06 -7.1,3.83 -2.01,-0.03 -3.97,-0.56 -5.96,-0.72 -2.76,0.48 -4.97,2.94 -7.9,2.64 -3.92,-0.47 -7.08,-3.09 -10.27,-5.19 0.69,-1.81 1.28,-3.66 1.88,-5.49 1.37,2.99 2.87,6.61 6.38,7.53 3.86,1.44 7.71,-1.13 9.72,-4.31 2.21,3.02 5.93,3.21 9.11,1.79 0.65,-0.18 1.112946,-0.73089 1.963839,-1.34616 C 73.442589,109.8625 73.92,108.81 73.92,108.81 c 0.4,-0.77 0.82,-1.54 1.24,-2.3 0.92,2.05 2.27,4.23 4.72,4.55 6.21,0.78 12.5,-2.05 16.76,-6.51 l 2.2,1.68 c 1.75,1.61 4.33,1.09 6.2,0.01 z"
           opacity="0.07"
           fill="#000000" />
      </g>
      <g
         id="#909090c0"
         style="fill:#ffffff">
        <path
           id="path864"
           d="m 98.84,106.23 c 2.01,-0.61 4.18,-0.6 6.2,0.01 -1.87,1.08 -4.45,1.6 -6.2,-0.01 z"
           opacity="0.75"
           fill="#909090"
           style="fill:#ffffff" />
      </g>
      <g
         id="#1e1e1e4c"
         style="fill:#ffffff">
        <path
           id="path867"
           d="m 70.91,112.17 c -0.529667,-1.33325 1.76,-2.51 3.01,-3.36 -1.616678,2.50127 -1.466127,1.74476 -3.01,3.36 z"
           opacity="0.3"
           fill="#1e1e1e"
           style="fill:#ffffff" />
      </g>
    </g>
  </g>
</svg>
