<?xml version="1.0" encoding="UTF-8" standalone="no"?>
<svg
   xmlns:dc="http://purl.org/dc/elements/1.1/"
   xmlns:cc="http://creativecommons.org/ns#"
   xmlns:rdf="http://www.w3.org/1999/02/22-rdf-syntax-ns#"
   xmlns:svg="http://www.w3.org/2000/svg"
   xmlns="http://www.w3.org/2000/svg"
   xmlns:sodipodi="http://sodipodi.sourceforge.net/DTD/sodipodi-0.dtd"
   xmlns:inkscape="http://www.inkscape.org/namespaces/inkscape"
   sodipodi:docname="wordpress-m.svg"
   inkscape:version="1.0 (4035a4fb49, 2020-05-01)"
   id="svg8"
   version="1.1"
   viewBox="0 0 31.750002 31.750001"
   height="120"
   width="120">
  <defs
     id="defs2" />
  <sodipodi:namedview
     inkscape:window-maximized="1"
     inkscape:window-y="-8"
     inkscape:window-x="-8"
     inkscape:window-height="1017"
     inkscape:window-width="2560"
     units="px"
     fit-margin-bottom="0"
     fit-margin-right="0"
     fit-margin-left="0"
     fit-margin-top="0"
     showgrid="false"
     inkscape:document-rotation="0"
     inkscape:current-layer="layer1"
     inkscape:document-units="mm"
     inkscape:cy="135.76471"
     inkscape:cx="89.465066"
     inkscape:zoom="2.8"
     inkscape:pageshadow="2"
     inkscape:pageopacity="0.0"
     borderopacity="1.0"
     bordercolor="#666666"
     pagecolor="#ffffff"
     id="base" />
  <metadata
     id="metadata5">
    <rdf:RDF>
      <cc:Work
         rdf:about="">
        <dc:format>image/svg+xml</dc:format>
        <dc:type
           rdf:resource="http://purl.org/dc/dcmitype/StillImage" />
        <dc:title></dc:title>
      </cc:Work>
    </rdf:RDF>
  </metadata>
  <g
     transform="translate(-74.851034,-27.284693)"
     id="layer1"
     inkscape:groupmode="layer"
     inkscape:label="Layer 1">
    <g
       transform="matrix(0.27476562,0,0,0.27476562,74.15737,26.585813)"
       id="#32373cff">
      <path
         fill="#32373c"
         opacity="1"
         d="m 51.44,3.6 c 6.13,-1.62 12.52,-1.25 18.62,0.25 22.35,3.62 41.4,21.93 45.84,44.14 2,7.31 2.36,15.14 0.37,22.5 -3.22,18.26 -16.02,34.42 -33,41.83 C 75.01,115.75 66.02,118 57.03,117.5 43.6,116.17 30.34,110.9 20.58,101.38 11.34,92.59 5.27,80.64 3.46,68.03 1.31,60.14 3.29,52.04 5.15,44.33 10.96,23.28 29.82,6.67 51.44,3.6 m 2.91,3.01 C 40.39,8.22 27.05,15.3 18.29,26.35 10,36.58 5.65,49.92 6.43,63.06 c 0.77,14.68 7.92,28.91 19.25,38.28 9.54,7.91 21.91,12.63 34.36,12.37 12.91,0.3 25.74,-4.77 35.43,-13.22 C 106.98,90.45 114.05,75.28 113.71,59.95 114,43.21 105.45,26.7 91.97,16.86 81.29,8.9 67.59,5.24 54.35,6.61 Z"
         id="path833" />
      <path
         fill="#32373c"
         opacity="1"
         d="m 49.07,13.76 c 15.16,-3.68 31.84,0.69 43.3,11.25 -5.38,-0.67 -9.72,4.93 -8.72,9.98 0.98,4.3 3.78,7.82 5.79,11.66 2.22,4.4 3.55,9.49 2.56,14.41 C 90.25,70.6 86.44,79.59 84.01,88.95 77.86,72 72.61,54.71 66.51,37.73 c 2.14,-0.26 4.52,0.21 6.51,-0.77 1.46,-0.63 0.41,-2.45 0.31,-3.55 -9.11,0.59 -18.25,0.47 -27.37,0.1 l -1.06,0.38 c -2.14,4.07 3.78,3.79 6.24,3.82 2.71,6.71 4.93,13.59 7.6,20.31 C 55.12,68.46 51.81,79 48.15,89.41 42.49,72.15 36.83,54.88 30.75,37.77 c 2.68,-0.47 6.77,0.79 7.75,-2.7 -0.36,-0.38 -1.08,-1.15 -1.44,-1.53 -5.62,0.05 -11.25,0.42 -16.88,0.31 6.87,-9.82 17.1,-17.44 28.89,-20.09 z"
         id="path835" />
      <path
         fill="#32373c"
         opacity="1"
         d="m 101.75,37.52 c 5.23,8 6.36,18.08 5.68,27.43 -1.23,15.15 -10.72,28.76 -23.55,36.56 5.46,-15.45 10.68,-30.97 16.16,-46.41 1.8,-5.65 2.82,-11.68 1.71,-17.58 z"
         id="path837" />
      <path
         fill="#32373c"
         opacity="1"
         d="M 12.73,64.97 C 12.13,56.77 12.88,48.12 16.8,40.75 24.06,61.64 31.79,82.36 39.48,103.1 24.89,95.99 14.16,81.24 12.73,64.97 Z"
         id="path839" />
      <path
         fill="#32373c"
         opacity="1"
         d="m 46.5,105.93 c 4.97,-13.88 9.55,-27.89 14.48,-41.77 4.84,13.7 9.9,27.32 14.9,40.96 -9.47,3.17 -19.73,3.18 -29.38,0.81 z"
         id="path841" />
    </g>
  </g>
</svg>
