<svg height="128" width="128" xmlns="http://www.w3.org/2000/svg"><linearGradient gradientTransform="matrix(1 0 0 -1 594 633)" gradientUnits="userSpaceOnUse" id="a" x1="-581.125" x2="-478.875" y1="495.986" y2="642.015"><stop offset="0" stop-color="#ffb900"/><stop offset="1" stop-color="#9100eb"/></linearGradient><path fill="url(#a)" d="M0 0h128v128H0z"/><g fill="#FFF"><path d="M86 112H42c-14.336 0-26-11.663-26-26V42c0-14.337 11.664-26 26-26h44c14.337 0 26 11.663 26 26v44c0 14.337-11.663 26-26 26zM42 24c-9.925 0-18 8.074-18 18v44c0 9.925 8.075 18 18 18h44c9.926 0 18-8.075 18-18V42c0-9.926-8.074-18-18-18H42z"/><path d="M64 88c-13.234 0-24-10.767-24-24 0-13.234 10.766-24 24-24s24 10.766 24 24c0 13.233-10.766 24-24 24zm0-40c-8.822 0-16 7.178-16 16s7.178 16 16 16 16-7.178 16-16-7.178-16-16-16z"/><circle cx="89.5" cy="38.5" r="5.5"/></g></svg>