<svg xmlns="http://www.w3.org/2000/svg" width="245.972" height="245.467" viewBox="0 0 65.08 64.947"><ellipse cx="40.425" cy="36.215" rx="32.54" ry="32.473" fill="#171616" fill-rule="evenodd" transform="translate(-7.884 -3.742)"/><g fill="#171616"><path d="M29.074.43c.755-.316 1.592-.3 2.397-.276.595.093 1.176.261 1.762.4.643.164 1.299.283 1.935.477.422.119.863.167 1.297.203.657-.19 1.335.028 2 .065.509-.009.957.276 1.355.561.411.39.862.76 1.143 1.26.2.343.42.681.544 1.062.153.475.375.93.448 1.427.273 1.672.585 3.346.63 5.043l.05-.181a3.198 3.198 0 0 0 0 .504c.112.962.052 1.989.53 2.864.122.314.287.612.51.865.136.16.352.201.539.273.507.209 1.055.283 1.575.453 1.38.431 2.753.883 4.13 1.322.42.153.864.256 1.248.493.435.176.742.569.927.987.064.313.134.666-.03.96-.159.334-.506.51-.797.71-.892.625-1.964.897-2.963 1.297-1.117.396-2.212.867-3.37 1.139-.343.086-.642.382-.677.743-.03.454.058.906.053 1.361.01.95.059 1.9-.008 2.848-.054.493-.037.992-.096 1.487-.001.982-.407 1.897-.614 2.843-.078.426-.302.804-.409 1.22-.08.298.076.616.312.798.43.326.859.657 1.276 1 .256.247.496.559.52.928.017.195.035.4-.03.59-.118.328-.222.692-.519.908-.44.43-1.078.614-1.683.565-.558-.017-1.084-.23-1.586-.458a.553.553 0 0 0-.442-.046c-.353.128-.586.436-.855.68-.48.446-.95.902-1.45 1.328-.228.205-.544.302-.724.562-.247.344-.307.779-.41 1.18-.342 1.233-.7 2.46-1.05 3.69-.198.708-.426 1.408-.588 2.124a4.268 4.268 0 0 0-.033-.097c-.013.335-.167.644-.235.97-.32 1.092-.662 2.177-.956 3.276-.048.22-.07.447-.156.657-.17.437-.247.901-.396 1.345-.267.928-.548 1.852-.8 2.785-1.475.021-2.95.003-4.425.009-1.418-.005-2.836.01-4.252-.008-1.11-7.254-2.177-14.514-3.267-21.772-.105-.737-.217-1.48-.146-2.226a7.764 7.764 0 0 1-.074.702c.045-.494-.014-.99-.016-1.484-.069-.6-.034-1.208-.099-1.809-.024-.32.037-.645-.031-.962-.04-.169-.046-.342-.072-.513-.165-.596-.242-1.218-.48-1.794-.285-.828-.555-1.661-.826-2.494-.073-.22-.086-.471-.245-.653-.208-.278-.55-.385-.858-.511-.549-.24-1.125-.422-1.637-.742-.74-.474-1.485-.943-2.228-1.413-.336-.218-.631-.488-.949-.73-.424-.327-.742-.763-1.126-1.133a4.067 4.067 0 0 1-.47-.673c.026-.503.133-1.047.52-1.403a4.48 4.48 0 0 1 1.684-1.22c.71-.306 1.401-.668 2.15-.875 1.173-.344 2.345-.688 3.519-1.025.273-.174.704-.252.773-.623.203-1.64.388-3.282.589-4.922.06-.567.31-1.086.517-1.608.216-.62.672-1.11 1.07-1.616.386-.395.754-.82 1.228-1.112.63-.41 1.223-.878 1.903-1.202.514-.326 1.099-.517 1.618-.833.415-.243.878-.38 1.326-.55m1.19 1.051c-.585.225-1.111.571-1.632.914-.91.43-1.837.823-2.75 1.247-.515.28-.94.694-1.378 1.077-.7.688-1.118 1.603-1.424 2.521-.413 1.28-.64 2.611-.767 3.947 1.592-.932 3.353-1.55 5.15-1.949 1.613-.348 3.265-.5 4.913-.477 1.56.042 3.12.103 4.673.248 1.494.158 3.027.323 4.403.967-.1-1.789-.349-3.601-1.043-5.266-.354-.827-.855-1.626-1.595-2.158-.333-.227-.718-.417-1.13-.422-.595.063-1.147.338-1.741.41-.79-.057-1.493-.462-2.229-.713-.73-.205-1.489-.293-2.243-.366-.402 0-.818-.129-1.208.02M19.842 14.225a6.472 6.472 0 0 1-.018.11c-.003-.023-.013-.07-.016-.095-.668.168-1.332.347-1.983.57-.807.28-1.619.565-2.36.997-.453.265-.91.55-1.251.956-.15.196-.309.468-.162.71.248.421.636.732 1 1.047 1.246.988 2.599 1.85 4.048 2.508.458.195.936.392 1.442.384-.164.55-.005 1.123.133 1.66.278.98.626 1.938.997 2.886.122.352.314.692.335 1.07.005.362.116.747.398.99.35.277.825.202 1.24.22.22-.013.493.019.649-.17.097-.105.062-.26.072-.39-.008-1.122.01-2.246-.009-3.369-.098-.87-.18-1.83-.784-2.517-.414-.506-.83-1.032-1.394-1.38a1.49 1.49 0 0 0-.722-.226 7.82 7.82 0 0 0-.087-1.704c-.607-.258-1.26.08-1.724.471-.436.483-1.128.652-1.758.617-.023-.209.185-.32.322-.435.21-.175.52-.142.723-.33.047-.203-.252-.214-.378-.277l-.056.068c-.053-.147-.242-.19-.332-.315.073-.185.231-.311.406-.393 1.402-.704 2.83-1.36 4.3-1.907.223-.09.472-.165.639-.349.057-.148-.115-.192-.219-.233-.567-.165-1.164-.156-1.75-.197-.141-.02-.307-.031-.41-.144.04-.137.222-.171.337-.23.619-.205 1.265-.318 1.91-.399.584-.064 1.167.03 1.747.083 2.401.253 4.794.583 7.197.824 1.905.318 3.802.684 5.7 1.04 3.043.584 6.086 1.164 9.118 1.8.454.098.913.2 1.333.4a.61.61 0 0 1 .34.343c-.109.214-.307.358-.521.453-.518.227-1.061.383-1.598.555-.797.245-1.6.472-2.412.659-.218.058-.458.043-.661.15-.113.048-.1.184-.135.28 1.608-.156 3.164-.629 4.687-1.146.61-.216 1.227-.434 1.774-.786.118-.079.238-.189.248-.341.048-.173-.126-.285-.254-.356-.804-.43-1.69-.664-2.555-.938a189.424 189.424 0 0 0-5.756-1.626c-.136-.02-.297-.114-.423-.017-.023-.075-.074-.113-.153-.117a57.14 57.14 0 0 0-6.025-.99l-.026.077-.066-.1c-4.37-.51-8.773-.692-13.171-.718-.65.033-1.287.155-1.926.267m5.452 2.704c.047.237.34.255.509.377.16.059.13.281.022.38-.204.209-.411.418-.55.68.225.047.446.117.648.232.024-.04.05-.078.075-.117l.036.187.094.09c-.247.207-.652-.006-.894.223-.103.078-.263.246-.085.337.33.05.672-.162 1.003-.028.044.163-.182.215-.303.227-.273-.004-.428.26-.5.489-.087.345.036.75-.173 1.06-.116.055-.25.054-.373.087-.032.193.236.262.268.444.118.213-.244.423-.023.596a.6.6 0 0 1 .266.676c-.174.131-.47.255-.39.528.234.478.648.834.943 1.272a.515.515 0 0 1-.03.6c-.413.009-.827.007-1.24.002.184.675.3 1.401.106 2.087-.101.314-.194.634-.214.966-.009.259.27.395.329.635.243.5.03 1.07.228 1.58.116.424.43.742.666 1.1.343.495.672 1 1.018 1.495.256.35.454.767.475 1.208-.014.106.002.269-.123.314-.229.055-.42-.116-.592-.238-.52-.413-.92-.955-1.26-1.522a12.473 12.473 0 0 1-.985-2.048c-.164-.7-.304-1.411-.331-2.131.015-.117-.086-.223-.205-.199-.204.08-.4.23-.444.458-.066.414.041.83.156 1.227.067.234.19.457.2.705.062 1.142.477 2.242 1.077 3.207 1.047 1.673 2.598 2.976 4.282 3.976.325-.068.612-.273.953-.266.572-.022 1.134.172 1.625.454.556.34 1.278.362 1.874.111-1.152-.355-2.032-1.313-2.543-2.376.765.887 1.693 1.688 2.827 2.05a4.317 4.317 0 0 0 3.009-.088c.242.092.5.193.765.124.873-.278 1.574-.95 2.024-1.734.22-.348.317-.758.563-1.091-.418-.354-.814-.735-1.244-1.072-.13.25-.363.419-.616.532-.61.27-1.297.283-1.954.277-.451-.033-.92-.003-1.35-.162-.081-.02-.111-.098-.144-.163.539.06 1.078.145 1.623.11.825-.044 1.73-.24 2.28-.91-.142-.275-.352-.547-.66-.642-.314-.126-.658-.042-.978.013-.24.045-.46.185-.709.172-.684-.005-1.404-.24-1.85-.781-.073-.197-.063-.412-.093-.617-.302-.203-.573-.52-.956-.546-.008.153-.012.307-.014.462a6.91 6.91 0 0 0-1.065-.993c-.245-.166-.53-.392-.843-.283-.115.02-.204.167-.125.268.143.296.385.629.255.967-.246.174-.513.317-.748.507.09-.21.22-.418.21-.655-.003-.197.016-.393.009-.588-.064-.193-.173-.374-.164-.583.015-.32-.01-.692.237-.936.787-.683 1.561-1.384 2.356-2.058.104-.104.256-.071.37-.007.064.396-.344.555-.581.777-.603.537-1.21 1.071-1.773 1.65.108.151.301.107.453.172.188.082.352.207.519.326.202.173.483.162.727.233.564.147 1.148.041 1.722.092.796.035 1.593.001 2.386-.077.488-.06.995-.081 1.455-.271.376-.218.81-.341 1.246-.325.004.112.014.235-.06.33-.174.253-.494.327-.721.517-.06.067-.17.178-.066.26.73.641 1.48 1.259 2.222 1.884.231-.268.4-.582.563-.893.331-.673.606-1.372.85-2.08.162-.517.165-1.063.195-1.6.022-.322.023-.646.015-.97-.045-.709-.032-1.422-.097-2.13-.04-.818-.126-1.633-.177-2.45l-.117.175c-.349-.169-.591-.483-.852-.758-.172-.173-.29-.455-.563-.476-.23-.013-.392.173-.592.253-.527.207-1.062.4-1.575.641a1.188 1.188 0 0 0-.368.27c-.074.046-.108.186.01.197.346-.02.686-.108 1.033-.119.502-.017.953-.27 1.372-.524.228.201.428.435.584.696.064.119.106.305-.02.399-.228.195-.528.279-.814.351-.277-.135-.56-.268-.86-.342-.525-.063-1.057-.038-1.585-.043.07.668.15 1.343.358 1.984.304.74.557 1.502.758 2.277.047.182.102.374.051.563-.116.44-.334.87-.696 1.159-.23.188-.55.161-.823.108-.669-.178-1.256-.56-1.83-.936-.331-.153-.713-.122-1.06-.224a1.778 1.778 0 0 1-.647-.39c-.189-.18-.316-.468-.186-.72.078-.008.164-.026.23.031.185.19.316.425.507.61.27.177.609.122.912.175.306.097.573.284.852.44.449.265.941.482 1.466.528.346.015.627-.268.707-.588.102-.255.005-.518-.056-.769-.238-.87-.473-1.74-.752-2.597-.176-.677-.274-1.391-.163-2.087.053-.373.27-.693.513-.97.71-.784 1.613-1.351 2.515-1.883.162-.088.357-.233.537-.101.448.267.852.641 1.091 1.111-.014-.24-.012-.486-.097-.713-.173-.5-.378-1.01-.755-1.393-.427-.454-1.033-.668-1.616-.84-.753-.213-1.516-.381-2.275-.568a.795.795 0 0 1-.255.039l.163-.086c-.557-.1-1.094-.285-1.652-.38-1.828-.363-3.685-.55-5.54-.716a99.252 99.252 0 0 0-4.981-.299c-.142.132-.334.23-.417.412m8.723 14.388c-.024.144.088.274.2.35.254.147.547.202.83.259.635.107 1.283.166 1.925.102.401-.043.821-.071 1.182-.272.085-.272-.199-.54-.465-.469-.371.069-.723.225-1.099.273-.51-.003-.984-.25-1.494-.27-.278-.018-.553-.082-.833-.074a.334.334 0 0 0-.246.1m-11.117-.02c.178 1.683.385 3.369.761 5.02.127.505.306.998.38 1.515.438 2.637.613 5.307.833 7.968.385 2.906.782 5.81 1.17 8.715l.559.002c-.02-.23-.069-.465-.013-.693.125-.626.24-1.254.343-1.884.02-.242.044-.49.16-.706.18.253.343.52.458.81.089.242.108.506.235.734.235-.234.268-.59.356-.894.056-.338.171-.703.03-1.036-.118-.243-.405-.288-.639-.356.251-.142.527-.25.745-.445.299-.32.32-.79.268-1.2-.104-.524-.256-1.036-.404-1.548-.101-.383-.317-.72-.45-1.09-.187-.498-.372-1.006-.432-1.538l-.117.001.179-.034c.027-.43.555-.583.91-.504.222.178.32.474.372.746.162 1.27.206 2.552.241 3.83-.002.378.052.756.001 1.133-.202 1.108-.4 2.217-.593 3.327-.07.449-.171.896-.188 1.351 1.139.034 2.279.064 3.42.06-.144-.686-.334-1.36-.507-2.04-.147-.434.184-.875.007-1.31-.092-.243-.274-.64-.599-.505-.369.21-.546.627-.872.887-.087.1-.26.074-.295-.058-.212-.563-.02-1.166-.009-1.743-.017-1.97-.254-3.931-.263-5.9-.022-.092-.07-.173-.109-.256-.243-.088-.52-.038-.748-.166-.11-.235-.01-.499.057-.732.089-.25.149-.528.346-.72.177-.17.36-.333.559-.478.17-.575.16-1.211-.046-1.777-.084-.243-.12-.523.031-.75.134-.195.245-.444.106-.668-.781-.172-1.495-.564-2.116-1.062-.935-.749-1.693-1.691-2.357-2.683a20.652 20.652 0 0 1-1.77-3.323m11.798 1.052c.043.08.043.204.144.24.351.188.719.35 1.106.448.472.083.961.02 1.418-.12a2.428 2.428 0 0 0-.056-.538c-.393.016-.788.019-1.18.042-.418-.028-.812-.195-1.226-.248-.116-.04-.157.105-.206.176m8.01 3c-.238.288-.267.69-.197 1.044.436.379 1.092.357 1.575.08.121-.329.279-.71.096-1.046a1.195 1.195 0 0 0-.674-.495c-.31.007-.62.161-.8.417m-11.415 3.473c-.31.111-.605.319-.73.635-.32.726-.43 1.535-.402 2.324.013.22-.108.415-.154.625-.161.618-.19 1.29.01 1.902.034.146.194.293.343.187.125-.115.253-.261.266-.439.071-.997.16-1.993.234-2.99.045-.3.009-.609.097-.9.066-.266.202-.51.39-.709.112-.142.274-.275.288-.468-.066-.107-.214-.208-.342-.167m.877.936c-.62.581-.973 1.382-1.247 2.17.287-.054.599.048.76.3.463.625.322 1.455.624 2.14.323.787 1.015 1.396 1.814 1.67.543-2.03 1.106-4.054 1.65-6.084-.026-.085-.127-.102-.19-.145a5.322 5.322 0 0 0-2.36-.504c-.397-.01-.764.195-1.051.453m-1.128 2.997c-.11.438.125.85.293 1.238.063.114.118.283.269.3a.381.381 0 0 0 .203-.115c.078-.327-.148-.61-.263-.897-.108-.218-.205-.508-.467-.577z"/><path d="M31.48 20.886c.46-.147.946-.154 1.423-.122.97.105 1.91.378 2.843.655.395.136.49.73.175.992-.18.023-.369.053-.48.213.115.16.31.351.15.552-.276.172-.578.337-.762.616-.124.266-.234.557-.47.749-.704.636-1.712.72-2.618.729.007-.097.016-.216.134-.238.651-.143 1.34-.198 1.944-.5-.031-.065-.066-.14-.01-.203-.193-.253-.51-.46-.84-.416-.528.032-1.022.29-1.558.25-.497-.028-1.021-.022-1.481-.235-.148-.053-.215-.194-.262-.332.105-.421.502-.677.9-.777.613-.162 1.26-.146 1.884-.081-.38.218-.911.19-1.216.553.151.164.389.14.591.167.734.011 1.517-.043 2.146-.46.07-.053.192-.118.15-.226-.145-.223-.392-.357-.646-.415-.55-.144-1.11-.282-1.68-.272-.326 0-.641.09-.953.176-.415.124-.829.29-1.16.579-.196.176-.487.216-.737.152-.187-.064-.172-.31-.094-.454.141-.257.355-.469.588-.643a7.069 7.069 0 0 1 2.038-1.009zm-10.431.328c.062-.09.13-.176.196-.265.57.285 1.108.647 1.55 1.109.249.263.463.565.582.91.068.263.304.427.431.657.103.233.127.495.103.747-.015.498-.01.997-.035 1.495-.195-.088-.455-.152-.515-.389.08-.114.203-.175.304-.261.136-.34.072-.719.085-1.076-.108-.06-.228-.108-.31-.204-.136-.151-.131-.375-.252-.533-.1-.129-.305-.017-.396-.16.105-.108.338-.143.325-.328-.085-.153-.26-.232-.327-.398-.354-.668-1.018-1.12-1.741-1.304z"/><path d="M21.715 22.134c.171-.092.147.134.12.235-.128.566-.224 1.163-.089 1.737.114.481.44.867.706 1.27.085.152.21.32.166.504-.025.12-.173.099-.261.127-.337-.659-.888-1.244-.946-2.013-.05-.63.05-1.281.304-1.86zm18.83 2.448c.326-.078.528-.42.87-.445.053.079.028.172-.032.24-.178.207-.445.299-.68.424-.393.185-.911.316-1.274.001l-.201-.003.13-.085c-.142-.104-.217-.265-.275-.425.448.216.957.448 1.462.293z"/></g><g fill="#fff"><path d="M30.263 1.481c.39-.149.806-.02 1.208-.02.754.073 1.512.161 2.243.366.736.251 1.439.656 2.229.713.594-.072 1.146-.347 1.742-.41.41.005.796.195 1.129.422.74.532 1.24 1.331 1.595 2.158.694 1.665.943 3.477 1.043 5.266-1.376-.644-2.91-.81-4.403-.967-1.554-.145-3.114-.206-4.673-.248-1.648-.022-3.3.13-4.913.477-1.797.4-3.558 1.017-5.15 1.949.127-1.336.354-2.668.767-3.947.306-.918.723-1.833 1.424-2.521.439-.383.863-.796 1.378-1.077.913-.424 1.84-.818 2.75-1.247.52-.343 1.047-.689 1.631-.914zM19.842 14.225c.639-.112 1.277-.234 1.926-.267 4.398.026 8.8.207 13.171.718l.066.1.026-.076a57.14 57.14 0 0 1 6.025.99c.08.003.13.041.153.116.126-.097.287-.003.423.017 1.928.509 3.844 1.056 5.756 1.626.864.274 1.75.507 2.555.938.128.07.302.183.254.356-.01.152-.13.262-.248.341-.547.352-1.165.57-1.774.786-1.523.517-3.079.99-4.687 1.147.034-.097.022-.233.135-.28.203-.108.443-.093.661-.151a35.044 35.044 0 0 0 2.412-.66c.537-.171 1.08-.327 1.598-.554.214-.095.412-.24.521-.453a.612.612 0 0 0-.34-.343c-.42-.2-.88-.302-1.333-.4-3.032-.636-6.075-1.216-9.118-1.8-1.898-.356-3.795-.722-5.7-1.04-2.403-.24-4.796-.57-7.197-.824-.58-.054-1.163-.147-1.746-.083-.646.081-1.292.194-1.91.399-.116.059-.297.093-.338.23.103.113.269.124.41.144.586.041 1.183.032 1.75.197.104.041.276.085.219.233-.167.184-.416.259-.639.35-1.47.545-2.898 1.202-4.3 1.906-.175.082-.333.208-.406.393.09.126.279.168.332.315l.056-.068c.126.063.425.074.378.277-.203.188-.513.155-.723.33-.137.116-.345.226-.322.435.63.035 1.322-.134 1.758-.617.463-.392 1.117-.729 1.724-.47a7.82 7.82 0 0 1 .087 1.703c.257.01.504.093.722.226.564.348.98.874 1.394 1.38.604.687.686 1.648.784 2.517.018 1.123.001 2.247.01 3.37-.011.129.024.284-.073.39-.156.188-.43.156-.649.168-.415-.017-.89.058-1.24-.22-.282-.242-.393-.627-.398-.988-.021-.379-.213-.72-.335-1.07a31.652 31.652 0 0 1-.997-2.886c-.138-.538-.297-1.11-.133-1.66-.506.007-.984-.19-1.442-.385-1.45-.657-2.802-1.52-4.048-2.508-.364-.315-.752-.626-1-1.046-.147-.243.011-.515.162-.711.341-.406.798-.69 1.251-.956.741-.432 1.553-.716 2.36-.998.65-.222 1.315-.401 1.983-.569.003.024.013.072.016.095l.018-.11m1.207 6.99c.723.183 1.387.635 1.74 1.303.069.166.243.245.328.398.013.185-.22.22-.325.329.09.142.295.03.396.16.12.157.116.38.253.532.08.096.201.145.31.204-.014.357.05.736-.086 1.076-.101.086-.225.147-.304.261.06.237.32.3.515.39.024-.5.02-.998.035-1.496a1.5 1.5 0 0 0-.103-.747c-.127-.23-.363-.394-.431-.658-.119-.344-.333-.646-.582-.909-.442-.462-.98-.824-1.55-1.109-.065.09-.134.175-.196.265m.666.92a3.913 3.913 0 0 0-.304 1.86c.058.769.61 1.354.946 2.013.088-.028.236-.008.261-.127.044-.184-.081-.352-.166-.504-.267-.403-.592-.789-.706-1.27-.135-.574-.039-1.171.09-1.737.026-.101.05-.327-.121-.235z"/><path d="M25.294 16.929c.083-.183.275-.28.417-.412 1.663.05 3.323.166 4.981.299 1.855.166 3.712.353 5.54.716.558.095 1.095.28 1.652.38l-.163.086a.795.795 0 0 0 .255-.04c.759.188 1.522.356 2.275.568.583.173 1.19.387 1.616.841.377.383.582.893.755 1.393.085.227.083.474.097.713-.239-.47-.643-.844-1.09-1.111-.181-.132-.376.013-.538.101-.902.532-1.806 1.1-2.515 1.882-.243.278-.46.598-.513.971-.111.696-.013 1.41.163 2.087.279.857.514 1.727.752 2.597.061.25.158.514.056.77-.08.32-.361.602-.707.587-.525-.046-1.017-.263-1.466-.528-.28-.156-.546-.343-.852-.44-.303-.053-.642.002-.912-.176-.19-.184-.322-.42-.507-.609-.066-.057-.152-.039-.23-.03-.13.25-.003.538.186.719.184.174.407.308.647.39.347.102.729.071 1.06.224.574.376 1.161.758 1.83.936.273.053.594.08.823-.108.362-.288.58-.72.696-1.159.051-.189-.004-.381-.05-.563a17.709 17.709 0 0 0-.76-2.277c-.207-.64-.287-1.316-.357-1.984.528.005 1.06-.02 1.586.043.3.074.582.207.86.342.285-.072.585-.156.814-.351.125-.094.083-.28.019-.399a2.967 2.967 0 0 0-.584-.696c-.42.254-.87.507-1.372.524-.347.011-.687.1-1.033.119-.118-.011-.084-.151-.01-.197a1.2 1.2 0 0 1 .368-.27c.513-.241 1.048-.434 1.575-.641.2-.08.362-.266.592-.253.273.021.391.303.563.476.26.275.503.59.852.758l.117-.174c.05.816.136 1.631.177 2.45.065.707.052 1.42.097 2.13.008.323.007.647-.015.97-.03.536-.033 1.082-.195 1.6a17.733 17.733 0 0 1-.85 2.079c-.164.311-.332.625-.563.893-.743-.625-1.493-1.243-2.222-1.884-.104-.082.006-.193.066-.26.227-.19.547-.264.721-.517.074-.095.064-.218.06-.33a2.329 2.329 0 0 0-1.246.325c-.46.19-.967.21-1.455.27a16.79 16.79 0 0 1-2.386.078c-.574-.05-1.158.055-1.722-.092-.244-.07-.525-.06-.727-.233-.167-.12-.331-.244-.52-.326-.15-.065-.344-.021-.452-.172.563-.579 1.17-1.113 1.773-1.65.237-.222.645-.381.581-.777-.114-.064-.266-.097-.37.007-.795.674-1.569 1.375-2.356 2.058-.248.244-.222.617-.237.936-.009.209.1.39.164.583.007.195-.012.391-.01.588.01.237-.119.445-.21.655.236-.19.503-.333.749-.507.13-.338-.112-.671-.255-.967-.079-.101.01-.248.125-.268.314-.109.598.117.843.283.385.295.75.623 1.065.993.002-.155.006-.309.014-.462.383.026.654.343.956.546.03.205.02.42.092.617.447.54 1.167.776 1.851.78.25.014.47-.126.71-.17.319-.056.663-.14.978-.014.307.095.517.367.66.641-.551.67-1.456.867-2.281.911-.545.035-1.084-.05-1.623-.11.033.065.063.143.143.163.432.159.9.13 1.35.162.658.006 1.344-.006 1.955-.277.253-.113.486-.282.616-.532.43.337.826.718 1.244 1.072-.246.333-.343.743-.563 1.091-.45.784-1.151 1.456-2.024 1.734-.265.069-.523-.032-.765-.124a4.32 4.32 0 0 1-3.01.088c-1.133-.362-2.06-1.163-2.826-2.05.511 1.063 1.39 2.021 2.543 2.376-.596.251-1.318.229-1.874-.11-.491-.283-1.053-.477-1.625-.455-.341-.007-.628.198-.953.266-1.684-1-3.235-2.303-4.282-3.976-.6-.965-1.015-2.065-1.077-3.207-.01-.248-.133-.47-.2-.705-.115-.397-.222-.813-.156-1.227.043-.229.24-.377.444-.458.119-.024.22.082.205.199.027.72.167 1.43.33 2.13.263.713.6 1.397.986 2.049.34.567.74 1.109 1.26 1.522.172.122.363.293.592.238.125-.045.109-.208.123-.314-.021-.441-.22-.857-.475-1.208-.346-.495-.675-1-1.018-1.495-.236-.358-.55-.676-.666-1.1-.198-.51.015-1.08-.228-1.58-.06-.24-.338-.376-.329-.635.02-.332.113-.652.214-.966.194-.686.078-1.412-.106-2.087.413.005.827.007 1.24-.001a.515.515 0 0 0 .03-.601c-.295-.438-.709-.794-.944-1.272-.08-.273.217-.397.391-.528a.6.6 0 0 0-.266-.676c-.221-.173.14-.383.023-.596-.032-.182-.3-.251-.268-.444.123-.033.257-.032.373-.086.209-.311.086-.716.173-1.061.072-.229.227-.493.5-.489.12-.012.347-.064.303-.227-.331-.134-.672.078-1.003.028-.178-.091-.018-.259.085-.337.242-.23.647-.016.894-.223a6.159 6.159 0 0 1-.094-.09c-.01-.046-.027-.14-.036-.187l-.075.117a2.225 2.225 0 0 0-.648-.233c.139-.261.346-.47.55-.68.107-.098.138-.32-.022-.38-.17-.121-.462-.139-.51-.376m6.186 3.957a7.069 7.069 0 0 0-2.038 1.009 2.056 2.056 0 0 0-.588.643c-.078.144-.093.39.094.454.25.064.54.024.738-.152.33-.288.744-.455 1.16-.579.31-.085.626-.176.951-.176.572-.01 1.131.128 1.68.272.255.058.502.192.647.415.042.108-.08.173-.15.225-.63.418-1.412.472-2.146.46-.202-.025-.44-.002-.591-.166.305-.363.835-.335 1.216-.553-.625-.065-1.271-.081-1.884.081-.398.1-.795.356-.9.777.047.138.114.279.262.332.46.213.984.207 1.481.236.536.038 1.03-.219 1.559-.251.329-.045.646.163.84.416-.057.063-.022.138.01.204-.606.3-1.294.356-1.945.5-.118.02-.127.14-.134.237.906-.01 1.914-.093 2.618-.73.236-.191.346-.482.47-.748.184-.279.486-.444.762-.616.16-.201-.035-.393-.15-.552.111-.16.3-.19.48-.213.315-.261.22-.856-.175-.992-.932-.277-1.873-.55-2.843-.655-.477-.032-.964-.025-1.424.122m9.066 3.696c-.505.155-1.014-.077-1.462-.293.058.16.133.321.275.425a5.655 5.655 0 0 0-.13.085l.2.003c.364.315.882.184 1.274 0 .236-.126.503-.218.681-.426.06-.067.085-.16.032-.239-.342.026-.544.367-.87.445z"/><path d="M34.017 31.317a.334.334 0 0 1 .246-.101c.28-.008.555.056.833.074.51.02.983.267 1.494.27.376-.048.728-.204 1.1-.273.265-.07.549.197.464.469-.36.201-.78.229-1.182.272-.642.064-1.29.005-1.924-.102-.284-.057-.577-.112-.83-.259-.113-.076-.225-.206-.201-.35zM22.9 31.296a20.652 20.652 0 0 0 1.77 3.323c.664.992 1.422 1.934 2.357 2.683.62.498 1.335.89 2.116 1.062.139.224.028.473-.106.668-.152.227-.115.507-.03.75.204.566.215 1.202.045 1.777a5.463 5.463 0 0 0-.559.479c-.197.19-.257.469-.346.72-.066.232-.167.496-.057.731.228.128.505.078.748.166.039.083.087.164.109.256.009 1.969.246 3.93.263 5.9-.01.577-.203 1.18.01 1.743.035.132.207.157.294.058.326-.26.503-.677.872-.887.325-.135.507.262.6.506.176.434-.155.875-.008 1.31.173.678.363 1.353.506 2.04-1.14.003-2.28-.027-3.42-.06.018-.456.12-.903.189-1.352.194-1.11.39-2.22.593-3.327.05-.377-.003-.755 0-1.133-.036-1.278-.08-2.56-.242-3.83-.051-.272-.15-.568-.372-.746-.355-.08-.883.075-.91.504l-.179.034h.117c.06.531.245 1.04.431 1.538.134.37.35.706.451 1.089.148.512.3 1.024.404 1.547.051.41.03.882-.268 1.2-.218.195-.494.304-.745.446.234.068.52.113.64.356.14.333.025.698-.03 1.036-.089.305-.122.66-.357.894-.127-.228-.146-.492-.235-.734a4.013 4.013 0 0 0-.457-.81c-.117.216-.14.464-.16.706-.103.63-.22 1.258-.344 1.884-.056.228-.007.463.013.693l-.559-.002c-.388-2.905-.785-5.81-1.17-8.715-.22-2.661-.395-5.331-.832-7.968-.075-.517-.254-1.01-.38-1.515-.377-1.651-.584-3.337-.762-5.02zm11.798 1.052c.049-.071.09-.216.206-.176.414.053.808.22 1.226.248.392-.023.787-.026 1.18-.042.038.176.058.357.056.539-.457.139-.946.202-1.418.119a4.937 4.937 0 0 1-1.106-.448c-.1-.036-.101-.16-.144-.24zm8.01 3c.18-.256.49-.41.8-.417.273.078.52.255.674.495.183.336.025.717-.096 1.046-.483.277-1.139.299-1.575-.08-.07-.354-.041-.756.197-1.044z"/><path d="M31.293 38.821c.128-.041.276.06.342.167-.014.193-.176.326-.288.468a1.603 1.603 0 0 0-.39.708c-.088.292-.052.601-.097.9-.075.998-.163 1.994-.234 2.991-.013.178-.14.324-.266.44-.149.105-.309-.042-.342-.188-.201-.612-.172-1.284-.011-1.902.046-.21.167-.405.154-.625-.028-.79.083-1.598.402-2.324.125-.316.42-.524.73-.635z"/><path d="M32.17 39.757c.287-.258.654-.464 1.05-.453a5.322 5.322 0 0 1 2.36.504c.064.043.165.06.19.145-.543 2.03-1.106 4.055-1.65 6.085-.798-.275-1.49-.884-1.813-1.67-.302-.686-.161-1.516-.624-2.14-.161-.253-.473-.355-.76-.3.274-.79.628-1.59 1.247-2.17zm-1.128 2.997l.035-.051c.262.07.359.359.467.577.115.288.34.57.263.897a.381.381 0 0 1-.203.114c-.151-.016-.206-.185-.27-.3-.167-.388-.402-.8-.292-1.237z"/></g><path d="M29.004 56.042c.035-.06.073-.118.104-.18a5.78 5.78 0 0 0 .463-1.348c.017-.078.026-.157.04-.235l-.037.007c-.293-.007-.592-.075-.88-.02-.069.013-.05.13-.064.2-.025.125-.037.253-.053.38-.03.262-.054.548-.076.81l-.021.316c-.01.078 1.1.215 1.11.136l.075-.342c.019-.143.045-.284.057-.427a4.467 4.467 0 0 0-.005-.881c-.015-.125.039-.306-.069-.372-.273-.166-.61-.214-.929-.235-.07-.005-.09.109-.135.164-.034.076-.074.151-.104.23-.192.49-.287 1.011-.41 1.52-.02.067.915.343.934.277z"/><path d="M29.796 57.582c.162-.4.303-.81.41-1.228-.352.404.117-.048-.94-.108-.073-.004-.063.132-.09.2a6.638 6.638 0 0 0-.245.794l-.04.144c-.02.07.005-.023.037-.03.18-.04.365-.103.547-.076.074.01.143.139.186.216.004-.011.01-.022.013-.034.014-.08.018-.163.026-.244.016-.176.032-.35.044-.527.018-.479-.024-.366-.973-.166-.063.013-.046.12-.065.18-.047.146-.103.367-.142.516.254-.313-.134.292-.047.266.212-.062.396-.242.618-.242.121 0 .157.2.27.244.04.016.027-.082.039-.124l.053-.193c.152-.538.406-1.036.634-1.544.086-.21.182-.42.22-.644.014-.08.01-.13.01-.214-.003-.021-.004-.086-.01-.065-.02.076-.018.155-.033.231-.003.02-.04.055-.02.057.004.001.118-.123.155-.158.072-.083.13-.177.2-.263.008-.011.042-.03.028-.034-.955-.207-.586.03-.93-.212-.305.447-.574.92-.785 1.42-.109.257-.117.175-.088.311.288.04.573.112.864.117.054.002.102-.052.13-.098.07-.115.108-.247.158-.372.164-.409.303-.825.436-1.245-.041-.14.122-.285.098-.43-.003-.02-.029.033-.047.03-.296-.053-.58-.193-.881-.196-.072-.001-.082.118-.116.182-.065.128-.12.26-.18.39a8.42 8.42 0 0 0-.488 1.386c-.018.075-.094.174-.038.227.046.043.072-.14.135-.134.283.024.55.144.824.217.035-.07.073-.138.104-.209.05-.113.09-.23.138-.345.199-.48.41-.954.653-1.412.038-.062.112-.202.182-.263.004-.004.012.007.009.011-.023.025-.045.066-.08.066-.35.006-.31.005-.465-.168-.016-.012-.036-.05-.048-.034-.033.04-.032.097-.047.146-.028.093-.053.187-.081.28-.131.434-.263.868-.39 1.303a12.348 12.348 0 0 0-.326 1.637c.212-.29-.117.139.936.09.065-.002.063-.112.091-.17.186-.382.348-.777.515-1.168.166-.44.352-.875.434-1.34.009-.053.057-.156.004-.16-.593-.045-.659 0-1.005.153a17.81 17.81 0 0 0-.364 1.547c-.034.17-.063.341-.1.51-.028.128-.139.571-.18.732-.012.049-.063.102-.039.146.018.032.037-.086.074-.084.14.009.72.296.846.067.046-.084.072-.178.108-.267l.142-.346c.049-.122.099-.243.145-.365.038-.098.074-.198.109-.297.02-.059.12-.168.058-.176-.076-.01-.086.167-.162.162-.882-.062-.613-.511-.819-.03-.198.609-.4 1.218-.635 1.814.142-.156.125-.147.577-.119.072.005.095.156.166.14.056-.013-.007-.116-.014-.174-.012-.097-.088-.577-.098-.645-.054-.337-.096-.677-.165-1.011-.01-.055-.015-.114-.04-.163-.007-.012-.024.012-.036.012-.317.013-.635.017-.952.026-.027.079-.059.157-.082.237-.093.317-.127.512-.193.842-.07.348-.134.697-.19 1.047.188-.173.077-.078.704-.136.038-.004.082.073.106.043.039-.05.005-.126.007-.188.005-.204.004-.308.005-.511-.003-.063.001-.126-.007-.188-.002-.017-.007-.047-.023-.044-.283.047-.555.153-.84.189-.036.005-.052-.094-.08-.073-.018.013-.005.294-.005.297.105.494.244.6.928.47.109-.02.145-.166.208-.257.089-.13.128-.248.185-.39.113-.492-.004-.363-.869-.512-.04-.006-.043.07-.065.105-.053.082-.035.056-.085.121-.007.003-.018.016-.02.009 0-.013.008-.025.016-.035.102-.122.17-.09.377-.073.061.005.068.023.084.055l-.035-.03c-.043-.05-.755.558-.712.608l.05.047c.069.061.178.17.267.185.383.068.583-.02.812-.295.062-.095.08-.114.126-.215.008-.017.035-.046.018-.055a9.164 9.164 0 0 0-.843-.367c-.013-.005-.023.015-.03.026-.021.03-.036.063-.053.094-.006.013-.116.255-.113.283.002.02.04-.017.06-.013.218.04.445.062.651.147.047.02.018.106.05.145.018.02.003-.054.005-.08-.003-.063 0-.126-.007-.188-.008-.086-.073-.495-.147-.508-.49-.083-.844-.093-.947.287-.02.078-.026.158-.039.237-.009.266-.024.365.015.635.015.109.028.22.067.323.054.137.07.34.208.39.687.249.723.093 1.007-.243.047-.096.102-.189.14-.29.11-.29.168-.586.215-.892.046-.306.073-.602.066-.91-.002-.103-.018-.204-.027-.305-.315-.06-.625-.165-.946-.176-.05-.002-.044.091-.056.14a1.172 1.172 0 0 0-.03.22c-.017.382.047.764.13 1.136.08.283.11.43.218.695.034.083.067.167.115.242.073.116.116.288.247.328.498.15.58.016.839-.21.052-.067.11-.13.158-.203.282-.435.481-1.026.58-1.531.027-.139.04-.28.06-.42-.006-.543.096-.648-.76-.9-.117-.034-.208.13-.296.213-.066.061-.113.14-.16.217-.175.29-.203.414-.327.741-.082.31-.157.515-.165.835-.004.128-.069.301.03.383.534.445.721.497 1.044.148.065-.07.112-.156.168-.234.058-.117.123-.231.173-.352.062-.155.113-.315.161-.475a7.43 7.43 0 0 0 .319-1.757c.009-.169 0-.339 0-.509-.154-.706.019-.714-1.053-.53-.083.013-.111.128-.152.203-.06.112-.102.233-.148.352-.057.148-.106.297-.16.446l-.178.462c-.158.44-.318.876-.385 1.341-.015.102-.105.245-.023.307.254.195.581.277.89.358.042.01.047-.07.07-.106.087-.152.157-.308.223-.47.155-.383.287-.774.39-1.174.11-.47.229-.94.278-1.42.015-.145.031-.475.01-.633-.013-.098-.044-.193-.067-.29-.055-.079-.082-.19-.167-.237a1.206 1.206 0 0 0-.49-.13c-.2-.017-.53.23-.66.361-.074.075-.137.16-.206.24-.073.109-.153.213-.22.325a4.813 4.813 0 0 0-.634 1.728c-.018.121-.02.245-.03.367.27.176.5.432.806.528.1.03.17-.124.24-.201.151-.167.27-.45.347-.645.169-.423.205-.596.328-1.036.026-.152.059-.303.077-.455.014-.112.105-.264.019-.336-.831-.695-.918-.414-1.235.174-.192.437-.36.846-.47 1.315a3.165 3.165 0 0 0-.08.442c-.013.152-.118.361 0 .457.241.196.596.18.893.269.056-.048.12-.089.168-.144.131-.148.303-.451.387-.61a5.08 5.08 0 0 0 .477-1.22c.008-.143.136-.34.024-.426-.72-.558-.812-.271-1.1.112-.035.05-.145.202-.161.26-.023.082-.024.167-.043.25-.002.012-.004-.025-.006-.038 0-.022.008-.046.001-.068 0 0-.015.013-.045.062-.093.147-.178.3-.266.45-.147.274-.297.549-.414.837a4.94 4.94 0 0 0-.276.967c-.01.1-.028.2-.03.3-.003.226.05.682.324.752.359.092.663-.115.8-.39.037-.076.06-.16.09-.24.067-.265.095-.331.118-.604.007-.09.087-.23.006-.27-.887-.455-.924-.458-1.02.032-.045.35-.052.704.008 1.052.038.132.086.362.245.402.437.11.672-.02.87-.336.04-.064.07-.134.105-.2.115-.286.222-.574.269-.88.015-.103.093-.234.024-.31a1.933 1.933 0 0 0-.787-.529c-.088-.03-.133.127-.2.191-.036.058-.076.113-.106.173-.198.392-.283.838-.308 1.272-.01.067.934.21.944.144z"/><path d="M44.299 4.24l-.437 1.082a29.455 29.455 0 0 1 18.1 27.178 29.455 29.455 0 0 1-10.166 22.26h1.608a30.54 30.54 0 0 0 9.701-22.325A30.54 30.54 0 0 0 44.299 4.24zm-23.513.018A30.54 30.54 0 0 0 2.024 32.435a30.54 30.54 0 0 0 9.7 22.325h1.495A29.455 29.455 0 0 1 3.052 32.5 29.455 29.455 0 0 1 21.206 5.3z" fill="red" fill-rule="evenodd"/><g transform="translate(-7.884 -3.742)"><rect width="63.727" height="11.792" x="8.789" y="47.552" ry="5.896" fill="red"/><g style="line-height:1.25;-inkscape-font-specification:'Kaushan Script'"><path style="-inkscape-font-specification:Broadway" d="M15.822 49.092l-.032 4.505.032 3.824q.33.045.546.045.623 0 1.277-.223.655-.222 1.157-.603.324-.248.667-.66.35-.414.559-.808.12-.228.26-.228.21 0 .21.178 0 .19-.318.648-.311.45-.686.813-.813.781-1.912 1.086-.66.184-1.27.184-.89 0-1.786-.38-1.436-.604-2.185-1.913-.623-1.086-.623-2.306 0-1.245.648-2.35.692-1.176 1.957-1.799.921-.445 1.988-.445 1.83 0 3.164 1.24.635.59.635.85 0 .07-.063.128-.064.057-.14.057-.127 0-.305-.248-.546-.756-1.442-1.194-.896-.445-1.893-.445-.235 0-.445.044zm9.72-.692l5.083 9.193h-4.403l-.603-1.163h-2.135l-1.88-.006-.318-.007-.42.776q-.184.349-.26.432-.07.089-.178.089-.216 0-.216-.191 0-.083.12-.305.128-.229.871-1.487l3.844-6.473zm-1.976 4.161l-1.111 1.874-.89 1.544 1.906.026 1.912-.02zm11.519 3.475v.178l.006 1.22v.159h-3.875l.006-.388.032-4.466-.026-2.122-.006-1.442-.006-.254h2.903q1.779 0 2.694.152.92.153 1.543.547.839.527 1.296 1.467.35.718.35 1.506 0 .851-.394 1.626-.47.928-1.334 1.43-.858.495-1.989.495-.419 0-1.2-.108zm.006-6.683v.426l-.025 4.243.012 1.582q.502.134 1.303.134.718 0 1.36-.286.64-.286 1.086-.807.756-.883.756-2.052 0-1.112-.75-2.014-.534-.642-1.379-.934-.845-.292-2.172-.292zm10.254-.693q1.004 0 1.938.426 1.372.63 2.096 1.938.578 1.048.578 2.28 0 .992-.438 1.92-.655 1.384-2.04 2.102-1.016.527-2.134.527-1.182 0-2.236-.597-1.404-.788-2.002-2.21-.368-.871-.368-1.799 0-1.162.578-2.217.712-1.296 2.077-1.938.909-.425 1.95-.432zm-.502.426l-.038 4.136.032 3.437.006.775q.216.038.413.038 1.404 0 2.51-.775 1.01-.711 1.46-1.83.318-.781.318-1.62 0-1.105-.533-2.058-.655-1.169-1.843-1.722-.89-.419-1.874-.419-.229 0-.451.038zm13.932 4.054v-1.062l-.012-1.683-.007-.769-.006-.483q0-.343.235-.343.14 0 .19.083.058.076.058.298v.09q-.007.133-.007.438l-.025 2.14-.02 1.964.02 2.065.025 2.07q-1.308-.819-3.83-2.261-2.523-1.449-4.086-2.274l.007.31.063 3.28.007.437q0 .274-.254.274-.26 0-.26-.337l.006-.445.006-.718.025-3.259-.05-4.39q2.572 1.595 7.915 4.574zm5.655-1.436q-.013.292-.013.711v.381l.044 4.384 2.154-.025 1.525-.02q.374 0 .374.23 0 .19-.19.215-.045.007-.527.013H60.58l.006-.33.006-2.122.026-2.275-.051-3.945H67.3q.451 0 .515.019.146.038.146.216 0 .222-.28.222h-.044l-3.183-.044-.025 1.97.692.006 2.224-.038.489-.007q.267 0 .35.045.088.044.088.178 0 .247-.42.247l-.501-.012z" aria-label="CAPONE" font-size="13.011" font-family="Broadway" fill="#fff" font-weight="400"/></g><g style="line-height:1.25;-inkscape-font-specification:'Kaushan Script'"><path style="-inkscape-font-specification:'Leelawadee UI'" d="M31.786 63.934v1.979h-.614v-5.237h1.439q.84 0 1.3.409.464.41.464 1.154 0 .745-.515 1.22-.511.475-1.384.475zm0-2.703v2.148h.642q.636 0 .968-.289.336-.292.336-.822 0-1.037-1.227-1.037zm4.192 4.682h-.613v-5.237h.613zm4.792-5.091l-3.068 4.536h2.995v.555h-3.912v-.172l3.042-4.51H37.03v-.555h3.74zm4.265 0l-3.068 4.536h2.995v.555h-3.911v-.172l3.042-4.51h-2.798v-.555h3.74zm4.901 5.091h-.68l-.554-1.468h-2.22l-.523 1.468h-.683l2.009-5.237h.635zm-1.435-2.02l-.822-2.231q-.04-.11-.08-.35h-.015q-.036.222-.084.35l-.814 2.231z" aria-label="PIZZA" font-size="7.479" font-family="Leelawadee UI" fill="#fff" font-weight="400"/></g></g></svg>