<svg xmlns="http://www.w3.org/2000/svg" viewBox="0 0 47.625 10.583" height="40" width="180"><g transform="matrix(.81738 0 0 .82072 -52.915 -146.299)"><rect ry="5.896" y="178.901" x="64.86" height="11.792" width="58.014" fill="red"/><text y="188.344" x="67.313" style="line-height:1.25;-inkscape-font-specification:'Kaushan Script'" font-size="10.583" font-family="Kaushan Script" fill="#fff" stroke-width=".325"><tspan style="-inkscape-font-specification:Broadway" y="188.344" x="67.313" font-weight="400" font-family="Broadway">CAP</tspan></text><text y="188.225" x="103.722" style="line-height:1.25;-inkscape-font-specification:'Kaushan Script'" font-size="10.583" font-family="Kaushan Script" stroke-width=".265"><tspan style="-inkscape-font-specification:Broadway" y="188.225" x="103.722" font-weight="400" font-family="Broadway" fill="#fff">NE</tspan></text><circle cx="97.562" cy="184.774" r="5.722" fill="#280b0b" fill-rule="evenodd"/><g fill="#fff"><path d="M96.368 179.936c.275-.1.498-.304.776-.394a3.24 3.24 0 0 1 .696.064c.27.04.504.195.772.24.196-.003.376-.106.573-.111.3.068.51.323.642.586.244.486.306 1.037.352 1.571-.677-.28-1.425-.28-2.146-.321-1.076-.065-2.19.117-3.135.657.076-.545.15-1.118.453-1.59.237-.357.632-.549 1.017-.702zm-1.903 3.087c.357-.059.721-.029 1.082-.018 1.341.027 2.685.123 4.007.36.68.119 1.339.324 2 .513.362.112.738.195 1.062.398-.162.23-.453.285-.7.38-.4.123-.807.267-1.23.268a.703.703 0 0 1 .224-.101 9.27 9.27 0 0 0 1.062-.306.75.75 0 0 0 .262-.18c-.267-.172-.59-.2-.894-.268a152.22 152.22 0 0 0-3.625-.69c-.785-.083-1.568-.197-2.354-.263-.276.01-.576.033-.81.195.24.038.49.026.723.11-.489.297-1.083.406-1.539.764.088.04.175.08.263.118-.13.065-.258.135-.36.24.402.082.609-.388 1-.331.023.158.036.316.038.475.475.173.802.667.79 1.171-.01.345.038.698-.027 1.038a.844.844 0 0 1-.462-.006c-.152-.073-.139-.262-.184-.401-.145-.474-.4-.93-.398-1.437-.366-.07-.69-.265-1.001-.458-.298-.197-.612-.396-.81-.703.176-.278.48-.431.774-.551a5.4 5.4 0 0 1 1.107-.317m.092 1.958c.251.076.427.27.57.48l-.087.097.091.032c.053.081.108.162.167.239a.53.53 0 0 1-.106.365l.143.09c.004-.18.011-.362.002-.542a1.433 1.433 0 0 0-.73-.838 5.29 5.29 0 0 1-.05.077m.455 1.362c-.035-.206-.193-.356-.26-.549-.044-.198.017-.4.022-.598-.238.368-.122.904.238 1.147z"/><path d="M95.695 183.808c.169-.17.418-.085.629-.09.999.063 2.009.124 2.977.395.29.079.598.119.862.268.234.14.316.416.382.662a4.112 4.112 0 0 0-.352-.322c-.348.196-.747.398-.933.77-.127.479.15.935.24 1.396a.267.267 0 0 1-.127.341c-.31.02-.533-.251-.831-.286-.15-.02-.227-.166-.345-.242-.017.203.155.348.347.362.282.033.48.284.764.312.159.027.265-.124.32-.25.096-.185-.02-.384-.067-.566a3.08 3.08 0 0 1-.223-.87c.264-.015.53.01.772.128-.184.15-.415.11-.617.025.093.129.24.25.407.165.2-.032.274-.225.373-.374a10.03 10.03 0 0 0-.168-.236c-.227.132-.49.174-.749.17.227-.191.521-.255.782-.381.122.136.246.274.403.372.043.567.105 1.138.053 1.708-.063.363-.225.705-.422 1.014-.215-.18-.43-.362-.643-.545.11-.087.237-.165.295-.3-.24.027-.453.16-.696.174-.365.04-.733.031-1.1.02-.217-.001-.394-.138-.585-.22.221-.241.524-.409.695-.692-.296.065-.473.348-.71.519-.29.193-.028.56-.137.832l.202-.157a5.023 5.023 0 0 1-.1-.347c.238.03.403.21.56.373l.018-.14c.086.055.172.111.256.17l.018.185c.11.079.222.162.358.187.215.062.43-.104.645-.031.064.05.125.105.183.165-.3.307-.749.245-1.136.24.382.099.863.15 1.181-.134.103.095.208.188.315.28-.16.37-.454.856-.926.764-.248.057-.508.106-.756.025-.343-.087-.61-.331-.844-.583.139.31.403.537.704.684-.187.02-.383.028-.548-.077a.745.745 0 0 0-.68-.042c-.637-.37-1.233-.926-1.426-1.66-.039-.262-.116-.515-.157-.775-.02-.113.095-.162.165-.22.033.553.23 1.094.59 1.519.086.099.199.168.309.238.013-.098.042-.202-.008-.293-.13-.262-.322-.486-.48-.73-.164-.225-.048-.54-.235-.76.083-.273.124-.56.046-.839.12-.004.242 0 .36-.021.008-.218-.216-.352-.31-.533l.154-.133c-.065-.132-.095-.276-.13-.418.126-.097.103-.263.144-.399.06-.071.156-.098.232-.149-.125-.004-.25-.002-.375-.007.097-.093.23-.114.355-.144l-.255-.117.2-.234-.225-.146m1.605 1.133c-.245.103-.516.228-.633.483.104.146.255.005.368-.051.304-.19.693-.168 1.017-.042a.15.15 0 0 1 .107.125c-.244.165-.554.169-.833.118.117-.068.244-.12.366-.179-.28-.006-.667-.035-.792.286a.907.907 0 0 0 .377.116c.287.051.618-.197.845.077-.212.112-.462.112-.674.221.21.019.429.003.622-.088.2-.087.264-.319.432-.448.066-.049.082-.114.047-.196.086-.04.174-.09.16-.202-.048-.128-.194-.138-.306-.177-.356-.096-.749-.198-1.103-.043z"/><path d="M98.094 187.75c.217-.017.429.033.64.07.198.041.406-.123.586.017-.202.155-.472.14-.713.125-.183-.026-.413-.024-.513-.212zm.236.26c.243.047.489.075.738.062-.014.25-.345.188-.514.139-.08-.048-.276-.068-.225-.2zm2.273.796c.146-.124.39.065.34.239.005.184-.22.237-.36.186-.213-.037-.133-.353.02-.425z"/></g></g></svg>