<svg xmlns="http://www.w3.org/2000/svg" viewBox="0 0 95.484 35.051" height="132.475" width="360.886"><g fill="#fff"><path d="M18.374 0h.127c-.458 2.515-1.414 4.928-2.914 7.01 2.343-1.097 4.336-2.794 6.036-4.724-.363 2.279-1.39 4.364-2.586 6.315-3.051-2.113-7.902-.89-9.324 2.603-.966 2.41.057 4.946 1.052 7.158-2.96-2.78-3.796-8.06-.854-11.144C12.501 4.537 16.303 3.23 18.374 0z"/><path d="M.996 15.91c1.676-3.309 4.516-5.958 7.677-7.838-1.358 1.35-2.854 2.6-3.835 4.279-1.74 2.515-2.501 5.93-1.118 8.78 1.548 3.553 5.037 5.715 8.548 6.996-2.833-.318-5.486-1.743-7.553-3.669-1.411-1.295-2.156-3.083-2.943-4.784.378 4.1 3.687 7.222 7.18 8.993 6.826 3.386 14.83 3.351 22.14 1.778 8.872-1.958 16.965-6.371 25.802-8.435 6.269-1.489 12.841-1.969 19.205-.812 7.303 1.277 14.16 4.886 19.385 10.143v.324c-1.432-.935-3.04-1.552-4.603-2.23-5.172-2.186-10.686-3.696-16.32-3.897-4.484-.198-8.957.448-13.317 1.453-5.708 1.32-11.317 3.013-16.955 4.597-5.186 1.464-10.428 2.907-15.825 3.302-5.888.476-11.956-.057-17.484-2.24-3.916-1.57-7.712-4.068-9.765-7.857-1.517-2.702-1.64-6.117-.219-8.883z"/><path d="M10.281 12.361c.494-2.751 3.567-4.25 6.16-3.986 2.078.17 3.895 1.697 4.505 3.676.47 1.573.875 3.217 1.901 4.54.681 1.066 2.032 1.228 3.108 1.683a51.64 51.64 0 0 1-1.016.776c-.444-.473-.889-.942-1.34-1.408-1.764.79-3.637-.335-4.734-1.707-1.048-1.09-1.754-2.61-3.154-3.298-2.053-.847-4.431 1.499-3.517 3.559.222.233.352 1.478.783.903.592-1.016 1.753-2.018 2.995-1.422 1.323.755 2.286 2.029 3.665 2.717 1.443.832 3.154.769 4.763.889-1.987.755-4.24.3-6.026-.759-.86-.5-1.623-1.252-2.642-1.414-1.016-.201-2.145.518-2.276 1.57.46 1.375 1.877 2.039 2.992 2.811 1.087.632 1.947 1.552 2.759 2.494-1.845-1.735-4.287-2.642-6.107-4.406-2-1.764-3.154-4.558-2.819-7.218m8.072-.416c.279.656.59 1.302.9 1.944.31-.078.927-.233 1.238-.307-.65-.624-1.323-1.242-2.138-1.637zM5.78 15.896c.106-.783.06-1.68.628-2.303.014 2.808.571 5.845 2.692 7.863 1.361 1.38 3.235 1.968 4.974 2.692-2.237.077-4.502-.724-6.21-2.166C6.148 20.5 5.58 18.083 5.78 15.896z"/></g><g style="line-height:1.25;-inkscape-font-specification:'Century Gothic Bold'"><path style="-inkscape-font-specification:'Century Gothic'" d="M30.308 17.895V10.8h1.471q1.592 0 2.31.256 1.032.362 1.611 1.254.584.892.584 2.127 0 1.066-.463 1.876-.458.81-1.196 1.196-.733.386-2.06.386zm.68-.67h.82q1.471 0 2.04-.183.8-.26 1.259-.936.458-.68.458-1.66 0-1.027-.497-1.755-.496-.728-1.384-.998-.665-.203-2.194-.203h-.502zM41.897 10.8h4.065v.7h-3.356v2.218h3.328v.695h-3.328v2.783h3.328v.7h-4.037zm8.8 5.774l.603-.362q.637 1.172 1.471 1.172.357 0 .67-.164.314-.169.478-.449.164-.28.164-.593 0-.357-.24-.7-.334-.472-1.216-1.137-.888-.67-1.105-.97-.376-.501-.376-1.085 0-.463.222-.844.222-.381.622-.598.405-.222.878-.222.501 0 .936.25.438.247.926.912l-.58.44q-.4-.531-.684-.7-.28-.169-.613-.169-.429 0-.704.26-.27.261-.27.642 0 .232.097.449.096.217.352.472.14.135.916.71.921.68 1.264 1.21.342.53.342 1.066 0 .771-.588 1.34-.584.57-1.423.57-.646 0-1.172-.343-.526-.347-.97-1.157zm9.785-5.774h.71v7.095h-.71zm13.417 1.192l-.55.52q-.593-.583-1.302-.882-.705-.304-1.375-.304-.834 0-1.592.41-.752.41-1.167 1.114-.415.7-.415 1.481 0 .8.43 1.524.429.719 1.186 1.134.757.41 1.66.41 1.094 0 1.851-.618.758-.617.898-1.601H71.26v-.685h3.058q-.01 1.645-.979 2.614-.964.965-2.585.965-1.968 0-3.116-1.341-.882-1.032-.882-2.388 0-1.008.506-1.876.507-.868 1.39-1.355.882-.492 1.996-.492.902 0 1.698.328.796.323 1.553 1.042zm6.018 5.903V10.8h.154l4.717 5.431v-5.43h.7v7.094h-.16l-4.678-5.363v5.363z" aria-label="DESIGN" font-weight="400" font-size="28" font-family="Century Gothic" letter-spacing="12" fill="#f2f2f2"/></g></svg>