<svg xmlns="http://www.w3.org/2000/svg" viewBox="0 0 21.167 21.167" height="80" width="80"><g fill="#f63"><path d="M4.077.2c.126.105.247.219.336.36C6.257 3.473 8.11 6.38 9.968 9.284c.128.232.346.516.133.769-.34.576-.679 1.159-1.1 1.677-.385-.356-.631-.826-.918-1.259-1.478-2.37-2.785-4.875-3.616-7.55-.268-.88-.438-1.798-.39-2.721z"/><path d="M16.557.427c.058-.055.172-.168.23-.224.129.862-.141 1.712-.325 2.546-.517 1.796-1.328 3.492-2.176 5.152-.67 1.238-1.368 2.464-2.19 3.609a2.812 2.812 0 0 0-.322.576c.27.548.537 1.221 1.161 1.442 1.358.61 2.702 1.253 4.053 1.88a3.222 3.222 0 0 1 1.72 2.19c.186 1.244-.5 2.576-1.644 3.113-1.357.664-3.162.127-3.858-1.233-.67-1.508-1.44-2.969-2.205-4.432-.18-.346-.322-.716-.578-1.015a82.638 82.638 0 0 0-2.72 5.379c-.48.983-1.563 1.622-2.655 1.58-1.098.05-2.128-.683-2.593-1.652-.58-1.31-.153-3.035 1.132-3.762 1.16-.6 2.365-1.11 3.54-1.681.41-.21.881-.32 1.247-.605.476-.582.784-1.277 1.183-1.912 2.37-3.624 4.663-7.304 7-10.95m-6.34 11.18c-.197.191-.09.439.101.581.54.1.403-.904-.101-.58m-5.54 4.243c-1.136.316-1.804 1.674-1.339 2.765.394.934 1.506 1.471 2.481 1.159 1.125-.312 1.8-1.741 1.256-2.79-.405-.88-1.455-1.398-2.397-1.134m10.456-.004c-.61.197-1.165.651-1.374 1.273-.498 1.175.447 2.694 1.737 2.728 1.18.168 2.28-.944 2.184-2.112 0-1.25-1.35-2.236-2.547-1.89z"/></g></svg>