<svg xmlns="http://www.w3.org/2000/svg" viewBox="0 0 21.167 21.167" height="80" width="80"><path d="M6.221 1.77C7.138 1.229 8.067.71 8.984.166c1.726 2.382 3.453 4.762 5.13 7.18-.573.363-1.176.677-1.751 1.037 1.347 2.308 2.672 4.629 4.015 6.94.21.351.36.748.678 1.024-.306.243-.646.44-1.003.595-.09-.41-.345-.747-.55-1.102-1.338-2.321-2.68-4.64-4.017-6.96-.541.31-1.084.619-1.62.938-.69-1.418-1.303-2.872-1.968-4.302-.547-1.252-1.156-2.478-1.677-3.744zM5.08 9.914a84.288 84.288 0 0 1 4.849.001c.672 1.686 1.37 3.361 2.086 5.028a534.81 534.81 0 0 1-9.02 0 217.112 217.112 0 0 0 2.085-5.03zm-2.217 5.387c3.095-.008 6.19-.008 9.285 0 .012 1.238.002 2.477.005 3.714H2.856c.003-1.237-.007-2.476.007-3.714zm13.387 2.035c.234-.319.682-.436 1.003-.669a44.96 44.96 0 0 1 1.628 1.986c-.58.35-1.171.682-1.756 1.025-.286-.783-.624-1.547-.876-2.342zM2.883 19.36c3.082-.01 6.162-.012 9.243 0-.39.443-.737.921-1.119 1.373-.164.224-.487.111-.722.145-2.027-.019-4.055.019-6.082-.017-.54-.374-.85-1.033-1.32-1.501z" fill="#f63"/></svg>