<svg xmlns="http://www.w3.org/2000/svg" viewBox="0 0 26.458 26.458" height="100" width="100"><path d="M6.154.812c.256-.04.516-.045.775-.05 4.163.015 8.327.008 12.492.003.57-.01 1.194.115 1.574.579.4.42.413 1.032.416 1.577-.023 7.047.013 14.095-.017 21.142.027.952-.868 1.719-1.799 1.642-4.222.01-8.443-.01-12.666.009-.582.006-1.24-.038-1.662-.494-.411-.38-.494-.963-.49-1.491.01-7.05-.002-14.1.004-21.149-.06-.827.529-1.662 1.373-1.768m.862 1.537c-.574.195-.604.893-.612 1.4.006 5.269.006 10.537 0 15.805.016.695-.077 1.412.121 2.088.193.576.893.604 1.4.612 3.388-.003 6.774-.011 10.163.003.433-.02.917.015 1.295-.237.392-.3.374-.845.397-1.287-.007-5.66-.007-11.321 0-16.982-.023-.412-.007-.893-.31-1.212-.32-.306-.8-.288-1.213-.311-3.386.003-6.774.012-10.16-.003-.363.008-.734.006-1.081.124m5.647 20.593c-.791.213-.98 1.383-.33 1.862.581.496 1.625.148 1.728-.63.2-.784-.648-1.518-1.398-1.232z" fill="#f63"/></svg>