<svg xmlns="http://www.w3.org/2000/svg" viewBox="0 0 21.167 21.167" height="80" width="80"><path d="M20.085 1.03c.273-.227.585-.504.826-.764-.267.38-.549.749-.861 1.089-1.065 1.302-2.116 2.538-3.298 3.734.387.405.762.858 1.164 1.251-3.786 3.9-7.677 7.699-11.51 11.555-1.048-1.058-2.138-2.073-3.165-3.15 3.875-3.816 7.682-7.703 11.56-11.518.444.374.826.782 1.314 1.18 1.35-1.113 2.167-1.886 3.556-2.998zM2.271 2.417c-.244-.633-.59-1.319-.35-2.007 2.57 2.535 5.112 5.1 7.664 7.652-.44.438-.878.877-1.314 1.318-.465-.445-.92-.897-1.373-1.352-.6-.51-.332-1.394-.63-2.055a67.32 67.32 0 0 1-.534-.198c-.899-.5-1.835-.97-2.578-1.695-.405-.485-.63-1.09-.885-1.663zm10.845 9.219c2.148 2.039 4.197 4.183 6.31 6.259.247.204.396.474.485.769.061.203.093.418.108.63 0 0-.423.395-.502.496-.43.014-.786.083-1.121-.277-2.073-2.047-4.118-4.125-6.19-6.173-.128-.147-.33-.275-.303-.497.39-.415.83-.786 1.213-1.207zM2.362 15.602c.227-.198.45-.4.67-.603.768.59 1.395 1.334 2.099 1.995.345.373.784.673 1.04 1.116-.211.244-.442.471-.662.707-.328-.331-.658-.66-.99-.987-.401.401-.8.806-1.218 1.19.441.457.895.9 1.33 1.362a30.57 30.57 0 0 1-.476.467C2.82 19.554 1.521 18.22.204 16.907c.136-.188.276-.372.417-.559.486.49.975.978 1.46 1.47.412-.381.805-.78 1.229-1.147-.31-.362-.648-.698-.948-1.07z" fill="#f63"/></svg>