<svg xmlns="http://www.w3.org/2000/svg" viewBox="0 0 21.167 21.167" height="80" width="80"><path d="M16.154 1.508c.21-.713 1.406-.666 1.517.084.06 1.26-.245 2.516-.142 3.777.443-.98.532-2.087.927-3.086.25-.473.98-.505 1.28-.064.276.326.104.757.021 1.12-.283 1.056-.635 2.095-.858 3.167.315-.609.297-1.363.742-1.903.4-.45 1.275-.186 1.272.447-.045 1.074-.466 2.089-.65 3.142-.239 1.033-.397 2.08-.61 3.119-.125.618-.542 1.122-.716 1.721.168 1.056.602 2.083.574 3.168-.157.316-.553.414-.837.592-1.508.77-3.624.734-4.792-.62-.086-.717.056-1.45.131-2.165a3.834 3.834 0 0 1-1.52-1.65c.029.404-.022.836-.376 1.09-1.427 1.176-2.76 2.465-4.204 3.622a3.877 3.877 0 0 1-1.712.827c-.134.607-.29 1.209-.43 1.813-.045.374-.454.495-.755.602-1.817.583-3.84-.45-4.856-1.972l-.017-.127c.348-.996 1.028-1.829 1.538-2.743.182-.615-.167-1.25-.084-1.879.175-1.316.379-2.629.515-3.95.02-.7.114-1.392.186-2.086.056-.357.141-.78.502-.951.437-.252.98.113 1.087.565.134.564.007 1.153.028 1.728.262-1.25.04-2.545.277-3.796.086-.613 1.006-.805 1.357-.318.314.347.17.838.146 1.255-.059.784-.136 1.57-.102 2.357.389-.755.462-1.62.727-2.42.192-.529.14-1.262.697-1.568.515-.344 1.262.192 1.16.785-.127.972-.462 1.907-.58 2.88.463-.765.624-1.667 1.032-2.458.291-.508 1.107-.48 1.388.024.246.416.006.894-.13 1.306.327-.266.774-.539 1.182-.263.654.513 1.033 1.297 1.642 1.856.384.282 1.035.08 1.132-.41.205-1.992.146-3.999.163-6a.846.846 0 0 1 .431-.793c.368-.253.896-.053 1.097.322.283.887-.008 1.865.265 2.748.162-.96.18-1.938.355-2.895m-7.87 10.69c-.143.54.51 1.06 1 .812.663-.326 1.24-.8 1.89-1.146.354-.17.757-.032 1.086.135-.66-1.018-1.213-2.1-1.846-3.137-.28-.485-.674-.95-.659-1.543-.506 1.62-1.104 3.22-1.472 4.88z" fill="#f63"/></svg>