<svg xmlns="http://www.w3.org/2000/svg" viewBox="0 0 21.167 21.167" height="80" width="80"><path d="M10.626.269h.156c.191 1.569.378 3.139.618 4.7h-1.371c.168-1.57.403-3.134.597-4.7zM6.708 1.291c-.06-.155-.036-.316-.001-.473a740.77 740.77 0 0 0 2 3.51c.148.243.315.482.38.766-.393.142-.795.274-1.15.502-.084-.158-.176-.315-.22-.491a179.784 179.784 0 0 0-1.009-3.814zm7.929-.118l.197-.073c-.433 1.55-.927 3.087-1.301 4.654a17.68 17.68 0 0 0-1.244-.53c.07-.178.139-.359.24-.521.718-1.167 1.399-2.359 2.108-3.53zM3.145 3.303c.39.126.667.445.994.673.977.728 1.904 1.524 2.919 2.2-.324.337-.651.67-.995.985-.973-1.284-2.014-2.526-2.918-3.858zm11.033 2.899c1.28-.977 2.534-1.997 3.848-2.928l-.117.307c-.915 1.21-1.89 2.378-2.755 3.624-.318-.341-.653-.666-.976-1.003zm-5.094-.794a5.694 5.694 0 0 1 2.897-.03 5.408 5.408 0 0 1 3.5 2.942 5.417 5.417 0 0 1-.086 4.72c-.612 1.228-1.726 2.164-2.997 2.656-1.262.383-2.669.402-3.891-.132-1.612-.663-2.854-2.159-3.197-3.87-.198-1.053-.13-2.173.296-3.162a5.437 5.437 0 0 1 3.478-3.124zm-8.08 1.095c1.534.456 3.066.941 4.627 1.295-.157.43-.346.85-.52 1.275-1.39-.71-2.676-1.612-4.057-2.34a11.254 11.254 0 0 0-.05-.23zm18.684.255c.176-.058.36-.087.546-.079-1.153.82-2.458 1.418-3.66 2.17-.184.085-.412.32-.612.15a7.35 7.35 0 0 1-.428-1.179c1.405-.257 2.773-.698 4.154-1.062zM.269 10.626c1.564-.23 3.15-.341 4.7-.647-.002.466 0 .93 0 1.396-1.57-.155-3.13-.424-4.7-.592v-.157zm15.942-.646c1.551.306 3.137.414 4.701.648v.155c-1.57.167-3.13.437-4.7.592 0-.465.002-.93 0-1.396zM1.065 14.46c1.346-.776 2.731-1.489 4.032-2.336.183.42.353.845.532 1.266-1.525.497-3.1.84-4.642 1.28zm14.892-2.212c1.273.814 2.592 1.553 3.893 2.324a.846.846 0 0 1 .244.25A67.668 67.668 0 0 1 15.42 13.5c.187-.413.371-.83.537-1.252zM3.602 17.373c.864-1.092 1.682-2.219 2.557-3.3.312.333.637.653.972.964-1.304.975-2.577 1.988-3.875 2.97.06-.24.189-.447.346-.634zm10.431-2.246c.31-.354.667-.662.973-1.019.875 1.367 2.027 2.546 2.894 3.916-.234-.08-.425-.236-.618-.383-1.075-.848-2.18-1.66-3.25-2.514zm-6.308.432c.474.03.888.31 1.306.51-.384.375-.587.881-.875 1.326-.518.897-1.076 1.77-1.558 2.686l-.216-.071c.557-1.445.81-3 1.343-4.451zm4.384.401c.42-.137.814-.349 1.252-.427.274 1.507.775 2.967 1.144 4.453a3.575 3.575 0 0 1-.046.242c-.75-1.245-1.443-2.525-2.188-3.775-.096-.147-.128-.323-.162-.492zm-2.196.254l1.363-.001a337.338 337.338 0 0 0-.607 4.7h-.157c-.187-1.568-.427-3.13-.599-4.7z" fill="#f63"/></svg>