<svg xmlns="http://www.w3.org/2000/svg" viewBox="0 0 21.167 21.167" height="80" width="80"><g fill="#f63"><path d="M4.253.325c1.372-.354 2.766 1.04 2.412 2.41-.246 1.526-2.39 2.175-3.423 1.012C2.08 2.715 2.728.571 4.252.325zm11.905 0c1.372-.354 2.766 1.04 2.412 2.412-.246 1.524-2.39 2.173-3.423 1.01-1.162-1.032-.514-3.176 1.01-3.422z"/><path d="M2.226 4.734c.767-.352 1.633-.194 2.45-.227.919.03 1.934-.155 2.747.389.539.363 1.07.94 1.015 1.635-.005.827.008 1.654-.017 2.48-.534.277-1.064.614-1.4 1.126-.49.68-.553 1.546-.62 2.354-.01 1.253.005 2.508-.004 3.763-1.878.001-3.756.003-5.636 0-.002-3.086-.005-6.17.002-9.256a2.509 2.509 0 0 1 1.463-2.264zm10.622 1.361c.338-.941 1.312-1.591 2.309-1.585 1-.003 2.005-.019 3.007.008 1.269.052 2.353 1.21 2.33 2.48.006 3.084.003 6.17.001 9.256-1.88.003-3.758.003-5.636 0-.063-1.668.143-3.356-.158-5.007-.168-1.02-.951-1.818-1.866-2.236-.01-.972-.048-1.948.013-2.916z"/><path d="M10.205 5.024c1.372-.354 2.766 1.04 2.412 2.412-.246 1.524-2.39 2.173-3.422 1.01-1.163-1.032-.514-3.176 1.01-3.422z"/><path d="M6.715 11.703c-.031-1.278 1.068-2.445 2.348-2.486 1.042-.02 2.087-.02 3.13 0 1.278.04 2.38 1.207 2.348 2.486.006 3.083.005 6.166.002 9.25-2.61.003-5.22.003-7.83 0-.003-3.084-.004-6.167.002-9.25z"/></g></svg>