<svg width="240" height="160" viewBox="0 0 180 120" xmlns="http://www.w3.org/2000/svg"><path fill="#fff" d="M71.31 4.44c27.56-.98 55.3-.56 82.51 4.19 6.22.52 12.39 2.49 17.59 5.96 3.42 3.05 4.54 7.95 4.6 12.36-.03 19.8.01 39.59-.01 59.39.11 4.14-2.45 7.89-5.63 10.31-5.78 3.3-12.43 4.54-18.84 6.05-6.37.95-12.54 2.9-18.85 4.17-5.83.85-11.47 2.65-17.23 3.87-10.12 1.45-19.97 5.88-30.38 4.13-14.51-3.24-29.02-6.55-43.57-9.63-9.32-2.53-19-3.63-28.15-6.8C8.2 96.84 3.98 91.86 4 86.36c-.02-19.8.02-39.59-.01-59.39.02-4.23 1.12-8.73 4.04-11.91 4.05-3.18 9.11-4.74 14.14-5.53 16.27-2.62 32.64-4.85 49.14-5.09m-6.82 6.31c-12.82.94-25.67 1.9-38.31 4.31-4.72.93-9.92 1.25-13.77 4.47-2.24 1.71-2.38 4.83-2.42 7.41.05 20.04-.04 40.09.04 60.13.53 4.44 5.38 5.89 9.05 6.9 20.69 4.62 41.39 9.2 62.07 13.87 5.88 1.25 12.02 1.81 17.91.27 20.25-4.48 40.5-9.01 60.73-13.55 3.9-1.43 9.46-2.58 10.18-7.45.09-20.05-.01-40.1.04-60.14-.04-2.61-.18-5.78-2.47-7.48-4.96-3.92-11.5-4.37-17.48-5.47-28.29-4.31-57.03-4.71-85.57-3.27z"/><path fill="#f63" d="M64.49 10.75c28.54-1.44 57.28-1.04 85.57 3.27 5.98 1.1 12.52 1.55 17.48 5.47 2.29 1.7 2.43 4.87 2.47 7.48-.05 20.04.05 40.09-.04 60.14-.72 4.87-6.28 6.02-10.18 7.45-20.23 4.54-40.48 9.07-60.73 13.55-5.89 1.54-12.03.98-17.91-.27-20.68-4.67-41.38-9.25-62.07-13.87-3.67-1.01-8.52-2.46-9.05-6.9-.08-20.04.01-40.09-.04-60.13.04-2.58.18-5.7 2.42-7.41 3.85-3.22 9.05-3.54 13.77-4.47 12.64-2.41 25.49-3.37 38.31-4.31z"/></svg>