<svg width="322pt" height="40pt" viewBox="0 0 322 40" xmlns="http://www.w3.org/2000/svg"><path fill="#f63" d="M6.65 0h314.74c-5.9 8.44-12.62 16.26-19.18 24.18-1.48 1.75-2.87 3.61-4.64 5.07-4.18-.38-8.38-.27-12.57-.27-61.33.01-122.67-.01-184 .01-3.97-.1-8.1.51-11.9-.92C69.94 21.5 50.78 14.95 31.62 8.4c-4.55-1.5-8.99-3.37-13.71-4.28C14.12 2.85 10.51 1.07 6.65 0z"/><path fill="#fff" d="M17.91 4.12c4.72.91 9.16 2.78 13.71 4.28 19.16 6.55 38.32 13.1 57.48 19.67 3.8 1.43 7.93.82 11.9.92 61.33-.02 122.67 0 184-.01 4.19 0 8.39-.11 12.57.27-2.41 2.37-4.57 4.97-6.81 7.49-1.54.47-3.19.25-4.77.33-63.36-.03-126.71 0-190.06-.02-3.45.08-6.34-2.05-9.44-3.23C63.59 24 40.91 13.69 17.91 4.12z"/></svg>