<svg width="314pt" height="40pt" viewBox="0 0 314 40" xmlns="http://www.w3.org/2000/svg"><path fill="#fff" d="M0 2.2c5.66-.4 11.33-.23 17-.26 68.02.01 136.05 0 204.07.01 1.33 0 2.67.21 3.89.76 25.35 11.14 50.76 22.14 76.12 33.25 2.28 1.06 4.64 1.94 7.01 2.78-1.11.03-2.21.05-3.31.06-1.27-.66-2.51-1.37-3.84-1.87-25.35-8.65-50.71-17.3-76.04-26-3.81-1.42-7.93-.83-11.9-.92-63.66.02-127.33 0-191 .01-4.74.02-9.51-.26-14.22.45C5.26 7.84 3.29 3.98 0 2.5v-.3z"/><path fill="#f63" d="M7.78 10.47c4.71-.71 9.48-.43 14.22-.45 63.67-.01 127.34.01 191-.01 3.97.09 8.09-.5 11.9.92 25.33 8.7 50.69 17.35 76.04 26 1.33.5 2.57 1.21 3.84 1.87-5.25.39-10.52.13-15.78.2-85.69-.06-171.39.11-257.07-.09C23.9 29.42 15.7 20.06 7.78 10.47z"/></svg>