<svg xmlns="http://www.w3.org/2000/svg" viewBox="0 0 52.917 30.162" height="114" width="200"><path d="M13.214.445C14.349.3 15.51.205 16.63.51c2.192.325 4.108 1.742 5.318 3.562.202.341.602.454.932.635 1.097.564 1.902 1.584 2.333 2.728.05.146.097.292.143.44.165.462.313.932.414 1.413.275 1.194.817 2.31 1.503 3.32.716 1.129 1.942 2.003 3.31 2.04 1.395-.027 2.567-1.222 2.636-2.604-.055-.933-.521-1.771-1.208-2.387.99-.019 1.988.314 2.718.992 1.802 1.269 2.24 3.927 1.237 5.831 1.27-.708 2.57-1.413 4.008-1.71 2.1-.39 4.313-.299 6.33.432.95.385 1.917.765 2.758 1.36 1.335.857 2.687 1.885 3.346 3.375-2.759-.864-5.99.348-7.461 2.844-.94 1.798-2.182 3.488-3.839 4.688-1.127.831-2.527 1.145-3.887 1.352-1.863.306-3.747.118-5.618.02-.68-.097-1.36-.213-2.047-.278-2.106-.342-4.149-.98-6.24-1.388l-.2.115c.189.384.417.754.698 1.08.594.588 1.43.759 2.165 1.093-.907.455-1.93.507-2.924.503-1.472-.135-2.724-.982-4.015-1.618-.337-.155-.682-.283-1.017-.441-.807-.293-1.634-.536-2.484-.674-1.297-.192-2.621-.131-3.927-.053-.279.072-.565.11-.85.155a5.868 5.868 0 0 1-.584.147c-.472.152-.947.298-1.412.468-.685.304-1.352.655-1.98 1.064-.48.324-.932.704-1.47.93-.153-.078-.264-.214-.383-.333-.779-.876-1.656-1.688-2.164-2.765C.811 23.762.171 19.99.483 16.388c.13-1.923.373-3.882 1.163-5.661.708-1.771 1.675-3.444 2.9-4.91C5.51 4.52 6.782 3.5 8.054 2.521c1.547-1.044 3.34-1.699 5.16-2.076m9.225 7.78c-.188 1.28-.516 2.544-1.066 3.719-1.707 3.728-4.65 6.763-7.986 9.086-2.03 1.407-4.204 2.654-5.941 4.437-1.134.947-1.887 2.329-2.01 3.805.604-.51 1.067-1.158 1.634-1.706a9.975 9.975 0 0 1 3.656-2.318c1.924-.728 4.046-.77 6.044-.344.305-.71.623-1.418.976-2.107a12.232 12.232 0 0 1-1.624-.62c.85.302 1.705.607 2.608.695 1.11.244 2.387.299 3.359-.38.493-.535-.057-1.267.123-1.881.261-.417.968-.48 1.004-1.046.04-.426-.35-.672-.668-.858.39.007.911-.05 1.053-.486.13-.51-.599-.847-.416-1.372.186-.392.712-.51.9-.915.025-.502-.475-.765-.8-1.054-.453-.317-.692-.827-.893-1.323.288-.084.576-.172.862-.263l.21-.413c-.415.227-.84.433-1.255.66a8.096 8.096 0 0 1-1.226-.105c.452-.055.906-.085 1.362-.111-.222-1.71.636-3.41.094-5.1z" fill="#f63"/><path d="M22.439 8.224c.542 1.69-.316 3.39-.094 5.1-.456.027-.91.057-1.362.112.405.066.815.101 1.226.105.415-.227.84-.433 1.255-.66l-.21.413c-.286.091-.574.18-.862.263.201.496.44 1.006.894 1.323.324.29.824.552.8 1.054-.189.405-.715.523-.901.915-.183.525.546.862.416 1.372-.142.437-.662.493-1.053.486.317.186.709.432.668.858-.036.566-.743.63-1.004 1.046-.18.614.37 1.346-.123 1.88-.972.68-2.248.625-3.359.38-.903-.087-1.759-.392-2.608-.695.525.248 1.069.45 1.624.62-.353.69-.67 1.397-.976 2.108-1.998-.426-4.12-.384-6.044.344a9.975 9.975 0 0 0-3.656 2.318c-.567.548-1.03 1.195-1.634 1.706.123-1.476.876-2.858 2.01-3.805 1.737-1.783 3.91-3.03 5.941-4.437 3.335-2.323 6.279-5.358 7.986-9.086.55-1.175.878-2.439 1.066-3.72z" fill="#fff"/></svg>