<?xml version="1.0" encoding="UTF-8" ?>
<!DOCTYPE svg PUBLIC "-//W3C//DTD SVG 1.1//EN" "http://www.w3.org/Graphics/SVG/1.1/DTD/svg11.dtd">
<svg width="348pt" height="260pt" viewBox="0 0 348 260" version="1.1" xmlns="http://www.w3.org/2000/svg">
<g id="#507fe1ff">
<path fill="#507fe1" opacity="1.00" d=" M 47.38 39.36 C 60.78 29.63 77.47 24.59 94.01 24.99 C 153.01 25.01 212.01 25.00 271.01 25.00 C 271.00 38.33 271.00 51.67 271.00 65.00 C 212.00 64.99 153.00 65.01 94.00 64.99 C 78.02 63.83 63.82 77.33 60.83 92.46 C 59.54 101.96 60.59 112.04 65.42 120.46 C 69.55 128.20 76.76 134.02 84.90 137.11 C 86.82 137.86 88.90 137.99 90.94 138.01 C 143.99 137.99 197.03 138.00 250.07 138.00 C 255.84 137.84 261.75 140.01 265.60 144.40 C 272.76 151.58 272.71 164.41 265.61 171.61 C 261.73 175.97 255.84 178.16 250.07 178.00 C 198.05 178.01 146.02 177.99 94.00 178.01 C 76.03 178.46 57.91 172.43 43.98 161.04 C 30.22 149.96 20.39 133.98 17.06 116.61 C 14.20 106.84 14.19 96.15 17.06 86.39 C 20.62 67.59 31.86 50.48 47.38 39.36 Z" />
</g>
</svg>
