<svg width="464" height="260pt" viewBox="0 0 348 260" xmlns="http://www.w3.org/2000/svg"><path fill="#507fe1" d="M47.38 39.36c13.4-9.73 30.09-14.77 46.63-14.37 59 .02 118 .01 177 .01-.01 13.33-.01 26.67-.01 40-59-.01-118 .01-177-.01-15.98-1.16-30.18 12.34-33.17 27.47-1.29 9.5-.24 19.58 4.59 28 4.13 7.74 11.34 13.56 19.48 16.65 1.92.75 4 .88 6.04.9 53.05-.02 106.09-.01 159.13-.01 5.77-.16 11.68 2.01 15.53 6.4 7.16 7.18 7.11 20.01.01 27.21-3.88 4.36-9.77 6.55-15.54 6.39-52.02.01-104.05-.01-156.07.01-17.97.45-36.09-5.58-50.02-16.97-13.76-11.08-23.59-27.06-26.92-44.43-2.86-9.77-2.87-20.46 0-30.22 3.56-18.8 14.8-35.91 30.32-47.03z"/></svg>