<svg width="464" height="260pt" viewBox="0 0 348 260" xmlns="http://www.w3.org/2000/svg"><path fill="#507fe1" d="M80.19 94.24c2.66-7.77 10.53-13.33 18.76-13.21 51.68-.07 103.36 0 155.05-.04 18.2-.45 36.56 5.74 50.57 17.42 10.68 8.71 18.84 20.41 23.52 33.37 1.92 5.05 2.71 10.42 4.15 15.61 1.02 5.84.87 11.84.4 17.74-2.03 10.97-5 21.98-10.95 31.54-12.99 22.28-37.92 36.82-63.68 37.33H80v-40c59.02 0 118.03-.01 177.05.01 6.36.27 11.93-3.52 16.86-7.1 9.37-7.62 14.25-19.98 13.72-31.93.6-17.75-15.47-35.23-33.63-33.99-51.36.02-102.71.01-154.07.01-5.28.09-10.74-1.6-14.54-5.4-5.85-5.21-7.87-14.05-5.2-21.36z"/></svg>