<?xml version="1.0" encoding="UTF-8" standalone="no"?>
<svg
   xmlns:dc="http://purl.org/dc/elements/1.1/"
   xmlns:cc="http://creativecommons.org/ns#"
   xmlns:rdf="http://www.w3.org/1999/02/22-rdf-syntax-ns#"
   xmlns:svg="http://www.w3.org/2000/svg"
   xmlns="http://www.w3.org/2000/svg"
   xmlns:sodipodi="http://sodipodi.sourceforge.net/DTD/sodipodi-0.dtd"
   xmlns:inkscape="http://www.inkscape.org/namespaces/inkscape"
   inkscape:version="1.0 (4035a4fb49, 2020-05-01)"
   sodipodi:docname="fox-white-2.svg"
   id="svg8"
   version="1.1"
   viewBox="0 0 95.48436 35.050713"
   height="35.050713mm"
   width="95.48436mm">
  <defs
     id="defs2" />
  <sodipodi:namedview
     inkscape:window-maximized="1"
     inkscape:window-y="-8"
     inkscape:window-x="-8"
     inkscape:window-height="1017"
     inkscape:window-width="2560"
     fit-margin-bottom="0"
     fit-margin-right="0"
     fit-margin-left="0"
     fit-margin-top="0"
     showgrid="false"
     inkscape:document-rotation="0"
     inkscape:current-layer="g864"
     inkscape:document-units="mm"
     inkscape:cy="93.985358"
     inkscape:cx="449.82648"
     inkscape:zoom="1.0163481"
     inkscape:pageshadow="2"
     inkscape:pageopacity="0.0"
     borderopacity="1.0"
     bordercolor="#666666"
     pagecolor="#ffffff"
     id="base" />
  <metadata
     id="metadata5">
    <rdf:RDF>
      <cc:Work
         rdf:about="">
        <dc:format>image/svg+xml</dc:format>
        <dc:type
           rdf:resource="http://purl.org/dc/dcmitype/StillImage" />
        <dc:title></dc:title>
      </cc:Work>
    </rdf:RDF>
  </metadata>
  <g
     transform="translate(-48.769023,-96.529814)"
     style="display:inline"
     id="layer1"
     inkscape:groupmode="layer"
     inkscape:label="Слой 1">
    <g
       transform="matrix(0.35277778,0,0,0.35277778,48.650606,96.529814)"
       id="g864">
      <g
         style="fill:#ffffff"
         id="#ff9933ff">
        <path
           style="fill:#ffffff"
           id="path2"
           d="m 52.42,0 h 0.36 C 51.48,7.13 48.77,13.97 44.52,19.87 51.16,16.76 56.81,11.95 61.63,6.48 60.6,12.94 57.69,18.85 54.3,24.38 45.65,18.39 31.9,21.86 27.87,31.76 25.13,38.59 28.03,45.78 30.85,52.05 22.46,44.17 20.09,29.2 28.43,20.46 35.77,12.86 46.55,9.16 52.42,0 Z"
           opacity="1"
           fill="#ff9933" />
        <path
           style="fill:#ffffff"
           id="path4"
           d="M 3.16,45.1 C 7.91,35.72 15.96,28.21 24.92,22.88 21.07,26.71 16.83,30.25 14.05,35.01 9.12,42.14 6.96,51.82 10.88,59.9 15.27,69.97 25.16,76.1 35.11,79.73 27.08,78.83 19.56,74.79 13.7,69.33 9.7,65.66 7.59,60.59 5.36,55.77 c 1.07,11.62 10.45,20.47 20.35,25.49 19.35,9.6 42.04,9.5 62.76,5.04 25.15,-5.55 48.09,-18.06 73.14,-23.91 17.77,-4.22 36.4,-5.58 54.44,-2.3 20.7,3.62 40.14,13.85 54.95,28.75 v 0.92 c -4.06,-2.65 -8.62,-4.4 -13.05,-6.32 -14.66,-6.2 -30.29,-10.48 -46.26,-11.05 -12.71,-0.56 -25.39,1.27 -37.75,4.12 -16.18,3.74 -32.08,8.54 -48.06,13.03 -14.7,4.15 -29.56,8.24 -44.86,9.36 C 64.33,100.25 47.13,98.74 31.46,92.55 20.36,88.1 9.6,81.02 3.78,70.28 -0.52,62.62 -0.87,52.94 3.16,45.1 Z"
           opacity="1"
           fill="#ff9933" />
        <path
           style="fill:#ffffff"
           id="path6"
           d="m 29.48,35.04 c 1.4,-7.8 10.11,-12.05 17.46,-11.3 5.89,0.48 11.04,4.81 12.77,10.42 1.33,4.46 2.48,9.12 5.39,12.87 1.93,3.02 5.76,3.48 8.81,4.77 -0.95,0.75 -1.92,1.48 -2.88,2.2 -1.26,-1.34 -2.52,-2.67 -3.8,-3.99 -5,2.24 -10.31,-0.95 -13.42,-4.84 -2.97,-3.09 -4.97,-7.4 -8.94,-9.35 -5.82,-2.4 -12.56,4.25 -9.97,10.09 0.63,0.66 1,4.19 2.22,2.56 1.68,-2.88 4.97,-5.72 8.49,-4.03 3.75,2.14 6.48,5.75 10.39,7.7 4.09,2.36 8.94,2.18 13.5,2.52 -5.63,2.14 -12.02,0.85 -17.08,-2.15 -2.44,-1.42 -4.6,-3.55 -7.49,-4.01 -2.88,-0.57 -6.08,1.47 -6.45,4.45 1.3,3.9 5.32,5.78 8.48,7.97 3.08,1.79 5.52,4.4 7.82,7.07 C 49.55,63.07 42.63,60.5 37.47,55.5 31.8,50.5 28.53,42.58 29.48,35.04 m 22.88,-1.18 c 0.79,1.86 1.67,3.69 2.55,5.51 0.88,-0.22 2.63,-0.66 3.51,-0.87 -1.84,-1.77 -3.75,-3.52 -6.06,-4.64 z"
           opacity="1"
           fill="#ff9933" />
        <path
           style="fill:#ffffff"
           id="path8"
           d="m 16.72,45.06 c 0.3,-2.22 0.17,-4.76 1.78,-6.53 0.04,7.96 1.62,16.57 7.63,22.29 3.86,3.91 9.17,5.58 14.1,7.63 -6.34,0.22 -12.76,-2.05 -17.6,-6.14 -4.87,-4.2 -6.48,-11.05 -5.91,-17.25 z"
           opacity="1"
           fill="#ff9933" />
      </g>
      <g
         style="display:inline;fill:#f2f2f2"
         id="layer1-7">
        <g
           style="font-style:normal;font-variant:normal;font-weight:bold;font-stretch:normal;font-size:28px;line-height:1.25;font-family:'Century Gothic';-inkscape-font-specification:'Century Gothic Bold';letter-spacing:12px;stroke-width:0.75;fill:#f2f2f2"
           id="text22"
           aria-label="DESIGN">
          <path
             id="path24"
             style="font-style:normal;font-variant:normal;font-weight:normal;font-stretch:normal;font-size:28px;font-family:'Century Gothic';-inkscape-font-specification:'Century Gothic';stroke-width:0.75;fill:#f2f2f2"
             d="M 86.247963,50.72678 V 30.615452 h 4.169922 q 4.511719,0 6.548828,0.724609 2.925781,1.025391 4.566407,3.554688 1.6543,2.529297 1.6543,6.029297 0,3.021484 -1.3125,5.318359 -1.29883,2.296875 -3.390629,3.390625 -2.078125,1.09375 -5.837891,1.09375 z m 1.927734,-1.900391 h 2.324219 q 4.169922,0 5.783203,-0.519531 2.269531,-0.738281 3.56836,-2.652344 1.298831,-1.927734 1.298831,-4.703125 0,-2.912109 -1.408206,-4.976562 Q 98.3339,33.910374 95.818275,33.144749 93.931557,32.57053 89.597572,32.57053 h -1.421875 z" />
          <path
             id="path26"
             style="font-style:normal;font-variant:normal;font-weight:normal;font-stretch:normal;font-size:28px;font-family:'Century Gothic';-inkscape-font-specification:'Century Gothic';stroke-width:0.75;fill:#f2f2f2"
             d="m 119.09757,30.615452 h 11.52539 v 1.982422 h -9.51562 v 6.289062 h 9.43359 v 1.96875 h -9.43359 v 7.888672 h 9.43359 v 1.982422 h -11.44336 z" />
          <path
             id="path28"
             style="font-style:normal;font-variant:normal;font-weight:normal;font-stretch:normal;font-size:28px;font-family:'Century Gothic';-inkscape-font-specification:'Century Gothic';stroke-width:0.75;fill:#f2f2f2"
             d="m 144.04484,46.980686 1.70898,-1.02539 q 1.80469,3.322265 4.16992,3.322265 1.01172,0 1.90039,-0.464844 0.88868,-0.478515 1.35352,-1.271484 0.46484,-0.792969 0.46484,-1.681641 0,-1.011718 -0.68359,-1.982421 -0.94336,-1.339844 -3.44531,-3.226563 -2.51563,-1.900391 -3.13086,-2.748047 -1.06641,-1.421875 -1.06641,-3.076172 0,-1.3125 0.62891,-2.392578 0.6289,-1.080078 1.76367,-1.695312 1.14844,-0.628907 2.48828,-0.628907 1.42188,0 2.65235,0.710938 1.24414,0.697266 2.625,2.583984 l -1.64063,1.244141 q -1.13477,-1.503906 -1.94141,-1.982422 -0.79296,-0.478516 -1.73632,-0.478516 -1.2168,0 -1.9961,0.738282 -0.76562,0.738281 -0.76562,1.818359 0,0.65625 0.27343,1.271484 0.27344,0.615235 0.99805,1.339844 0.39649,0.382813 2.59766,2.009766 2.61133,1.927734 3.58203,3.43164 0.9707,1.503907 0.9707,3.021485 0,2.1875 -1.66797,3.800781 -1.65429,1.613281 -4.0332,1.613281 -1.83203,0 -3.32227,-0.970703 -1.49023,-0.984375 -2.74804,-3.28125 z" />
          <path
             id="path30"
             style="font-style:normal;font-variant:normal;font-weight:normal;font-stretch:normal;font-size:28px;font-family:'Century Gothic';-inkscape-font-specification:'Century Gothic';stroke-width:0.75;fill:#f2f2f2"
             d="m 171.78117,30.615452 h 2.00976 V 50.72678 h -2.00976 z" />
          <path
             id="path32"
             style="font-style:normal;font-variant:normal;font-weight:normal;font-stretch:normal;font-size:28px;font-family:'Century Gothic';-inkscape-font-specification:'Century Gothic';stroke-width:0.75;fill:#f2f2f2"
             d="m 209.81242,33.992405 -1.5586,1.476562 q -1.68164,-1.654296 -3.6914,-2.501953 -1.9961,-0.861328 -3.89649,-0.861328 -2.36523,0 -4.51172,1.16211 -2.13281,1.162109 -3.30859,3.158203 -1.17578,1.982422 -1.17578,4.197265 0,2.269532 1.21679,4.320313 1.2168,2.037109 3.36329,3.21289 2.14648,1.16211 4.70312,1.16211 3.10352,0 5.25,-1.75 2.14649,-1.75 2.54297,-4.539063 h -6.41211 v -1.941406 h 8.66797 q -0.0273,4.662109 -2.77539,7.410156 -2.73438,2.734375 -7.32813,2.734375 -5.57812,0 -8.83203,-3.800781 -2.50195,-2.925781 -2.50195,-6.767578 0,-2.857422 1.43555,-5.318359 1.43554,-2.460938 3.9375,-3.841797 2.50195,-1.394532 5.66015,-1.394532 2.55664,0 4.8125,0.929688 2.25586,0.916016 4.40235,2.953125 z" />
          <path
             id="path34"
             style="font-style:normal;font-variant:normal;font-weight:normal;font-stretch:normal;font-size:28px;font-family:'Century Gothic';-inkscape-font-specification:'Century Gothic';stroke-width:0.75;fill:#f2f2f2"
             d="M 226.87101,50.72678 V 30.615452 h 0.4375 L 240.6796,46.009983 V 30.615452 h 1.98243 V 50.72678 h -0.45118 L 228.94913,35.523655 V 50.72678 Z" />
        </g>
      </g>
    </g>
  </g>
</svg>
