<svg width="464" height="260pt" viewBox="0 0 348 260" xmlns="http://www.w3.org/2000/svg"><g fill="#507fe1"><path d="M26.33 61.29C39.34 39.04 64.23 24.49 89.99 24c60.34-.02 120.69.03 181.03-.02-.04 13.34-.04 26.7 0 40.05-59.68-.06-119.37-.03-179.06-.02-8.88-.27-17.13 4.65-22.95 11.04-14.74 16.51-10.22 45.79 8.56 57.36 4.01 2.53 8.47 4.88 13.36 4.6 52.71-.03 105.42.01 158.13-.02 5.37-.23 11.01 1.19 15.02 4.93 5.54 4.62 8.03 12.38 6.45 19.39-1.83 8.89-10.36 15.85-19.48 15.67-53.35.06-106.7-.01-160.05.03-25.11-.14-49.64-13.65-63.13-34.84-6.98-10.46-10.61-22.73-12.58-35.04-.42-4.73-.43-9.53.12-14.25 1.99-11 5.01-22 10.92-31.59z"/><path d="M79.04 100.08c.2-10.32 9.59-19.31 19.91-19.06 52.68-.05 105.36.01 158.04-.03 17.46.2 34.8 6.57 48.13 17.87 13.43 11.12 22.63 27.05 26.03 44.12 2 7.19 2.26 14.76 1.44 22.15-2.07 11.71-5.48 23.4-12.06 33.43-13.6 21.82-38.83 35.67-64.54 35.46-58.67-.03-117.34-.04-176.01.01.04-13.35.04-26.71-.01-40.05 57.68.06 115.35-.02 173.02.03 3.41-.05 6.96.29 10.23-.91 8.8-3.38 16.43-10.01 20.45-18.6 3.81-8.05 4.75-17.28 3.42-26.03-2.35-12.56-12.15-23.36-24.47-26.79-4.15-.89-8.41-.66-12.62-.69-48.33.02-96.66 0-144.99.02-3.99-.05-8.1.3-11.96-.92-8.45-2.52-14.62-11.16-14.01-20.01z"/></g></svg>