<?xml version="1.0" encoding="UTF-8" ?>
<!DOCTYPE svg PUBLIC "-//W3C//DTD SVG 1.1//EN" "http://www.w3.org/Graphics/SVG/1.1/DTD/svg11.dtd">
<svg width="348pt" height="260pt" viewBox="0 0 348 260" version="1.1" xmlns="http://www.w3.org/2000/svg">
<g id="#507fe1ff">
<path fill="#507fe1" opacity="1.00" d=" M 26.33 61.29 C 39.34 39.04 64.23 24.49 89.99 24.00 C 150.33 23.98 210.68 24.03 271.02 23.98 C 270.98 37.32 270.98 50.68 271.02 64.03 C 211.34 63.97 151.65 64.00 91.96 64.01 C 83.08 63.74 74.83 68.66 69.01 75.05 C 54.27 91.56 58.79 120.84 77.57 132.41 C 81.58 134.94 86.04 137.29 90.93 137.01 C 143.64 136.98 196.35 137.02 249.06 136.99 C 254.43 136.76 260.07 138.18 264.08 141.92 C 269.62 146.54 272.11 154.30 270.53 161.31 C 268.70 170.20 260.17 177.16 251.05 176.98 C 197.70 177.04 144.35 176.97 91.00 177.01 C 65.89 176.87 41.36 163.36 27.87 142.17 C 20.89 131.71 17.26 119.44 15.29 107.13 C 14.87 102.40 14.86 97.60 15.41 92.88 C 17.40 81.88 20.42 70.88 26.33 61.29 Z" />
<path fill="#507fe1" opacity="1.00" d=" M 79.04 100.08 C 79.24 89.76 88.63 80.77 98.95 81.02 C 151.63 80.97 204.31 81.03 256.99 80.99 C 274.45 81.19 291.79 87.56 305.12 98.86 C 318.55 109.98 327.75 125.91 331.15 142.98 C 333.15 150.17 333.41 157.74 332.59 165.13 C 330.52 176.84 327.11 188.53 320.53 198.56 C 306.93 220.38 281.70 234.23 255.99 234.02 C 197.32 233.99 138.65 233.98 79.98 234.03 C 80.02 220.68 80.02 207.32 79.97 193.98 C 137.65 194.04 195.32 193.96 252.99 194.01 C 256.40 193.96 259.95 194.30 263.22 193.10 C 272.02 189.72 279.65 183.09 283.67 174.50 C 287.48 166.45 288.42 157.22 287.09 148.47 C 284.74 135.91 274.94 125.11 262.62 121.68 C 258.47 120.79 254.21 121.02 250.00 120.99 C 201.67 121.01 153.34 120.99 105.01 121.01 C 101.02 120.96 96.91 121.31 93.05 120.09 C 84.60 117.57 78.43 108.93 79.04 100.08 Z" />
</g>
</svg>
