<?xml version="1.0" encoding="UTF-8" standalone="no"?>
<svg
   xmlns:dc="http://purl.org/dc/elements/1.1/"
   xmlns:cc="http://creativecommons.org/ns#"
   xmlns:rdf="http://www.w3.org/1999/02/22-rdf-syntax-ns#"
   xmlns:svg="http://www.w3.org/2000/svg"
   xmlns="http://www.w3.org/2000/svg"
   id="svg8"
   version="1.1"
   viewBox="0 0 52.916665 52.916669"
   height="200"
   width="200">
  <defs
     id="defs2" />
  <metadata
     id="metadata5">
    <rdf:RDF>
      <cc:Work
         rdf:about="">
        <dc:format>image/svg+xml</dc:format>
        <dc:type
           rdf:resource="http://purl.org/dc/dcmitype/StillImage" />
        <dc:title></dc:title>
      </cc:Work>
    </rdf:RDF>
  </metadata>
  <g
     transform="translate(-31.504506,-67.020844)"
     id="layer1">
    <g
       style="stroke-width:2.85364"
       id="#000000ff"
       transform="matrix(0.09757413,0,0,0.09757413,28.77422,64.115084)">
      <path
         style="stroke-width:4.99701"
         id="path1211"
         d="m 286.3,31.49 c 15.97,-0.25 32.01,-0.41 47.86,1.88 47.53,5.8 93.32,24.91 130.95,54.52 31.18,24.81 57.57,55.95 75.38,91.7 16.66,33.03 26.11,69.6 27.96,106.53 0.18,13.95 0.61,27.96 -0.89,41.85 -3.55,37.95 -15.29,75.12 -34.47,108.07 -15.73,27.49 -36.79,51.7 -60.82,72.24 -29.32,24.65 -63.98,43 -100.96,53.03 -37.78,10.37 -77.75,11.92 -116.41,6.09 C 214.6,560.86 175.71,545.2 142.56,521.3 104.97,494.19 73.83,457.81 54.25,415.7 42.89,391.42 35.29,365.39 31.72,338.83 29.06,321.02 29.09,302.96 29.59,285 31.85,243.04 44.08,201.65 65.24,165.33 80.04,139.77 99.39,116.99 121.45,97.41 166.71,57.48 225.95,33.62 286.3,31.49 m -106.23,99.54 c -4.65,2.66 -9.55,4.91 -13.82,8.18 -20.23,14.56 -32.73,37.7 -38.48,61.56 -3.41,14.18 -3.25,28.93 -2.36,43.39 3.8,29.6 18.95,57.55 41.57,76.99 3.74,3.19 8.29,5.69 10.87,10.04 2.31,3.88 1.17,8.56 1.55,12.83 0.69,10.35 1.67,20.68 2.01,31.06 2.74,20.14 5.79,40.37 12.04,59.77 5.08,15.78 11.89,31.83 24.53,43.09 8.05,7.74 18.85,11.61 29.45,14.41 15.02,3.06 30.21,6.38 45.63,5.88 17.74,-0.07 35.47,-1.82 52.88,-5.19 5.92,-0.57 11.29,-3.24 16.97,-4.78 3.57,-0.99 7,-2.41 10.41,-3.84 5.87,-2.34 10.54,-6.8 14.79,-11.33 3.33,-4.75 7.24,-9.19 9.36,-14.66 6.7,-12.89 10.46,-27.19 11.96,-41.6 2.15,-16.55 2.01,-33.27 2.76,-49.9 1.75,-11.41 -0.33,-23.05 1.53,-34.43 2.67,-4.75 7.69,-7.51 11.4,-11.37 13.95,-13.94 25.71,-30.18 34,-48.11 9.93,-22.82 9.99,-48.77 4.69,-72.76 -4.54,-18.12 -13.25,-35.28 -25.71,-49.25 -8.59,-9.23 -18.76,-17.87 -31.17,-21.19 -2.13,-0.84 -4.22,0.17 -6.19,0.91 5.31,8.74 12.73,16.58 14.91,26.87 0.54,1.59 -0.34,3.49 -1.9,4.1 -4.33,2.17 -9.46,2.99 -12.88,6.7 4.11,6.02 9.64,10.84 14.33,16.38 9.17,11.51 16.12,25.23 17.6,40.03 1.64,18.06 -5.82,36.57 -19.34,48.62 -3.87,3.31 -8.01,7.27 -13.43,7.33 -3.92,-0.2 -7.66,-1.52 -11.49,-2.26 -11.63,-2.22 -23.32,-4.13 -35.01,-5.98 -23.61,-3.87 -47.61,-4.1 -71.47,-3.63 -17.18,0.47 -34.27,2.8 -51.09,6.23 -11.81,2.39 -23.22,6.49 -35.14,8.36 -5.45,-0.41 -10.43,-3.32 -14.61,-6.71 -11.3,-9.9 -19.66,-23.27 -22.92,-37.99 -2.03,-10.25 -1.72,-21.2 2.49,-30.88 6.06,-16.25 17.32,-29.83 29.16,-42.21 -4.75,-1.38 -11.88,0.17 -14.26,-5.41 -1.6,-6.5 -0.21,-13.63 3.17,-19.36 2.25,-4.08 5.86,-7.19 8.08,-11.28 -2.41,-1.26 -4.78,0.28 -6.87,1.39 z"
         opacity="1"
         fill="#000000" />
      <path
         style="stroke-width:4.99701"
         id="path1213"
         d="m 358.4,386.57 c 8.49,-1.5 17.78,-0.74 25.15,4.08 11.42,7.42 16.65,22.29 14.29,35.45 -1.38,14.35 -7.39,28.61 -18.29,38.31 -5.21,4.38 -11.65,7.93 -18.62,7.99 -9.5,0.43 -18.88,-4.24 -24.72,-11.66 -6.23,-7.34 -8.12,-17.34 -8.14,-26.72 0.24,-11.7 3.29,-23.49 9.64,-33.39 4.8,-7.04 12.12,-12.68 20.69,-14.06 z"
         opacity="1"
         fill="#000000" />
      <path
         style="stroke-width:4.99701"
         id="path1215"
         d="m 234.29,388.34 c 14.65,-2.63 29.45,6.17 36.68,18.7 3.18,5.59 4.96,11.81 6.99,17.88 2.28,7.27 3.18,15.29 0.69,22.64 -1.67,4.68 -2.54,9.71 -5.04,14.06 -9.59,14.05 -30.7,17.6 -44.93,8.74 -20.56,-12.49 -28.76,-41.11 -19.23,-62.93 4.21,-10.11 14.16,-17.3 24.84,-19.09 z"
         opacity="1"
         fill="#000000" />
    </g>
  </g>
</svg>
