<?xml version="1.0" encoding="UTF-8" ?>
<!DOCTYPE svg PUBLIC "-//W3C//DTD SVG 1.1//EN" "http://www.w3.org/Graphics/SVG/1.1/DTD/svg11.dtd">
<svg width="271pt" height="100pt" viewBox="0 0 271 100" version="1.1" xmlns="http://www.w3.org/2000/svg">
<g id="#ff9933ff">
<path fill="#ff9933" opacity="1.00" d=" M 52.42 0.00 L 52.78 0.00 C 51.48 7.13 48.77 13.97 44.52 19.87 C 51.16 16.76 56.81 11.95 61.63 6.48 C 60.60 12.94 57.69 18.85 54.30 24.38 C 45.65 18.39 31.90 21.86 27.87 31.76 C 25.13 38.59 28.03 45.78 30.85 52.05 C 22.46 44.17 20.09 29.20 28.43 20.46 C 35.77 12.86 46.55 9.16 52.42 0.00 Z" />
<path fill="#ff9933" opacity="1.00" d=" M 3.16 45.10 C 7.91 35.72 15.96 28.21 24.92 22.88 C 21.07 26.71 16.83 30.25 14.05 35.01 C 9.12 42.14 6.96 51.82 10.88 59.90 C 15.27 69.97 25.16 76.10 35.11 79.73 C 27.08 78.83 19.56 74.79 13.70 69.33 C 9.70 65.66 7.59 60.59 5.36 55.77 C 6.43 67.39 15.81 76.24 25.71 81.26 C 45.06 90.86 67.75 90.76 88.47 86.30 C 113.62 80.75 136.56 68.24 161.61 62.39 C 179.38 58.17 198.01 56.81 216.05 60.09 C 236.75 63.71 256.19 73.94 271.00 88.84 L 271.00 89.76 C 266.94 87.11 262.38 85.36 257.95 83.44 C 243.29 77.24 227.66 72.96 211.69 72.39 C 198.98 71.83 186.30 73.66 173.94 76.51 C 157.76 80.25 141.86 85.05 125.88 89.54 C 111.18 93.69 96.32 97.78 81.02 98.90 C 64.33 100.25 47.13 98.74 31.46 92.55 C 20.36 88.10 9.60 81.02 3.78 70.28 C -0.52 62.62 -0.87 52.94 3.16 45.10 Z" />
<path fill="#ff9933" opacity="1.00" d=" M 29.48 35.04 C 30.88 27.24 39.59 22.99 46.94 23.74 C 52.83 24.22 57.98 28.55 59.71 34.16 C 61.04 38.62 62.19 43.28 65.10 47.03 C 67.03 50.05 70.86 50.51 73.91 51.80 C 72.96 52.55 71.99 53.28 71.03 54.00 C 69.77 52.66 68.51 51.33 67.23 50.01 C 62.23 52.25 56.92 49.06 53.81 45.17 C 50.84 42.08 48.84 37.77 44.87 35.82 C 39.05 33.42 32.31 40.07 34.90 45.91 C 35.53 46.57 35.90 50.10 37.12 48.47 C 38.80 45.59 42.09 42.75 45.61 44.44 C 49.36 46.58 52.09 50.19 56.00 52.14 C 60.09 54.50 64.94 54.32 69.50 54.66 C 63.87 56.80 57.48 55.51 52.42 52.51 C 49.98 51.09 47.82 48.96 44.93 48.50 C 42.05 47.93 38.85 49.97 38.48 52.95 C 39.78 56.85 43.80 58.73 46.96 60.92 C 50.04 62.71 52.48 65.32 54.78 67.99 C 49.55 63.07 42.63 60.50 37.47 55.50 C 31.80 50.50 28.53 42.58 29.48 35.04 M 52.36 33.86 C 53.15 35.72 54.03 37.55 54.91 39.37 C 55.79 39.15 57.54 38.71 58.42 38.50 C 56.58 36.73 54.67 34.98 52.36 33.86 Z" />
<path fill="#ff9933" opacity="1.00" d=" M 16.72 45.06 C 17.02 42.84 16.89 40.30 18.50 38.53 C 18.54 46.49 20.12 55.10 26.13 60.82 C 29.99 64.73 35.30 66.40 40.23 68.45 C 33.89 68.67 27.47 66.40 22.63 62.31 C 17.76 58.11 16.15 51.26 16.72 45.06 Z" />
</g>
</svg>
