<?xml version="1.0" encoding="UTF-8" standalone="no"?>
<!-- Created with Inkscape (http://www.inkscape.org/) -->

<svg
   xmlns:dc="http://purl.org/dc/elements/1.1/"
   xmlns:cc="http://creativecommons.org/ns#"
   xmlns:rdf="http://www.w3.org/1999/02/22-rdf-syntax-ns#"
   xmlns:svg="http://www.w3.org/2000/svg"
   xmlns="http://www.w3.org/2000/svg"
   xmlns:sodipodi="http://sodipodi.sourceforge.net/DTD/sodipodi-0.dtd"
   xmlns:inkscape="http://www.inkscape.org/namespaces/inkscape"
   width="210mm"
   height="297mm"
   viewBox="0 0 210 297"
   version="1.1"
   id="svg3730"
   inkscape:version="0.92.4 (5da689c313, 2019-01-14)"
   sodipodi:docname="fox-logo.svg">
  <defs
     id="defs3724" />
  <sodipodi:namedview
     id="base"
     pagecolor="#ffffff"
     bordercolor="#666666"
     borderopacity="1.0"
     inkscape:pageopacity="0.0"
     inkscape:pageshadow="2"
     inkscape:zoom="1"
     inkscape:cx="930"
     inkscape:cy="598.57143"
     inkscape:document-units="mm"
     inkscape:current-layer="layer1"
     showgrid="false"
     inkscape:window-width="2560"
     inkscape:window-height="1018"
     inkscape:window-x="-8"
     inkscape:window-y="-8"
     inkscape:window-maximized="1" />
  <metadata
     id="metadata3727">
    <rdf:RDF>
      <cc:Work
         rdf:about="">
        <dc:format>image/svg+xml</dc:format>
        <dc:type
           rdf:resource="http://purl.org/dc/dcmitype/StillImage" />
        <dc:title></dc:title>
      </cc:Work>
    </rdf:RDF>
  </metadata>
  <g
     inkscape:label="Layer 1"
     inkscape:groupmode="layer"
     id="layer1">
    <path
       inkscape:connector-curvature="0"
       id="path3758"
       d="M 69.320825,124.22707 V 84.539578 h 31.220835 31.22083 v 39.687492 39.6875 H 100.54166 69.320825 Z"
       style="fill:#fefefd;stroke-width:0.26458332" />
    <path
       inkscape:connector-curvature="0"
       id="path3756"
       d="m 100.10967,163.18697 c -0.162093,-0.25466 -7.150739,-9.14452 -15.530327,-19.75525 -8.379589,-10.61073 -15.190555,-19.36514 -15.135481,-19.45426 0.05508,-0.0891 6.908684,-8.79073 15.230244,-19.33693 8.32156,-10.546199 15.296031,-19.409762 15.498834,-19.696803 0.36701,-0.519467 0.37043,-0.519467 0.73688,0 0.20249,0.287041 7.12557,9.094393 15.38461,19.571893 8.25905,10.4775 15.11455,19.17703 15.23446,19.3323 0.13432,0.17392 -5.6326,7.6907 -15.02126,19.57917 -8.3816,10.61327 -15.37188,19.50522 -15.53397,19.75988 -0.16209,0.25466 -0.35649,0.46302 -0.432,0.46302 -0.0755,0 -0.26991,-0.20836 -0.43199,-0.46302 z m 15.85832,-19.76584 c 15.03158,-19.05105 15.22443,-19.31059 14.78477,-19.89788 -1.81651,-2.42648 -30.10728,-38.172055 -30.2111,-38.171914 -0.15771,2.14e-4 -30.432824,38.387764 -30.50767,38.682424 -0.06713,0.26428 30.32335,38.82238 30.53957,38.74725 0.0903,-0.0314 7.0178,-8.74333 15.39443,-19.35988 z m -21.642477,3.1595 c -7.879255,-3.43955 -12.31589,-10.61783 -12.752992,-20.63376 -0.179768,-4.1193 0.123153,-5.58322 1.878541,-9.07841 0.954395,-1.90031 4.179095,-6.6643 4.511004,-6.6643 0.04453,0 -0.611194,1.40241 -1.457154,3.11646 -2.204243,4.46616 -2.943102,6.81527 -3.097557,9.8483 -0.09315,1.82922 -0.0085,2.98199 0.310924,4.23334 1.473332,5.77208 7.310222,10.44788 15.235878,12.20511 l 2.248963,0.49863 -2.381254,-0.11567 c -2.931803,-0.14242 -5.17841,-0.70703 -7.9375,-1.99486 -2.15104,-1.00401 -5.220931,-3.13384 -5.667667,-3.93212 -0.135173,-0.24154 -0.308436,-0.37649 -0.385029,-0.2999 -0.239097,0.2391 2.37239,5.42069 3.504025,6.95253 1.415667,1.91632 3.490036,3.69676 6.297702,5.40537 1.25542,0.76398 2.175625,1.38761 2.0449,1.38583 -0.130723,-0.002 -1.189477,-0.41872 -2.352784,-0.92655 z m 1.718228,-13.51422 c -3.510674,-0.93184 -6.026441,-2.91308 -7.405636,-5.83215 -1.049527,-2.22132 -1.315209,-3.4848 -1.299983,-6.18218 l 0.01269,-2.24896 0.725975,2.24896 c 1.518174,4.70306 3.707552,7.84488 6.681039,9.58746 1.602024,0.93885 4.817011,1.97568 6.898404,2.22474 1.41872,0.16977 1.54673,0.22567 0.86981,0.37983 -1.39978,0.31879 -4.98174,0.2206 -6.482304,-0.1777 z m 13.122379,-3.18884 c -0.71358,-0.37118 -2.46889,-1.06861 -3.90068,-1.54984 -4.83204,-1.62408 -7.641419,-3.50784 -9.579699,-6.42343 -2.35227,-3.53832 -2.974357,-6.76454 -1.811328,-9.39376 1.142455,-2.5827 4.178632,-4.70937 7.547227,-5.28638 1.45472,-0.24919 1.97591,-0.22336 3.38214,0.16761 2.84692,0.79151 4.27784,2.11742 6.31885,5.8551 1.03501,1.89541 2.41962,3.68563 3.76047,4.86209 0.77795,0.68257 1.35072,0.91611 2.77813,1.13276 2.67199,0.40556 2.6658,0.4015 1.85299,1.21431 l -0.70552,0.70552 -1.24426,-0.87704 c -1.23994,-0.87399 -1.24702,-0.8754 -2.0391,-0.40751 -0.50661,0.29926 -1.32863,0.4687 -2.26686,0.46725 -1.94882,-0.003 -3.71793,-0.86395 -6.76369,-3.29157 -3.15788,-2.51698 -3.78263,-2.87761 -4.9871,-2.87878 -1.999453,-0.002 -3.826035,1.39979 -4.42376,3.39482 -0.396698,1.32406 0.04113,2.9252 1.143097,4.18026 l 0.8381,0.95455 0.24683,-0.75958 c 0.58662,-1.80531 2.017823,-3.00854 3.578543,-3.00854 0.43319,0 2.29616,0.73914 4.13993,1.64254 3.25796,1.59632 3.42182,1.64559 5.8227,1.75059 1.81372,0.0793 2.80345,-0.005 3.7233,-0.31885 1.6444,-0.56031 1.8402,-0.32187 0.28361,0.34537 -3.0052,1.28818 -6.21592,1.21839 -9.93531,-0.21596 -1.17297,-0.45234 -2.50547,-0.82244 -2.96111,-0.82244 -1.23121,0 -2.4992,0.70893 -3.02962,1.69385 -0.997943,1.85306 0.0574,2.97001 4.56551,4.8319 2.68811,1.11022 5.09632,2.34521 5.09632,2.61353 0,0.16765 0.0203,0.17585 -1.42971,-0.57837 z m 0.0773,-15.54455 c 0.61993,-0.34361 0.59842,-0.36816 -1.12448,-1.28302 -0.96607,-0.51299 -1.7565,-0.82483 -1.7565,-0.69298 0,0.52385 1.41953,2.34448 1.8211,2.33568 0.23533,-0.005 0.71227,-0.16701 1.05988,-0.35968 z m -15.419716,8.76958 c -2.97767,-2.93694 -4.394596,-6.2147 -4.394596,-10.16598 0,-3.61795 1.304969,-5.93438 6.415315,-11.38773 2.283394,-2.436652 3.711774,-4.233832 4.714207,-5.931387 1.40008,-2.370956 1.4405,-2.411736 1.52546,-1.538845 0.16257,1.670281 -0.51703,6.192252 -1.27032,8.452592 -0.41222,1.23692 -0.7067,2.29349 -0.6544,2.34792 0.0523,0.0544 0.88669,-0.65995 1.85418,-1.5875 1.95716,-1.87637 4.57644,-5.214317 5.11844,-6.522819 1.39033,-3.356551 0.74788,3.915149 -0.71948,8.143649 -0.47055,1.35597 -0.55713,1.44912 -1.26971,1.36602 -0.4206,-0.049 -1.83629,-0.10858 -3.14598,-0.13229 -2.200633,-0.0398 -2.526573,0.025 -4.297115,0.85486 -3.225486,1.5118 -5.356695,4.2185 -5.767742,7.32521 -0.332156,2.51044 0.889914,6.29186 2.876848,8.90176 1.854487,2.43592 1.575812,2.40043 -0.985107,-0.12546 z"
       style="fill:#fe9a37;stroke-width:0.26458332" />
  </g>
</svg>
