<?xml version="1.0" encoding="UTF-8" standalone="no"?>
<svg
   xmlns:dc="http://purl.org/dc/elements/1.1/"
   xmlns:cc="http://creativecommons.org/ns#"
   xmlns:rdf="http://www.w3.org/1999/02/22-rdf-syntax-ns#"
   xmlns:svg="http://www.w3.org/2000/svg"
   xmlns="http://www.w3.org/2000/svg"
   xmlns:sodipodi="http://sodipodi.sourceforge.net/DTD/sodipodi-0.dtd"
   xmlns:inkscape="http://www.inkscape.org/namespaces/inkscape"
   inkscape:version="1.0 (4035a4fb49, 2020-05-01)"
   sodipodi:docname="fox-logo.svg"
   id="svg52"
   version="1.1"
   viewBox="0 0 62.441666 79.375"
   height="300"
   width="236">
  <defs
     id="defs46" />
  <sodipodi:namedview
     inkscape:window-maximized="1"
     inkscape:window-y="-8"
     inkscape:window-x="-8"
     inkscape:window-height="1017"
     inkscape:window-width="2560"
     units="px"
     fit-margin-bottom="0"
     fit-margin-right="0"
     fit-margin-left="0"
     fit-margin-top="0"
     showgrid="false"
     inkscape:document-rotation="0"
     inkscape:current-layer="layer1"
     inkscape:document-units="mm"
     inkscape:cy="135.49951"
     inkscape:cx="212.60911"
     inkscape:zoom="7.9195959"
     inkscape:pageshadow="2"
     inkscape:pageopacity="0.0"
     borderopacity="1.0"
     bordercolor="#666666"
     pagecolor="#ffffff"
     id="base" />
  <metadata
     id="metadata49">
    <rdf:RDF>
      <cc:Work
         rdf:about="">
        <dc:format>image/svg+xml</dc:format>
        <dc:type
           rdf:resource="http://purl.org/dc/dcmitype/StillImage" />
        <dc:title></dc:title>
      </cc:Work>
    </rdf:RDF>
  </metadata>
  <g
     transform="translate(-73.100596,-80.508933)"
     id="layer1"
     inkscape:groupmode="layer"
     inkscape:label="Слой 1">
    <g
       transform="translate(3.7797715,-4.0306451)"
       inkscape:label="Layer 1"
       id="layer1-6">
      <path
         d="M 0,0 V 150 300 H 118 236 V 150 0 H 118 Z m 229.72656,148.67773 c 0.84289,-0.0948 1.06552,0.86005 0.0586,1.28711 -2.61035,1.10712 -5.21121,2.23286 -7.79688,3.39649 -1.13989,0.51298 -1.65945,-0.63942 -0.51953,-1.15235 2.60566,-1.17247 5.22847,-2.30722 7.85937,-3.42187 0.14388,-0.061 0.27803,-0.0958 0.39844,-0.10938 z"
         transform="matrix(0.26458333,0,0,0.26458333,69.320824,84.539578)"
         style="fill:#fefefd;stroke-width:0.999999"
         id="path3758" />
      <path
         sodipodi:nodetypes="ssscsssssssssssscssssssssssccscsscsssscssscssssssccsscccscscsccssssssssssccssssccccssscsscscccssssscc"
         d="m 118,0.0546875 c -0.34975,0 -0.70097,0.49098633 -1.39453,1.4726563 C 115.83897,2.6122231 89.478909,36.113006 58.027344,75.972656 26.575778,115.83231 0.67302013,148.71988 0.46484375,149.05664 c -0.2081537,0.33683 25.53419025,33.4238 57.20507825,73.52734 31.670884,40.10355 58.084628,73.70353 58.697268,74.66602 0.61258,0.96249 1.34746,1.75 1.63281,1.75 0.28539,0 1.02019,-0.78751 1.63281,-1.75 0.61263,-0.96249 27.03245,-34.57045 58.71094,-74.68359 35.4847,-44.9328 57.2811,-73.34267 56.77344,-74 C 234.66398,147.97956 208.75242,115.1 177.53711,75.5 146.32184,35.9 120.15594,2.6122231 119.39062,1.5273438 118.69812,0.54567383 118.34975,0.0546875 118,0.0546875 Z m 0,3.0136719 C 118.39239,3.0678265 225.31804,138.1689 232.18359,147.33984 c 1.66171,2.21968 0.93337,3.20111 -55.8789,75.20508 -31.65971,40.12555 -57.8423,73.05125 -58.1836,73.16992 C 117.30388,295.9988 2.4415928,150.26838 2.6953125,149.26953 2.978195,148.15586 117.40393,3.0691682 118,3.0683594 Z m 5.25977,31.0117186 c -0.58824,0.0273 -1.88804,2.188379 -5.19532,7.789063 -3.78872,6.415956 -9.18821,13.208575 -17.81836,22.417968 C 80.9314,84.898196 76,93.653983 76,107.32812 c 0,14.93398 5.355189,27.32163 16.609375,38.42188 9.679065,9.54667 10.731745,9.68124 3.722656,0.47461 -7.509672,-9.86419 -12.128439,-24.15625 -10.873047,-33.64453 1.553564,-11.7419 9.608015,-21.971659 21.798826,-27.685549 6.69181,-3.136478 10.96055,-4.36499 19.2779,-4.214565 4.95001,0.08961 7.26525,1.02909 8.85491,1.482143 2.75089,1.059415 1.54564,1.372013 2.74245,-0.541426 0.58433,-0.934212 1.16716,-2.058218 2.05638,-4.620683 5.54593,-15.981732 7.97354,-43.465474 2.71875,-30.779297 -2.0485,4.945519 -11.94856,17.562505 -19.3457,24.654297 -3.65666,3.505701 -6.81014,6.205606 -7.00781,6 -0.19767,-0.20572 0.91661,-4.200027 2.47461,-8.875 2.84708,-8.543017 5.41522,-25.634393 4.80078,-31.947266 -0.12042,-1.237168 -0.21737,-1.989038 -0.57031,-1.972656 z m 3.125,51.054688 c -1.43194,0.04288 -2.99679,0.248379 -5.0586,0.601562 -12.7317,2.180825 -24.207449,10.219083 -28.525389,19.980472 -4.3957,9.93721 -2.044766,22.13073 6.845703,35.5039 7.325786,11.01956 17.944206,18.13909 36.207036,24.27735 5.41149,1.81882 12.04519,4.45453 14.74218,5.85742 5.48036,2.85059 5.4043,2.82114 5.4043,2.1875 0,-1.01412 -9.10193,-5.6828 -19.26172,-9.87891 C 119.69976,156.627 115.71067,152.40604 119.48242,145.40234 121.48716,141.67981 126.2802,139 130.93359,139 c 1.72211,0 6.75814,1.39974 11.19141,3.10938 14.05754,5.42116 26.19255,5.68316 37.55078,0.81445 5.88318,-2.52185 5.14279,-3.4224 -1.07226,-1.30469 -3.4766,1.18621 -7.21727,1.5048 -14.07227,1.20508 -9.07419,-0.39685 -9.69231,-0.5819 -22.00586,-6.61524 C 135.55681,132.79456 128.51421,130 126.87695,130 c -5.89878,0 -11.30824,4.54787 -13.52539,11.37109 l -0.93164,2.8711 -3.16797,-3.60742 c -4.16491,-4.74354 -5.81964,-10.79646 -4.32031,-15.80079 2.25912,-7.54027 9.16176,-12.83763 16.71875,-12.83007 4.55233,0.004 6.91432,1.36786 18.84961,10.88086 11.51153,9.17525 18.19883,12.42811 25.56445,12.43945 3.54607,0.005 6.65166,-0.63456 8.56641,-1.76563 2.99369,-1.7684 3.02064,-1.76225 7.70703,1.54102 l 4.70313,3.31445 2.66601,-2.66601 c 3.07204,-3.07204 3.09495,-3.05702 -7.00391,-4.58985 -5.39493,-0.81883 -7.55971,-1.70145 -10.5,-4.28125 -5.06777,-4.44646 -10.30104,-11.2132 -14.21289,-18.37695 -7.71405,-14.126665 -13.12084,-19.137372 -23.88085,-22.128906 -3.32181,-0.923551 -5.33806,-1.307789 -7.72461,-1.236328 z M 70.455078,97 c -1.254459,0 -13.441666,18.00523 -17.048828,25.1875 -6.634537,13.21017 -7.781001,18.74349 -7.101562,34.3125 1.652039,37.85548 18.42131,64.98645 48.201171,77.98633 4.396751,1.91936 8.398511,3.49439 8.892581,3.50195 0.49408,0.007 -2.98362,-2.3508 -7.728518,-5.23828 -10.611651,-6.45774 -18.452182,-13.1869 -23.802734,-20.42969 -4.277046,-5.78963 -14.147815,-25.37366 -13.244141,-26.27734 0.289485,-0.28948 0.944188,0.2199 1.455078,1.13281 1.688451,3.01712 13.29196,11.06665 21.421875,14.86133 10.428057,4.86739 18.91917,7.00273 30,7.54101 l 9,0.4375 -8.5,-1.88476 C 82.044765,201.48936 59.984515,183.81574 54.416016,162 53.208744,157.27049 52.888171,152.91359 53.240234,146 53.824001,134.53658 56.616268,125.65927 64.947266,108.7793 68.144595,102.301 70.62338,97 70.455078,97 Z m 69.679692,8.02734 c 0.62173,-0.0817 3.30902,1.03202 6.5039,2.72852 6.51175,3.45774 6.59304,3.55093 4.25,4.84961 -1.3138,0.7282 -3.11642,1.34048 -4.00586,1.35937 C 145.36507,113.9981 140,107.11662 140,105.13672 c 0,-0.0623 0.046,-0.0977 0.13477,-0.10938 z M 68.144531,129.5 68.097656,138 c -0.05755,10.19482 0.945393,14.96969 4.91211,23.36523 5.212705,11.03271 14.721545,18.52106 27.990234,22.04297 5.67142,1.50539 19.20949,1.87675 24.5,0.67188 2.55844,-0.58265 2.07498,-0.7939 -3.28711,-1.43555 -7.86668,-0.94133 -20.01737,-4.85979 -26.072265,-8.4082 C 84.902249,167.6502 76.626652,155.77534 70.888672,138 Z"
         transform="matrix(0.26458333,0,0,0.26458333,69.320824,84.539578)"
         style="fill:#fe9a37;stroke-width:0.999999"
         id="path3756" />
    </g>
  </g>
</svg>
