<?xml version="1.0" encoding="UTF-8" standalone="no"?>
<svg
   xmlns:dc="http://purl.org/dc/elements/1.1/"
   xmlns:cc="http://creativecommons.org/ns#"
   xmlns:rdf="http://www.w3.org/1999/02/22-rdf-syntax-ns#"
   xmlns:svg="http://www.w3.org/2000/svg"
   xmlns="http://www.w3.org/2000/svg"
   id="svg11"
   version="1.1"
   viewBox="0 0 271 100"
   height="100pt"
   width="271pt">
  <metadata
     id="metadata17">
    <rdf:RDF>
      <cc:Work
         rdf:about="">
        <dc:format>image/svg+xml</dc:format>
        <dc:type
           rdf:resource="http://purl.org/dc/dcmitype/StillImage" />
        <dc:title></dc:title>
      </cc:Work>
    </rdf:RDF>
  </metadata>
  <defs
     id="defs15" />
  <g
     id="#ff9933ff">
    <path
       id="path2"
       d=" M 52.42 0.00 L 52.78 0.00 C 51.48 7.13 48.77 13.97 44.52 19.87 C 51.16 16.76 56.81 11.95 61.63 6.48 C 60.60 12.94 57.69 18.85 54.30 24.38 C 45.65 18.39 31.90 21.86 27.87 31.76 C 25.13 38.59 28.03 45.78 30.85 52.05 C 22.46 44.17 20.09 29.20 28.43 20.46 C 35.77 12.86 46.55 9.16 52.42 0.00 Z"
       opacity="1.00"
       fill="#ff9933" />
    <path
       id="path4"
       d=" M 3.16 45.10 C 7.91 35.72 15.96 28.21 24.92 22.88 C 21.07 26.71 16.83 30.25 14.05 35.01 C 9.12 42.14 6.96 51.82 10.88 59.90 C 15.27 69.97 25.16 76.10 35.11 79.73 C 27.08 78.83 19.56 74.79 13.70 69.33 C 9.70 65.66 7.59 60.59 5.36 55.77 C 6.43 67.39 15.81 76.24 25.71 81.26 C 45.06 90.86 67.75 90.76 88.47 86.30 C 113.62 80.75 136.56 68.24 161.61 62.39 C 179.38 58.17 198.01 56.81 216.05 60.09 C 236.75 63.71 256.19 73.94 271.00 88.84 L 271.00 89.76 C 266.94 87.11 262.38 85.36 257.95 83.44 C 243.29 77.24 227.66 72.96 211.69 72.39 C 198.98 71.83 186.30 73.66 173.94 76.51 C 157.76 80.25 141.86 85.05 125.88 89.54 C 111.18 93.69 96.32 97.78 81.02 98.90 C 64.33 100.25 47.13 98.74 31.46 92.55 C 20.36 88.10 9.60 81.02 3.78 70.28 C -0.52 62.62 -0.87 52.94 3.16 45.10 Z"
       opacity="1.00"
       fill="#ff9933" />
    <path
       id="path6"
       d=" M 29.48 35.04 C 30.88 27.24 39.59 22.99 46.94 23.74 C 52.83 24.22 57.98 28.55 59.71 34.16 C 61.04 38.62 62.19 43.28 65.10 47.03 C 67.03 50.05 70.86 50.51 73.91 51.80 C 72.96 52.55 71.99 53.28 71.03 54.00 C 69.77 52.66 68.51 51.33 67.23 50.01 C 62.23 52.25 56.92 49.06 53.81 45.17 C 50.84 42.08 48.84 37.77 44.87 35.82 C 39.05 33.42 32.31 40.07 34.90 45.91 C 35.53 46.57 35.90 50.10 37.12 48.47 C 38.80 45.59 42.09 42.75 45.61 44.44 C 49.36 46.58 52.09 50.19 56.00 52.14 C 60.09 54.50 64.94 54.32 69.50 54.66 C 63.87 56.80 57.48 55.51 52.42 52.51 C 49.98 51.09 47.82 48.96 44.93 48.50 C 42.05 47.93 38.85 49.97 38.48 52.95 C 39.78 56.85 43.80 58.73 46.96 60.92 C 50.04 62.71 52.48 65.32 54.78 67.99 C 49.55 63.07 42.63 60.50 37.47 55.50 C 31.80 50.50 28.53 42.58 29.48 35.04 M 52.36 33.86 C 53.15 35.72 54.03 37.55 54.91 39.37 C 55.79 39.15 57.54 38.71 58.42 38.50 C 56.58 36.73 54.67 34.98 52.36 33.86 Z"
       opacity="1.00"
       fill="#ff9933" />
    <path
       id="path8"
       d=" M 16.72 45.06 C 17.02 42.84 16.89 40.30 18.50 38.53 C 18.54 46.49 20.12 55.10 26.13 60.82 C 29.99 64.73 35.30 66.40 40.23 68.45 C 33.89 68.67 27.47 66.40 22.63 62.31 C 17.76 58.11 16.15 51.26 16.72 45.06 Z"
       opacity="1.00"
       fill="#ff9933" />
  </g>
  <g
     style="display:inline"
     id="layer1">
    <g
       style="font-style:normal;font-variant:normal;font-weight:bold;font-stretch:normal;font-size:28px;line-height:1.25;font-family:'Century Gothic';-inkscape-font-specification:'Century Gothic Bold';letter-spacing:12px;stroke-width:0.75"
       id="text22"
       aria-label="DESIGN">
      <path
         id="path24"
         style="font-style:normal;font-variant:normal;font-weight:normal;font-stretch:normal;font-size:28px;font-family:'Century Gothic';-inkscape-font-specification:'Century Gothic';stroke-width:0.75"
         d="M 86.247963,50.72678 V 30.615452 h 4.169922 q 4.511719,0 6.548828,0.724609 2.925781,1.025391 4.566407,3.554688 1.6543,2.529297 1.6543,6.029297 0,3.021484 -1.3125,5.318359 -1.29883,2.296875 -3.390629,3.390625 -2.078125,1.09375 -5.837891,1.09375 z m 1.927734,-1.900391 h 2.324219 q 4.169922,0 5.783203,-0.519531 2.269531,-0.738281 3.56836,-2.652344 1.298831,-1.927734 1.298831,-4.703125 0,-2.912109 -1.408206,-4.976562 Q 98.3339,33.910374 95.818275,33.144749 93.931557,32.57053 89.597572,32.57053 h -1.421875 z" />
      <path
         id="path26"
         style="font-style:normal;font-variant:normal;font-weight:normal;font-stretch:normal;font-size:28px;font-family:'Century Gothic';-inkscape-font-specification:'Century Gothic';stroke-width:0.75"
         d="m 119.09757,30.615452 h 11.52539 v 1.982422 h -9.51562 v 6.289062 h 9.43359 v 1.96875 h -9.43359 v 7.888672 h 9.43359 v 1.982422 h -11.44336 z" />
      <path
         id="path28"
         style="font-style:normal;font-variant:normal;font-weight:normal;font-stretch:normal;font-size:28px;font-family:'Century Gothic';-inkscape-font-specification:'Century Gothic';stroke-width:0.75"
         d="m 144.04484,46.980686 1.70898,-1.02539 q 1.80469,3.322265 4.16992,3.322265 1.01172,0 1.90039,-0.464844 0.88868,-0.478515 1.35352,-1.271484 0.46484,-0.792969 0.46484,-1.681641 0,-1.011718 -0.68359,-1.982421 -0.94336,-1.339844 -3.44531,-3.226563 -2.51563,-1.900391 -3.13086,-2.748047 -1.06641,-1.421875 -1.06641,-3.076172 0,-1.3125 0.62891,-2.392578 0.6289,-1.080078 1.76367,-1.695312 1.14844,-0.628907 2.48828,-0.628907 1.42188,0 2.65235,0.710938 1.24414,0.697266 2.625,2.583984 l -1.64063,1.244141 q -1.13477,-1.503906 -1.94141,-1.982422 -0.79296,-0.478516 -1.73632,-0.478516 -1.2168,0 -1.9961,0.738282 -0.76562,0.738281 -0.76562,1.818359 0,0.65625 0.27343,1.271484 0.27344,0.615235 0.99805,1.339844 0.39649,0.382813 2.59766,2.009766 2.61133,1.927734 3.58203,3.43164 0.9707,1.503907 0.9707,3.021485 0,2.1875 -1.66797,3.800781 -1.65429,1.613281 -4.0332,1.613281 -1.83203,0 -3.32227,-0.970703 -1.49023,-0.984375 -2.74804,-3.28125 z" />
      <path
         id="path30"
         style="font-style:normal;font-variant:normal;font-weight:normal;font-stretch:normal;font-size:28px;font-family:'Century Gothic';-inkscape-font-specification:'Century Gothic';stroke-width:0.75"
         d="m 171.78117,30.615452 h 2.00976 V 50.72678 h -2.00976 z" />
      <path
         id="path32"
         style="font-style:normal;font-variant:normal;font-weight:normal;font-stretch:normal;font-size:28px;font-family:'Century Gothic';-inkscape-font-specification:'Century Gothic';stroke-width:0.75"
         d="m 209.81242,33.992405 -1.5586,1.476562 q -1.68164,-1.654296 -3.6914,-2.501953 -1.9961,-0.861328 -3.89649,-0.861328 -2.36523,0 -4.51172,1.16211 -2.13281,1.162109 -3.30859,3.158203 -1.17578,1.982422 -1.17578,4.197265 0,2.269532 1.21679,4.320313 1.2168,2.037109 3.36329,3.21289 2.14648,1.16211 4.70312,1.16211 3.10352,0 5.25,-1.75 2.14649,-1.75 2.54297,-4.539063 h -6.41211 v -1.941406 h 8.66797 q -0.0273,4.662109 -2.77539,7.410156 -2.73438,2.734375 -7.32813,2.734375 -5.57812,0 -8.83203,-3.800781 -2.50195,-2.925781 -2.50195,-6.767578 0,-2.857422 1.43555,-5.318359 1.43554,-2.460938 3.9375,-3.841797 2.50195,-1.394532 5.66015,-1.394532 2.55664,0 4.8125,0.929688 2.25586,0.916016 4.40235,2.953125 z" />
      <path
         id="path34"
         style="font-style:normal;font-variant:normal;font-weight:normal;font-stretch:normal;font-size:28px;font-family:'Century Gothic';-inkscape-font-specification:'Century Gothic';stroke-width:0.75"
         d="M 226.87101,50.72678 V 30.615452 h 0.4375 L 240.6796,46.009983 V 30.615452 h 1.98243 V 50.72678 h -0.45118 L 228.94913,35.523655 V 50.72678 Z" />
    </g>
  </g>
</svg>
