<?xml version="1.0" encoding="UTF-8" ?>
<!DOCTYPE svg PUBLIC "-//W3C//DTD SVG 1.1//EN" "http://www.w3.org/Graphics/SVG/1.1/DTD/svg11.dtd">
<svg width="236pt" height="300pt" viewBox="0 0 236 300" version="1.1" xmlns="http://www.w3.org/2000/svg">
<g id="#ff9933ff">
<path fill="#ff9933" opacity="1.00" d=" M 47.90 135.05 C 52.55 120.07 61.78 107.06 71.84 95.24 C 69.28 100.79 65.88 105.91 63.49 111.55 C 56.46 125.56 50.72 141.30 53.38 157.20 C 55.45 172.40 65.66 185.34 77.98 193.93 C 91.12 203.06 106.84 208.15 122.69 209.65 C 122.68 209.84 122.66 210.22 122.64 210.41 C 102.39 210.71 81.28 205.54 65.50 192.33 C 62.73 190.18 60.55 187.42 57.98 185.06 C 62.76 199.08 70.01 212.83 81.40 222.63 C 88.18 228.97 96.29 233.57 104.48 237.79 C 104.41 237.96 104.28 238.29 104.21 238.46 C 94.51 234.99 84.87 230.82 76.87 224.20 C 60.66 211.52 51.30 191.86 47.72 171.93 C 45.79 159.76 44.30 147.07 47.90 135.05 Z" />
</g>
</svg>
