<?xml version="1.0" encoding="UTF-8" ?>
<!DOCTYPE svg PUBLIC "-//W3C//DTD SVG 1.1//EN" "http://www.w3.org/Graphics/SVG/1.1/DTD/svg11.dtd">
<svg width="236pt" height="300pt" viewBox="0 0 236 300" version="1.1" xmlns="http://www.w3.org/2000/svg">
<g id="#ff9933ff">
<path fill="#ff9933" opacity="1.00" d=" M 115.81 45.82 C 118.80 41.69 120.66 36.83 123.84 32.87 C 123.87 43.65 123.20 54.56 120.22 64.96 C 119.03 69.42 116.88 73.53 115.50 77.92 C 119.98 74.35 124.61 70.84 128.31 66.41 C 134.72 58.97 141.11 51.26 145.02 42.15 C 147.06 56.30 142.59 70.38 138.06 83.65 C 131.34 81.07 124.02 79.57 116.88 81.28 C 107.23 83.73 97.77 88.64 91.84 96.88 C 86.11 104.13 84.00 113.91 85.80 122.94 C 87.88 134.46 94.44 144.57 101.80 153.44 C 88.81 145.15 78.76 131.60 76.50 116.15 C 74.77 107.33 75.71 97.93 79.91 89.92 C 88.60 72.70 105.71 62.03 115.81 45.82 Z" />
</g>
</svg>
