<?xml version="1.0" encoding="UTF-8" ?>
<!DOCTYPE svg PUBLIC "-//W3C//DTD SVG 1.1//EN" "http://www.w3.org/Graphics/SVG/1.1/DTD/svg11.dtd">
<svg width="236pt" height="300pt" viewBox="0 0 236 300" version="1.1" xmlns="http://www.w3.org/2000/svg">
<g id="#ff9933ff">
<path fill="#ff9933" opacity="1.00" d=" M 93.45 104.42 C 100.48 91.21 116.40 83.60 131.12 85.53 C 142.17 86.98 151.36 95.12 156.13 104.92 C 160.93 114.78 167.30 124.40 176.74 130.36 L 176.96 129.05 C 177.09 129.73 177.34 131.08 177.46 131.76 C 170.99 137.25 161.68 136.14 154.52 132.69 C 144.36 127.59 136.98 118.41 127.03 112.99 C 118.87 109.53 108.93 114.49 105.70 122.49 C 102.22 130.07 105.82 139.87 112.86 144.07 C 113.79 138.89 116.29 133.57 121.22 131.15 C 124.74 129.15 129.15 129.45 132.71 131.20 C 140.02 134.91 147.01 139.52 154.99 141.70 C 161.75 143.67 168.99 143.88 175.87 142.44 C 179.55 141.68 182.91 139.90 186.57 139.06 C 174.12 148.00 157.02 148.64 143.20 142.57 C 138.44 140.41 133.26 138.19 127.91 139.22 C 122.20 140.01 116.79 145.74 118.27 151.73 C 120.52 156.42 125.51 158.89 130.00 161.00 C 140.39 165.35 151.93 168.41 159.87 176.93 C 153.00 171.86 145.11 168.23 136.90 165.93 C 127.53 163.16 118.60 158.90 110.62 153.26 C 103.70 148.11 98.68 140.84 94.77 133.24 C 90.36 124.41 88.56 113.44 93.45 104.42 M 138.93 104.36 C 141.33 108.01 143.56 111.85 146.77 114.88 C 149.04 113.74 151.26 112.51 153.34 111.04 C 148.43 109.06 144.02 105.68 138.93 104.36 Z" />
<path fill="#ff9933" opacity="1.00" d=" M 177.39 131.94 C 177.99 131.48 178.59 131.03 179.20 130.60 C 183.48 131.71 187.90 131.99 192.25 132.68 C 190.94 134.63 189.44 136.45 187.83 138.16 C 183.93 136.81 181.05 133.71 177.39 131.94 Z" />
</g>
</svg>
